<?xml version="1.0" standalone="no"?>
<!DOCTYPE svg PUBLIC "-//W3C//DTD SVG 1.1//EN" "http://www.w3.org/Graphics/SVG/1.1/DTD/svg11.dtd" >
<svg>
<metadata>
Created by FontForge 20110222 at Mon Mar  7 08:37:57 2011
 By www-data
(c) 1994 by Dixie's Delights.
</metadata>
<defs>
<font id="TacoModern" horiz-adv-x="1000" >
  <font-face 
    font-family="Taco Modern"
    font-weight="400"
    font-stretch="normal"
    units-per-em="1000"
    panose-1="0 0 4 0 0 0 0 0 0 0"
    ascent="800"
    descent="-200"
    x-height="681"
    cap-height="821"
    bbox="-87 -279 1189 1082"
    underline-thickness="20"
    underline-position="-123"
    unicode-range="U+0020-201D"
  />
    <missing-glyph />
    <glyph glyph-name="space" unicode=" " horiz-adv-x="378" 
 />
    <glyph glyph-name="exclam" unicode="!" horiz-adv-x="384" 
d="M379 600l-3 -7l-14 6l3 8zM340 769q-25 -54 -48.5 -151t-43.5 -142q-9 -23 -10 -92q4 -20 7 -62q-25 -21 -25 -34q0 -8 4 -16q-6 7 -30 17t-40 10q-6 0 -19.5 -2t-18.5 -2q28 15 46 15q7 0 14 -3t12 -3q30 67 33 113q1 12 -5.5 39.5t-5.5 41.5q1 10 18.5 43.5t22.5 51.5
q1 5 12 79q9 63 24 98q17 -10 53 -1zM268 780q-3 -8 -39 -200q-14 -22 -35 -76q-5 -21 7 -65q2 -8 2 -18q0 -35 -28 -93q-12 -1 -45 -7t-51 -6q-17 12 -19 65q-1 37 -1 74q-8 37 -19 105q-2 46 -3 93q-5 59 -20 106q43 8 72 8q17 0 36 -3.5t29 -3.5q7 0 23 17q25 29 29 32
q8 -7 8 -33q5 0 15.5 -2.5t17.5 -2.5q10 0 21 10zM298 400l-18 -31l-7 4l18 30zM37 441q-12 36 -6 60q0 -19 6 -60zM313 137q0 -11 -9 -45q-10 -37 -20 -54q-15 -4 -61 -18q-40 -12 -47 -12q-8 0 -17 4t-10 4q42 35 105 30q0 16 5.5 50.5t5.5 51.5q0 27 -11 46
q59 -45 59 -57zM247 151q0 -4 -3 -38t-3 -50q-6 2 -12 2q-17 0 -59.5 -17.5t-59.5 -17.5q-5 0 -10 1q-21 32 -42 63q-30 48 -30 70t36 69q4 -6 24 -6q7 0 44 11t44 11q27 0 52 -45q19 -37 19 -53zM50 74q0 -8 -6 -16.5t-6 -10.5q-14 0 -26 13q6 12 24 30q5 -2 9.5 -5
t4.5 -11z" />
    <glyph glyph-name="quotedbl" unicode="&#x22;" horiz-adv-x="461" 
d="M378 700q0 -3 -9 -15t-11 -19q-6 -12 -6 -34q1 -27 -1 -36q-10 -20 -24 -65q-13 -72 -4 -160q-4 -7 -16 -19l-45 -2q0 5 12.5 21.5t12.5 23.5q-1 60 18 161q27 139 28 149q13 -6 45 -5zM314 695q0 1 -34 -160q-10 -47 -11 -137q-9 -10 -32 -20q-10 0 -34 12q-1 51 -5 148
q-2 26 -9 58t-7 31l-4 102l90 3q6 0 45 -17zM178 561q0 -17 -7.5 -67t-7.5 -83q0 -23 3 -46q-7 -3 -64 -1q14 -5 21 14q20 54 26 155q4 83 9 166q1 -24 10.5 -79t9.5 -59zM136 721q-1 -7 -7 -164q-4 -108 -23 -171l-68 -3q-5 48 -20 137l-32 69q-29 61 -30 101l-1 31
q14 0 24.5 -2.5t11.5 -2.5q6 7 6 12q35 -16 46 -15l25.5 3t67.5 5z" />
    <glyph glyph-name="dollar" unicode="$" horiz-adv-x="602" 
d="M358 874l-28 26q2 3 5 9t6 8q3 0 17 -16v-27zM426 709h-18q0 -5 5 36q0 2 -5 10t-5 11h18q0 -37 5 -57zM387 776q0 -4 -4.5 -9t-8.5 -5q0 4 4.5 9t8.5 5zM373 787q-21 -10 -21 -38q0 -10 3 -27q3 -21 4 -26q-7 -7 -7 -12q-12 14 -27 6q6 9 12.5 19.5t6.5 18.5
q0 5 -9.5 20t-9.5 22v40h48v-23zM509 514q0 -45 -7 -53q-27 -30 -46 -30q-5 0 -39 18q26 9 57 35q3 26 3 103q32 -23 32 -73zM383 557q-3 -5 -13.5 -19t-12.5 -19q-6 3 -18 10v18q3 5 13 8.5t19 7.5q7 -6 12 -6zM300 605q-12 -12 -68 -46q5 -22 14 -66q-33 11 -33 43
q0 21 24 45q5 6 42 35q11 -11 21 -11zM297 441l-5 -6l-32 26l5 6zM504 269q-54 -64 -166 -181q-5 -5 -22.5 -10t-23.5 -10q4 -22 8 -56v-61q-27 -9 -81 -24q-6 67 -7 77q-7 45 -20 74q-8 17 -61 56q-18 3 -53 17q-15 11 -38 34q-26 27 -36 35q18 19 47 55q4 16 18 44
q20 25 44 25q9 0 37 -13.5t40 -25.5t25 -36.5t13 -33.5q0 -7 -8 -13l-14 -14q-11 11 -41 11q6 14 19 30q-13 9 -37 17h-47q-4 -3 -4 -9q0 -35 60 -66q51 -27 79 -27q9 0 58 27.5t85 53.5q-44 43 -232 175q-22 4 -45 7q-39 9 -39 34q0 5 11 19.5t12 17.5q16 47 51 140
q18 2 78 3q23 44 23 55q0 6 -12 27t-12 27q0 7 10 24.5t10 29.5q0 10 -5 20h87l-19 -21q3 -3 13 -3q0 -14 8 -39t8 -28q0 -7 -34 -56q14 0 39 -2q3 0 75 -27q4 -15 18 -43q13 -6 38 -19v-95q-9 -12 -39 -22q-25 -8 -39 -8q-16 0 -24 4q-1 1 -42 34q-10 -7 -28 -19
q-12 4 -22.5 27.5t-10.5 40.5q0 6 1 10q23 12 66 34q6 -7 6 -18q0 -10 -5 -26.5t-4 -20.5q20 -23 36 -23q10 0 51 56q-13 6 -42 19q0 7 -4 16q-19 -1 -40 22q-7 0 -23 7t-22 7q-8 0 -34.5 -25t-42.5 -47q-1 -1 -1 -21q0 -17 1 -21q31 -42 37 -50q25 -30 49 -44
q20 -13 74.5 -25t75.5 -27q6 -4 24 -36q19 -35 34 -50q2 -7 11 -16zM558 252q0 -18 -171 -189q-12 -4 -33 -18q4 -42 19 -127q-40 -8 -119 -26q-3 3 -8.5 11.5t-8.5 11.5q9 3 83 30q-2 39 -14 116q27 -2 98 76q116 128 120 132q-19 18 -47 57q-6 15 -12 31.5t-18 23.5
q-22 14 -121 43q1 11 -12 18q-20 12 -23 15q0 2 21 23q26 -16 43 -35q-1 0 -3 -6q26 -21 79 -45t73 -40q34 -28 45 -75q1 -2 5 -11t4 -16zM339 251q0 -14 -12 -14q-17 0 -26 18q17 0 27.5 -2zM101 399h-24q12 1 21 8zM257 220q0 -6 -6 -19q-8 -17 -10 -21h-18q0 1 -2.5 6
t-2.5 12q0 5 14.5 17.5t14.5 19.5q0 5 -39 69q7 0 24 -6q25 -49 25 -78zM159 245q-5 -5 -16 -27q-27 21 -26 33q12 -6 42 -6zM449 -112q-10 17 -10 30q0 9 5 18q0 -7 2.5 -24t2.5 -24zM174 73q-11 2 -42 25.5t-35 31.5q12 -3 32 -12zM368 -164q-11 -11 -23 -11q-2 7 -5 23.5
t-5 23.5q2 0 9 2.5t9 2.5q0 -6 6 -19q8 -18 9 -22zM325 -140q-11 -4 -29 15l12 12q6 -6 17 -27zM133 23q3 -3 0 -8t-7 -5q1 4 7 13z" />
    <glyph glyph-name="ampersand" unicode="&#x26;" horiz-adv-x="785" 
d="M442 748h-6v21h6v-21zM756 219l-5 -3l-24 31l5 4zM594 509q-9 -6 -26 -28q-21 -26 -27 -31q-38 -24 -75 -48q-63 -40 -63 -60q0 -22 26 -54q-22 23 -74 56q3 12 13 29l61 41q51 33 76 62q9 10 29 19t28 9q5 0 9 -2t5 -2q3 -3 3 6q0 64 -52 143q48 -34 57 -75
q5 -33 10 -65zM690 202q-3 1 -10 5l9 10q1 -1 1 -15zM620 339l-56 -169h2q0 9 -3 30.5t-3 25.5q0 36 24 121q13 -3 36 -8zM835 26q2 -19 -11 -45l-17 5q6 6 28 40zM687 156q-8 -8 -8 -14q-8 0 -18 10q17 -1 26 4zM802 26q0 -11 -8 -19q-3 1 -10 6q7 5 18 13zM128 689l-5 -10
l-5 3l5 9zM769 142q0 -29 -19 -58q-22 -32 -53 -42q-20 -2 -63 -10q-3 0 -12 -5t-15 -5q-27 0 -73 37.5t-43 37.5q1 0 -47 -28q-51 -29 -79 -35q-114 -23 -236 -23q-64 0 -100 97q-28 78 -21 116l92 64q69 47 92 49q7 0 16 11t9 18q0 5 -29 30q-48 42 -53 46q6 38 6 62
q0 44 -18 81q89 81 125 103q55 33 127 33q45 0 95 -24q20 -10 35 -34l22 -40q37 -64 37 -79v-28q-42 -13 -68 -32q-8 -5 -25.5 -26.5t-27.5 -26.5q-27 -15 -55 -30q-44 -28 -44 -52q0 -4 106 -99q26 15 29 44v45q18 19 49 27q24 5 48 11l-16 -64q-11 -45 -11 -87
q0 -114 82 -114q43 0 66 38q16 28 16 61q0 7 -14 18.5t-21 13.5q-4 -4 6 -13q-6 -9 -19 -24q-1 -2 15 -17v-13q-5 -9 -15 -9q-6 0 -20 4t-19 4l-17 -3v12q0 30 7 59q11 41 32 41q39 0 82 -56q39 -51 39 -86zM782 146q2 -5 2 -13q0 -42 -28 -96q-34 -63 -76 -63q-16 0 -82 36
q62 0 114 29q68 38 70 107zM453 268l-4 -4l-13 13l4 4zM194 348q-17 0 -17 -3q0 6 -7.5 20t-8.5 16q20 -14 33 -33zM150 347l-3 -5l-23 12v6zM512 62q-68 -70 -209 -70l-142 10q114 2 163 11q92 17 163 69q8 -4 25 -20zM343 -87l-4 -17h-18q24 17 22 17zM246 -66
q-1 -1 -17 -1q-1 3 -5 10l9 3t13 1v-13zM109 4l-3 -5l-17 8l2 5zM463 562q0 33 -17 62q-22 37 -61 37q-55 0 -99 -61q-40 -53 -40 -101q0 -33 16 -57q21 -31 59 -31q56 0 99 48.5t43 102.5zM426 142q0 21 -10 33q-18 22 -93 78.5t-86 56.5q-34 0 -54 -42q-15 -31 -15 -57
q0 -59 33 -102q38 -49 105 -49q35 0 70 17q50 23 50 65zM407 551q-3 -7 -12 -31h-14q7 14 21 44zM425 628q-5 3 -22 3q-53 0 -90 -55q-32 -49 -32 -105q0 -20 6 -36q-26 22 -26 58q0 50 34 100q38 57 90 57q21 0 40 -22zM284 207q-8 -8 -19 -8q9 8 9 17zM272 279q0 1 -14 1
q-29 0 -45 -36q-11 -26 -11 -46q0 -46 17 -93q-36 52 -36 106q0 30 13 56q15 32 41 32q16 0 35 -20zM309 105q-1 0 -8.5 -1.5t-9.5 -1.5q13 13 13 17q5 -7 5 -14z" />
    <glyph glyph-name="quotesingle" unicode="'" horiz-adv-x="284" 
d="M323 713q-31 -18 -69 -82q-31 -55 -61 -110q-7 -10 -18 -65q-7 -38 -36 -45q-1 1 -26 18q0 2 23 19q2 27 14 81q2 9 20 33q26 36 31 44q16 30 32 61q23 39 62 69q-11 12 -43 33q51 -30 71 -56zM263 735q-117 -154 -139 -268q-5 -24 -25 -24q-10 0 -24 11.5t-14 21.5
q0 6 6 27.5t6 29.5v34q11 19 30 55q-1 8 3 27q6 8 13 27q2 15 1.5 46t1.5 46q1 6 9.5 15.5t16.5 9.5q20 0 58.5 -18t56.5 -40z" />
    <glyph glyph-name="comma" unicode="," horiz-adv-x="215" 
d="M193 51q-25 -14 -56 -67q-25 -45 -49 -89q-6 -9 -15 -54q-6 -30 -29 -36q-1 1 -22 15q1 1 19 15q2 22 11 66q13 19 42 63q13 24 27 49q18 32 50 56q-9 10 -31 25q20 -13 53 -43zM144 69q-95 -126 -112 -218q-4 -20 -21 -20q-8 0 -19.5 9.5t-11.5 17.5q0 5 5 22.5t5 24.5
v27q9 16 24 45q0 7 3 22q5 6 10 21q2 13 2 38t1 38q1 4 8 12t13 8q17 0 46 -14q33 -15 47 -33z" />
    <glyph glyph-name="period" unicode="." horiz-adv-x="238" 
d="M221 77q0 -21 -47.5 -65t-64.5 -43h-31q-5 7 -5 11q1 1 23 7q13 3 55 40q48 42 48 66q0 3 -21 49q23 -10 28 -18q15 -26 15 -47zM186 93q0 -16 -42 -53q-31 -27 -50 -40q-3 -1 -21 -1t-24 5q-11 9 -26 48t-15 58q0 6 13.5 27t25 33t43.5 12q23 0 59.5 -36t36.5 -53z" />
    <glyph glyph-name="zero" unicode="0" horiz-adv-x="635" 
d="M609 199q0 -12 -7 -40q-9 -37 -22 -54q-7 -10 -34.5 -27t-52 -33t-70.5 -49q-2 -2 -36 -12l-38 -12q-21 0 -93 21q41 -12 53 -12q5 0 14.5 10t14.5 10q48 0 113 41q53 33 100 79q27 28 27 105q0 5 -15.5 44.5t-15.5 45.5t13.5 23.5t13.5 23.5q0 4 -15.5 30.5t-18.5 39.5
q0 -2 4 44q-19 28 -63 72q28 -14 77 -48q17 -15 17 -45q-2 -43 0 -49q5 -6 15 -21q2 -7 -0.5 -23t-1.5 -22l4 -8.5t4 -13.5q0 -9 -8 -18q-5 -29 0 -48q2 -8 11.5 -28t9.5 -26zM79 618q-14 -14 -38 -37q0 18 9 71q17 -9 29 -34zM565 226q0 -11 -7 -41q-8 -36 -17 -53
q-3 -5 -19 -14q-20 -11 -24 -15q-62 -54 -120 -81q-11 -1 -31 -3q-6 -1 -23.5 -10.5t-23.5 -9.5q-15 0 -58 16t-47 21q-56 54 -163 166q-4 5 -2 21q2 22 1 29t-7 22t-6 20q0 6 5 16t6.5 15.5t1.5 14.5t-2.5 29t-2.5 31q0 28 17 43q10 52 33 102q1 1 26 22q16 14 36 54
q40 -2 49 1q5 1 15 11t16 10q4 0 31.5 -8t39.5 -9q28 0 56 -1q38 -2 51 -11q76 -50 132 -135q1 -3 1 -7t-2.5 -16t-2.5 -19q0 -6 2 -12q3 -9 20 -34q14 -23 14 -28t-13 -21t-13 -21q0 -6 15.5 -48t15.5 -47zM-12 321h-7v21h7v-21zM-1 250q-12 -2 -27 -17q-8 0 -21 5
q3 14 16 38l22 40q10 -41 10 -66zM-27 314q0 -20 -47 -55v15q-1 23 39 58l-7 9q15 -16 15 -27zM106 42q-24 -2 -33 24l-10 42q18 -11 28 -31q7 -18 15 -35zM50 92h-7l-5 15l7 2zM446 266q0 37 -6 58q-41 133 -71 198q-6 14 -24.5 30t-26.5 16q-6 0 -26 -12t-29 -15
q-9 10 -18 27q-2 -3 -11 -18q-6 -9 -11 -9q-6 0 -6 3v0q0 2 -5 2q2 0 -25 -12t-49 -11q-10 -29 -10 -42v-122q0 -5 -6.5 -30t-6.5 -30q0 -10 7 -34q8 -27 16 -40q13 -21 41.5 -54t37.5 -47q25 -4 62 -12q5 -2 20 -12q11 -9 17 -9q16 0 105 67q4 3 14.5 48.5t10.5 59.5z
M344 525q-1 0 -8.5 4t-13.5 4t-18 -7q-16 -9 -21 -11q0 6 -9 16q5 1 22 11q14 8 20 8t15 -9q6 -8 13 -16zM304 457q-3 -6 -10 -17h-15q0 13 9 17h16zM410 252q-10 -7 -11 -20v-23q-2 -12 -19 -12q-8 0 -19 12.5t-12 21.5q1 2 21 19q17 14 15 26zM366 260q-29 -14 -33 -14
t-59 27v14q0 12 10 20q21 17 23 18q20 -14 59 -41v-24zM269 527q-3 -2 -10.5 -13.5t-13.5 -11.5t-6 4v0q0 5 -5 5q-8 0 -33.5 -22.5t-40.5 -43.5q-1 0 2 -29q2 -27 -3 -83q-5 -62 -5 -59q0 -3 12 -33q14 -38 18 -48q-13 12 -33 36q-23 40 -23 67q0 2 7 40.5t7 57.5
q0 84 4 111q2 1 48 13q33 8 51 23q14 -17 24 -14z" />
    <glyph glyph-name="one" unicode="1" horiz-adv-x="667" 
d="M616 115q-8 -9 -27 -22q-1 -4 22 -26q-7 -6 -7 -18q-22 0 -37 -15q3 -8 13.5 -27.5t13.5 -27.5q-10 -3 -32.5 -16t-29.5 -13q-6 0 -17 7t-16 8q-61 2 -187 15q29 3 84 10q8 1 26.5 8t25.5 7q3 0 52 -33q11 5 25 32q-5 0 14 -2q14 -2 34 1q-27 38 -27 56q0 7 12 17
q18 15 20 18l-22 22q22 22 22 38q0 87 -5 206q-1 25 -17 78.5t-16 56.5q0 7 10 27q12 25 15 34q2 5 -3 26.5t-5 28.5q0 10 3 32t3 34q0 26 -12 48q2 0 42 6q12 -43 12 -76q0 -36 -7 -127q-1 -8 -10.5 -28t-9.5 -26t12.5 -27t12.5 -33q2 -36 -6 -107q-8 -74 -8 -72
q0 -38 2 -46q3 -20 25 -74zM166 574q0 -7 -9.5 -16t-9.5 -14l-3.5 15.5t-3.5 35.5h20q0 -2 3 -7.5t3 -13.5zM562 159q0 -14 -33 -44l12 -20q1 -3 -4 -18t-5 -23q0 -11 6 -18q2 -9 2 -14q-39 -7 -39 -28q-13 9 -55 38q-6 -8 -16 -20q-20 -1 -77 -7t-62 -6q-4 0 -28.5 3.5
t-36.5 3.5q26 76 26 131q0 12 -1 21q-4 4 -9.5 8t-5.5 12q0 17 33 47v237q-11 14 -22 14q-84 0 -198 -141q-10 13 -22.5 44t-12.5 40q0 33 100 85q59 31 105 48q4 8 6.5 24.5t7.5 23.5q27 32 55 64q40 48 37 75l4.5 7t12.5 7q7 0 45 -11t45 -11q27 0 90 27q9 -23 22 -67
q2 -12 -1 -45t-1 -47q0 -5 4.5 -15.5t4.5 -17.5t-11 -32q-14 -29 -16 -39l32 -140q0 -70 2 -118q1 -32 2 -56q2 -20 2 -22zM654 -37q-12 -2 -38 11l19 20q2 -2 7.5 -13.5t11.5 -17.5zM252 325q5 0 -14 -1q-11 -1 -17 2v20q3 0 13 2.5t13 2.5q0 -3 2.5 -13t2.5 -13zM247 459
q-4 -7 -13 -40q-64 -44 -192 -126q39 56 87 99q65 60 118 67zM15 328l-5 -5l-8 8l5 6zM312 -43q-13 0 -25 -12q0 3 -3 13.5t-3 12.5h20q0 -2 11 -14zM257 -12q0 -25 -2 -27q-4 7 -13 20q10 7 15 7z" />
    <glyph glyph-name="two" unicode="2" horiz-adv-x="810" 
d="M558 693q-37 10 -46 40q28 -10 46 -40zM705 488q0 -13 -10 -49q-11 -43 -24 -64q-6 -9 -31 -33q-28 -26 -39 -41q-15 -27 -45 -77q-6 -7 -21 -17l-25 -16l-50 6q14 27 63 67.5t65 65.5q23 37 45 114q19 64 19 81q0 11 -10 48q-11 42 -23 63q-4 7 -19 19.5t-20 19.5
q20 -13 59 -42q1 -1 2 -29q0 -8 2 -13l32 -44q30 -40 30 -59zM422 583q-13 5 -62 17q16 4 46 13q0 -13 16 -30zM778 154q0 -12 -5.5 -40t-5.5 -43q0 -23 10 -41h-35q1 4 -13 19.5t-14 21.5q0 20 38 109q25 -13 25 -26zM349 494q-13 -1 -29 15q-8 0 -19 -21q-12 6 -22 29
q-7 16 -13 32q13 7 37 7q19 0 21 -1t25 -27v-34zM329 611q-21 -18 -77 -54q8 -54 14 -89h-20q2 37 -21 58v65q39 20 70 43q13 -12 34 -23zM48 792l-13 -13l-5 6l13 12zM110 762q-3 -2 -25 -21q-15 -13 -22 -13q-8 0 -16.5 3.5t-9.5 3.5q54 28 67 28q3 0 6 -1zM412 467
q0 -7 -24.5 -42t-43.5 -55q-10 0 -30 -6q9 25 32 66q11 6 28 20q-4 22 -8 57v33q17 -4 31.5 -28t14.5 -45zM730 177q0 -10 -14 -46.5t-14 -54.5q0 -19 13 -30q-2 0 -6.5 -3.5t-11.5 -3.5q-16 0 -41.5 16t-29.5 16t-46 -13q-45 -15 -66 -17q-91 -12 -109 -12q-7 0 -42 8
t-42 8q-5 0 -29 -16l-39 26l-159 -57q-35 4 -55 59q-11 37 -23 75q22 21 66 35q65 22 71 25q18 8 70 42q47 30 51 30q6 0 11.5 -8t12.5 -8q18 0 69 32q6 5 48 62q44 62 44 76q0 1 -5.5 53.5t-6.5 97.5q0 6 -14 31q-16 29 -28 29q-6 0 -24.5 -5t-25.5 -5q-6 0 -29.5 15.5
t-30.5 15.5q-8 0 -92 -56v-66q20 -19 22 -39q0 -19 -1 -39q8 -5 31 -4q18 1 25 -10q20 15 41 29.5t34 16.5q-56 -98 -63 -98q-33 0 -66 17q-19 10 -71 57q-61 57 -61 80q0 6 17 68q11 39 73 91t95 52q8 0 16 -10.5t16 -20.5q18 13 58 36q17 -34 28 -34q2 0 5 1.5t5 1.5
q19 0 39 21q26 -12 95 -67q9 -1 20 -4q3 -7 18 -22q19 -18 24 -25q12 -17 24 -54q10 -32 10 -45q0 -12 -21 -79q-24 -76 -44 -114q-5 -8 -30 -25q-32 -22 -42 -31q-16 -14 -35 -39.5t-37 -50.5q15 -11 47 -13h55q61 0 67 1q13 3 47 18q31 12 37 12t13 -7.5t13 -7.5
q8 0 14.5 2t8.5 2v-18zM730 28q-14 -15 -23 -15q-7 0 -12 4t-6 4q17 -2 41 7zM298 366q-4 1 -33 1q-19 0 -35 15l34 -10q21 -6 34 -6zM663 26h-141q16 3 59 17q39 12 45 12q8 0 20.5 -13.5t16.5 -15.5zM215 394l-5 -7l-49 38l4 8zM307 305q0 -8 -17 -26l-11 11
q-1 -2 -28 -15q11 12 32 41q3 0 12.5 -5.5t11.5 -5.5zM255 309h-35v9h35v-9zM59 366l-6 -14l-8 3l7 14zM402 11q-5 0 -20.5 -9.5t-21.5 -9.5t-11.5 5.5t-11.5 5.5l-46 -15q-6 -7 7 -19q-7 -9 -23 -29q-12 6 -44 6q0 14 9 24q0 9 -8 9q23 15 34 32l-8 8q-11 -8 -39 -15
q-19 -5 -33 -29q2 -5 7 -5q-15 -9 -34 -9q-23 0 -60 19l149 54q15 -5 47 -26q5 6 11.5 13.5t14.5 7.5q7 0 36 -7q36 -10 45 -11z" />
    <glyph glyph-name="three" unicode="3" horiz-adv-x="562" 
d="M383 779q-10 -14 -26 -43q-12 0 -35 33q1 7 13 7q5 0 10 7.5t13 7.5q13 0 25 -12zM317 794q-6 -6 -6 -17q-12 0 -24 11l12 13q11 0 18 -7zM526 428l-132 -69q-18 7 -36 7q35 16 69 32q43 23 68 72q1 4 -20 12q0 5 2.5 14t2.5 16q0 34 -13 76q-16 50 -42 75q6 -5 40 -25
q26 -14 35 -31q26 -47 26 -123q0 -16 -26 -41q2 -3 26 -15zM267 575q-13 -12 -21 -12q-6 0 -21.5 6t-21.5 6q3 1 16 12t20 11q6 0 13 -7q13 -14 15 -16zM246 527q0 -7 -15 -26l-22 -30q-11 8 -11 22q0 8 8 31l-26 26q13 8 31 8q12 0 23.5 -11.5t11.5 -19.5zM175 524
q-7 -7 -7 -12q-11 10 -28 34q30 -4 35 -22zM581 133q0 -6 -5 -18q-6 -15 -7 -19q-16 -7 -32 -15q10 26 21 80q7 -5 14 -11q9 -9 9 -17zM287 492q0 -13 -15.5 -35t-32.5 -25q-37 -3 -109 -16q0 2 -2.5 9t-2.5 10q12 4 47 9q30 5 45 13q9 5 23 28q21 34 23 37q24 -12 24 -30z
M512 146l-24 -17l-4 7l23 17zM546 51q-13 1 -13 -4q0 -3 -2 12q-1 10 2 16q4 -7 13 -24zM475 464q-8 -13 -27 -32q-85 -52 -103 -52q-6 0 -7.5 2.5t-7.5 2.5q-7 0 -11 -5q-9 -11 -12 -13q13 -20 39 -23l46 -2q33 -49 45 -49q7 0 13 2.5t8 2.5l17 -17q-14 -20 -29 -61
q4 -19 6 -52q-34 -33 -105 -95q-95 -84 -106 -84q-47 0 -140 43q-66 31 -87 45q-12 33 -12 59q0 8 78 132q7 1 14 1q28 0 58 -21q27 -21 53 -41q2 -6 2 -13q0 -25 -33 -68h-23q-5 29 -20 81q-16 -18 -57 -53q83 -84 104 -84q7 0 36 13q33 14 48 28q23 27 71 79q1 9 -19 18
q0 7 -6 42q-5 28 -3 45q-10 12 -31 39q-13 -5 -35 -15q-2 0 -6 6q-6 10 -11 14q-6 0 -14 -5q-13 -9 -15 -10q-24 0 -37 3t-11 3q5 20 5 74q34 3 98 13q6 1 17.5 17t17.5 20q10 7 29 10q15 3 31 6l-46 84q-37 65 -53 65q-7 0 -52 -28q-65 -40 -78 -47q12 -16 76 -76
q-64 0 -84 -27q-68 114 -68 117q0 5 18.5 22.5t20.5 25.5q1 21 3 62q36 20 72 39q43 23 51 23q6 0 33 -17.5t33 -17.5t30 5t31 5q51 0 107 -83q23 -33 23 -103q0 -23 -4 -40q7 -5 19 -15zM280 299q-1 1 -3 1q-1 0 -18 -17q-6 4 -18 13q14 17 34 17q5 -10 5 -14zM515 243
q0 -6 -8 -35t-9 -40q-32 -26 -32 -37q0 -10 14 -18l-84 -80q-79 -75 -96 -75q-12 0 -49 12q90 76 220 194q-6 13 -6 31q0 47 27 83q23 -12 23 -35zM221 306q0 -7 -7 -13q-15 -14 -15 -15q-15 0 -27 3.5l-12 3.5q8 8 24 16q20 11 30 18q7 -1 7 -13zM294 184q0 3 -5.5 11.5
t-5.5 11.5q11 -11 11 -23zM266 185l-24 -32q-2 -13 -8 -36q-11 -9 -47 -21q-2 4 -7 11q0 1 18 22t21 32q2 4 2 26q0 26 1 19q-2 14 -17 22q21 -14 61 -43zM134 127q-19 7 -35 21q0 4 24 28q0 -17 11 -49zM215 -28l-44 11v7l44 -11v-7z" />
    <glyph glyph-name="four" unicode="4" horiz-adv-x="760" 
d="M714 509q-8 -20 -27 -39q-4 3 -8.5 6t-4.5 11q0 5 12 27q1 0 11.5 -2.5t16.5 -2.5zM650 524q-1 0 -6 -11q-4 -7 -10 -7zM608 334q-14 2 -28 -5q0 3 2 32q2 23 0 35q-3 23 -14 90q-9 55 -9 62v96q16 9 35 0q1 -30 -2 -92q-3 -70 -3 -65q0 -106 19 -135v-18zM262 656h-23
q-5 4 -6 24q7 0 29 -24zM664 287q-16 -29 -16 -63q2 0 -11 -2q-9 -2 -15 1q-7 -6 -11 -23q-13 0 -21 -15.5t-10 -29.5q-1 -11 4 -33t4 -26v-78q0 4 -12 4q-6 0 -64 -22.5t-64 -22.5q-5 0 -43 7.5t-45 7.5q-30 0 -62 -4q-5 28 -16 82l-2 123q-7 0 -13 7.5t-18 11.5
q-6 1 -42 1q-23 0 -91 -16q-90 -22 -99 -23q-3 39 -11 114q95 69 172 195q6 10 29 26q29 20 36 27q64 60 82 117q12 3 54 16q35 12 42 12q5 0 28 -12.5t29 -12.5t17 7.5t16 7.5q10 0 32 -12v-152q5 -20 14 -59q9 -44 9 -68q0 -8 -1.5 -26.5t-1.5 -35.5q13 -8 38 -1
q2 0 10.5 -4t15.5 -4q9 0 9 15q7 -19 10 -23q7 -13 18 -14zM704 298q-2 -15 0 -50q2 -36 -1 -54q-17 0 -26 2t-13 2q-32 0 -40 -128q0 -20 30 -70q-7 -18 -25 -18q-5 0 -13 2.5t-15 2.5q-6 0 -58.5 -20t-59.5 -20q-5 0 -31 5t-31 5q-19 0 -88 -20v34q4 0 15 3t17 3
q7 0 42 -7.5t41 -7.5t64 22.5t64 22.5q7 0 7 -2.5t6 -2.5q7 0 13 6l12 12q-15 15 -15 20q0 4 3 28q2 20 0 32q0 3 -5 21q-3 15 -3 22q0 24 31 46q35 24 38 33q5 23 21 64q-2 8 -24 27q2 -1 44 -15zM256 174q-39 14 -47 14q-37 0 -67.5 -20t-58.5 -20h-26q-5 9 -5 14
q12 3 78 21q55 15 62 15q35 0 61 -12q3 -8 3 -12zM154 59l-13 -18l-6 5l12 18zM143 25l-7 -3l-6 15h7zM277 367q0 6 -10 15q-7 6 -13 12q2 -23 -62 -89q45 14 74 9q0 8 5.5 27.5t5.5 25.5z" />
    <glyph glyph-name="five" unicode="5" horiz-adv-x="651" 
d="M614 591q-35 -16 -39 -15q0 20 13 32q-1 6 0.5 17t1.5 15q0 19 -15 29h39v-78zM650 487q-2 -2 -9 -12t-12 -15q-3 -1 -29 12q5 2 18.5 11t18.5 11q4 -1 13 -7zM592 520q1 -2 1 -4q0 -9 -12 -21q0 13 11 25zM524 532q-22 -15 -57 -33l-63 8q7 2 98 48zM469 557
q-71 -43 -89 -42h-26q3 16 40 30q31 10 63 20zM539 587q-33 -22 -47 -22q-7 0 -32 10t-31 10q-5 0 -20.5 -10t-22.5 -10q-6 0 -15 2.5t-15 2.5q-11 0 -31 -7q-24 -8 -31 -17q-10 -13 -22 -61h-34q0 2 -2.5 4.5t-2.5 9.5q0 8 14 29t27 34.5t36 15.5q19 2 62 10q38 7 44 7
q39 0 90 -20q14 11 20 25zM575 630q0 -7 -23 -30q-2 1 -11 8t-15 12q-3 -2 -12.5 -13.5t-16.5 -11.5t-54.5 10t-53.5 10q-7 0 -20 -9t-18 -10l-44 -6q-29 -5 -43.5 -15.5t-30 -37.5t-15.5 -35q0 -6 2 -15.5t2 -17.5q27 2 90 -15l106 -32q6 -16 25 -43q3 -2 18 -11.5
t22 -16.5q41 -41 41 -63q0 -8 -33 -87q-35 -82 -58 -127q-24 -4 -66 -14q-12 -3 -47 -31q-8 -7 -51 -22q0 -2 -14 25q-15 -7 -31 -14.5t-29 -20.5q-9 11 -31 28q-13 4 -36 14q-19 14 -60 53q-56 56 -56 78q0 28 65 87q64 56 83 56q5 0 34.5 -14t42.5 -17v-37
q-10 -14 -47 -67q-9 10 -25 10q-20 0 -31.5 -16.5t-11.5 -28.5q0 -21 19 -37q16 -14 26 -14q16 0 92 16q130 184 130 198q0 6 -8 14.5t-11 14.5q-13 26 -17 33q-13 22 -24 29q-31 22 -66 22q-38 0 -82 -17.5t-42 -17.5h-76l-8 7q4 87 13 314l187 -10q7 0 25.5 5t25.5 5
q5 0 15.5 -8.5t15 -10t36.5 -1.5q7 0 52 7.5t52 7.5q5 0 36 -11q35 -13 49 -16q13 -23 13 -43zM564 268q0 -18 -38 -95q-20 -39 -41 -79q-1 -18 -9 -50q-152 -67 -155 -67q-16 0 -23 7q15 29 61 51q41 19 81 23q23 36 62 132q37 89 37 98q0 22 -36 67q-4 5 -54 42
q25 3 70 -50t45 -79zM328 376q-37 -3 -120 -16q-77 -11 -81 -11q-23 0 -60 15h22q35 0 91 20t83 20t65 -28zM292 198q-21 -11 -56 -45q-9 0 -17.5 2.5t-10.5 2.5q-1 10 23.5 48.5t24.5 54.5q0 6 -3 11q10 1 25.5 -22.5t15.5 -42.5q0 -5 -2 -9zM187 155q-8 -14 -8 -20
q0 -2 3 -22h-23q-17 9 -17 30q0 30 20 30q8 0 25 -18zM257 -12q-1 0 -6.5 -5.5t-12.5 -5.5t-30 12q3 6 38 23q11 -12 11 -24z" />
    <glyph glyph-name="six" unicode="6" horiz-adv-x="746" 
d="M730 611q8 -22 -4 -59q-12 5 -25 31q15 0 29 28zM676 590q0 2 -6 12.5t-6 13.5q4 0 8.5 -7t4.5 -13q0 -4 -1 -6zM610 611q0 -7 -31 -37q-26 -24 -51 -48h-7q-4 0 -6 1h-34q33 3 50 54q19 55 37 63q4 3 4 21q0 16 -21 47q23 -10 40 -34q-3 -9 -3 -16q0 -13 19 -42
q3 4 3 -9zM411 667q-26 -4 -76 -20q-60 -30 -84 -67q-12 -18 -12 -86q-13 -3 -36 -11q6 39 22 110q9 30 52.5 61.5t74.5 31.5q30 0 59 -19zM733 189q-4 -4 -15 -5q-10 0 -10 4q-3 -6 -1 -20q4 -20 4 -28q-3 0 -13 -2.5t-13 -2.5q6 30 28 84q20 -8 20 -30zM780 176
q0 -37 -12 -37q-8 0 -8 3t-1 3q0 -15 -10 -46l21 -23q-12 3 -27 18.5t-15 31.5q0 7 9 27q12 24 13 29q2 0 13 -3t17 -3zM701 238q0 -2 -16.5 -46.5t-14.5 -65.5q-12 -49 -37 -71q-10 -9 -42 -25q-36 -18 -59 -23q-35 -3 -107 -9q-18 -9 -53 -24q-22 -6 -47 -6q-7 0 -26 19
q18 4 87 11t102 14q43 9 107 53q26 18 50 73q29 63 29 98q0 28 -85 256h25q22 -55 44 -109q43 -111 43 -145zM652 236q0 -127 -115 -183q-84 -40 -220 -39q-4 0 -18.5 -7t-21.5 -7q-12 0 -108 104q-92 101 -105 122q-14 25 -34.5 71t-20.5 54q0 6 13 30.5t15 34.5q1 3 12 27
q10 21 10 34q0 15 -12 24q19 28 57 119q4 23 19 65q13 22 80.5 60t105.5 38q30 0 74 -14q41 -13 64 -28q7 -5 29 -7.5t30 -6.5q12 -5 31 -27.5t19 -32.5q0 3 -56 -114q-17 -12 -35 -12q-6 0 -81 45q6 14 29 42q20 25 20 31q0 19 -31 35q-26 14 -39 14q-35 0 -77 -27
q-46 -29 -72 -74q-10 -17 -18 -69q-7 -48 -32 -80q2 -3 4 -5.5t10 -2.5q5 0 39 16.5t46 19.5q107 24 141 23h162q22 -61 44 -121q42 -121 42 -152zM111 116l-36 -36q-3 24 17 43q8 -7 19 -7zM545 279q0 29 -29 68q-14 18 -63 51q-32 20 -39 20q-14 0 -61 -14
q-54 -16 -80 -31q-39 -23 -109 -86q49 -34 49 -56q0 -14 -11 -32q31 6 88 -39q59 -48 89 -48q12 0 45 10q37 12 56 24q27 19 47 59q4 8 1 25q-4 20 -3 23q7 6 13.5 12t6.5 14zM508 217q-19 -38 -51 -62q-3 3 -12.5 7t-11.5 6q7 12 22 23t19 16q-4 14 -2 45zM459 217
q-11 -5 -35 -19q0 1 -11 17q-7 10 -7 18q0 17 18 35q2 0 11.5 -3t12.5 -3q1 -4 -1 -13t-2 -12q0 -14 14 -20zM438 389q-45 -28 -137 -89q-9 6 -28 22q-2 0 -7 -6t-10 -8q1 -2 11 -9t15 -13q-54 -18 -59 -18q-7 0 -16 7q-13 10 -16 12q28 25 87 70q26 16 76 31q44 14 57 14
q8 0 16.5 -6.5t10.5 -6.5zM342 279l-3 -8l-25 12l3 8zM271 204q-5 0 -20.5 5.5t-20.5 5.5v36q15 -6 41 -22v-25z" />
    <glyph glyph-name="seven" unicode="7" horiz-adv-x="751" 
d="M759 457h-7l-6 17l7 3zM759 448l-12 -18l-7 5l12 17zM408 744q8 -16 -2 -45q0 1 -6 10.5t-6 17.5q0 17 14 17zM676 298q-29 -45 -71 -124h-19q0 2 -5 8.5t-5 13.5q0 29 77 109q2 0 11.5 -3.5t11.5 -3.5zM595 289q-20 -34 -30 -85q-3 0 -9.5 -2.5t-9.5 -2.5q-6 1 -6 12
q0 9 22 39.5t33 38.5zM722 459q-1 -2 -52 -34q-9 -7 -48 -54q-27 -31 -84 -112q-62 -88 -91 -125q-43 -40 -118 -126q-3 -13 -13 -36q-7 -11 -21 -11q-22 0 -48 13q28 7 66 35q-14 14 -20 14q140 218 329 421q5 5 28.5 16t30 21.5t6.5 50.5q0 6 -10 53t-10 53q0 7 2.5 15
t2.5 10q13 -1 29 -19t16 -36q0 -5 -3 -35q-3 -34 -4 -49q-4 -4 -8.5 -8t-4.5 -12q0 -20 25 -45zM323 550q-26 -11 -88 -17q-31 0 -91 -8q-1 0 -7 -11.5t-14 -11.5h-26l-12 13q9 8 22 20q69 5 216 15zM672 535q0 -26 -13 -42q-9 -12 -39 -33q-18 -12 -118 -134
q-141 -172 -235 -297q0 -4 5.5 -8.5t9.5 -4.5q-2 -14 -27 -22q-20 -8 -41 -8q-28 0 -37 7q-152 127 -152 137q0 41 91 133q47 46 94 91q19 40 79 117q54 70 54 74q0 20 -8 23q1 -1 -20 -1q-5 0 -41 -3q-41 -4 -54 -5l-121 -8q-9 -6 -9 -13q-2 0 -10 4.5t-15 4.5t-12 -2
t-7 -2q-6 35 -26 104q9 0 31.5 3.5t30.5 3.5q13 10 16 17q5 3 13 3q6 0 29 -5.5t29 -5.5t44 5.5t44 5.5q7 0 55 -10.5t54 -10.5q2 0 56 4q64 5 126 8q8 0 35 7t33 7q7 0 18 -3t16 -3q3 -3 1 -17q-2 -17 -2 -20q2 -16 13 -58q10 -37 10 -43zM215 411q1 -2 1 -6q0 -12 -11 -35
l-13 12q-1 5 23 29zM65 433q-1 -1 -3 -9t-9 -8q-8 0 -12 1h-6q6 5 11 10q8 10 8 20q0 5 -1 9q0 2 12 -23zM447 4q-12 0 -21 -17q0 2 -3 11.5t-3 12.5q2 0 11.5 -3.5t15.5 -3.5zM171 -78q-2 0 -7.5 -5.5t-12.5 -5.5q-19 0 -19 14q16 -9 29 -1l-20 20l11 3q8 0 19 -25z
M111 -52q-3 0 -9.5 -3.5t-9.5 -3.5q-11 11 -11 24h19q0 -7 11 -17z" />
    <glyph glyph-name="eight" unicode="8" horiz-adv-x="662" 
d="M461 785q-18 -15 -50 -33l-12 13q17 14 38 44zM401 819q7 -11 -8 -41h-24q0 13 -11 24l11 -2t27 -2q5 6 5 21zM635 530q0 -3 -2.5 -10.5t-2.5 -9.5q-4 1 -14 8q7 0 19 12zM517 593q-38 45 -107 96h29q41 -35 78 -96zM559 476q0 -9 -18 -38.5t-35 -49.5q-2 -3 2 -8
q-19 21 -52 28q40 31 52 79q19 73 22 79q6 -5 17 -23q-8 -13 -2 -41l7 -9t7 -17zM613 347q-2 0 -11 -3t-12 -3q7 9 19 24q0 -18 4 -18zM667 318q-1 -2 -13 -21q-9 -14 -9 -20l-10 16t-5 14q0 5 3 11h34zM576 373l-6 -14l-7 3l6 14zM564 208q0 -55 -17 -83t-54 -40
q-33 -11 -67 -21q-40 -18 -64 -59q-4 0 -20 -3t-23 -3q-54 0 -73 41q-4 0 -20 -16q-4 5 -25 16q-3 -3 -5.5 -13t-4.5 -13q-179 96 -179 199q0 12 9 45q11 38 24 59q10 16 34 31q37 22 42 25v25q-18 15 -55 46q-1 21 -3 43t-35 45q17 36 58 95q27 27 84 62q53 32 64 32
q6 0 24 -11t27.5 -14t54.5 -6q40 -3 58 -12q33 -18 74 -59.5t41 -52.5t-11 -49q-11 -43 -22 -63q-15 -12 -45 -40q8 -9 40 -27q29 -17 41 -33q18 -27 34 -84q14 -48 14 -62zM626 270q-22 -31 -28 -110q-6 -69 -45 -103q-8 -6 -35 -16q-32 -12 -43 -18q-5 -3 -40 -30
q-27 -20 -36 -20q-3 0 -20 2q-13 3 -23 1q-2 0 -19 -5q-13 -3 -20 -3q-4 0 -31 13q57 0 79 8q6 3 23 25.5t28 28.5q24 12 55.5 15.5t44.5 10.5q23 13 47 52q6 10 12 45q5 30 5 42q0 22 -24 85l-26 72q5 -7 26 -20q15 -10 15 -19q0 -6 -7 -15q21 -9 62 -41zM22 349
q0 -8 -12 -20l-13 12v18q3 0 12.5 -5t12.5 -5zM-38 374l-6 -5l-7 7l5 6zM255 7q-12 -12 -12 -24q-26 14 -34 30q1 0 8 -4.5t14 -4.5q6 0 13 3q5 3 11 0zM58 7l-7 -8l-18 8h25zM420 559q0 7 -7 17l-10 14q-182 54 -179 54q-6 0 -34 -17q-36 -22 -43 -25q-1 -10 -1 -20
q0 -64 40 -109.5t100 -45.5q31 0 82.5 47t51.5 85zM451 223q0 11 -27 54q-29 47 -52 65q-12 10 -38 10q-35 2 -37 2q0 -6 -9 -15q-20 21 -28 21q-29 0 -50 -12.5t-50 -40t-29 -35.5q0 -10 18.5 -49t34.5 -63q21 -32 52 -41q71 -22 88 -22q5 0 34.5 5t39.5 5q6 20 30 67
q23 44 23 49zM370 503l-6 -5l-12 13l5 5zM255 616q-65 -29 -65 -79q0 -27 17 -60q-33 22 -45 114q2 1 38 20q24 12 31 12q8 0 15 -3.5t9 -3.5zM404 197q0 -7 -18.5 -40.5t-25.5 -39.5q-9 7 -28 23q41 46 41 74q0 17 -10 37h20q1 -4 12 -28q9 -18 9 -26zM358 210
q0 -21 -34 -51q-24 35 -43 42q-2 17 15 28.5t33 21.5q29 -22 29 -41zM368 318q-9 -2 -29 -10q-5 8 -15 21l-52 -14q-32 -8 -42.5 -17t-22.5 -31q-16 -27 -25 -38q30 -8 36 -35q9 -43 10 -45q-26 11 -34 27l-26 52q-16 31 -16 39q0 21 47 48q42 24 53 24q7 0 17 -7.5t17 -7.5
q5 0 19.5 5t21.5 5q23 0 41 -16z" />
    <glyph glyph-name="nine" unicode="9" horiz-adv-x="718" 
d="M657 420q0 -51 -26 -142t-46 -110q-4 -2 -14 -2l-2 -2l4.5 -4t4.5 -10q0 -21 -24 -48t-49 -55q-30 -34 -56.5 -49.5t-87.5 -25.5q-45 -8 -67 -8q-15 0 -34 19q12 6 101 38q64 23 101 45q71 41 109 130q1 25 14 74q3 7 28 27q12 44 12 81q0 8 -5 15q-5 4 -9 9q8 17 2 42
q-8 7 -18 27l-4 58q-3 35 -18 55q21 -16 61 -54q2 -6 -1 -19q-4 -19 -4 -24q6 -7 20 -25q8 -11 8 -42zM705 673q0 -1 -3 -12t-3 -17q-23 0 -41 3.5t-17 3.5q29 9 40 40q2 -3 11.5 -9t12.5 -9zM656 678h-24v9h24v-9zM429 458q0 -10 -18.5 -34.5t-28.5 -24.5q-13 0 -27 14
q25 6 53 22q0 1 -12 17q-9 12 -9 19v28q10 -2 26 -20.5t16 -20.5zM683 128q0 -6 -18 -42q-11 23 -29 42h47zM610 373q0 -2 -13 -67q-10 -6 -23 -22q-22 -75 -34 -102q-29 -62 -80 -99q-9 -7 -104 -45q-105 -42 -131 -42q-36 0 -114 38t-83 60q-2 5 -10 27q-8 19 -8 26
q0 14 85 79q52 39 103 78q27 -18 55 -35q33 -26 33 -47q0 -15 -18 -46t-33 -37q-3 5 -6.5 10.5t-11.5 5.5q-6 0 -7 -2v0q0 -3 -6 -3q-7 0 -21.5 10.5t-21.5 10.5q-17 0 -27 -8q-17 -13 -34 -27q11 -11 70.5 -43.5t73.5 -32.5q9 0 34 10.5t41 21.5q12 19 43 57q24 14 60 48
q5 7 19 63q11 46 41 67q-8 4 -22 4q-20 0 -77 -11t-78 -11q-64 0 -107 12q-40 16 -118 43q-8 17 -45 76q-30 50 -30 55q0 6 9 15.5t10 13.5q-2 15 4 43q11 23 95 96q82 70 91 70q6 0 36 -13.5t44 -16.5q3 -1 81 -11q49 -7 79 -19q60 -24 84.5 -52.5t37.5 -96.5q-1 -21 3 -63
q8 -9 18 -27q0 -2 -5 -32q1 -2 11 -14q7 -8 7 -15zM440 302q-9 -9 -28 -19.5t-28 -10.5q-7 0 -12.5 8t-7.5 8q-19 -21 -28 -21q-3 0 -92 29q45 -8 66 -8q7 0 43 8q43 11 58 13zM333 130q-24 -25 -50 -33q-11 4 -22 27q-8 -3 -23.5 -8.5t-23.5 -7.5l-18 19q1 7 13 7
q8 0 13 -5.5t9 -10.5q28 10 51.5 47t19.5 63q7 2 31 -10v-88zM465 -57q0 -29 -8 -37q0 2 -3.5 10.5t-3.5 15.5zM191 131q0 -7 -3.5 -14t-3.5 -9q-28 9 -57 29q2 1 16 11q11 7 18 7q11 0 20.5 -7t9.5 -17zM71 -45h-28q0 2 3 9.5t3 10.5q8 -9 22 -20zM445 458q0 7 -9.5 21
t-10.5 19q3 16 2 48q-82 65 -128 65q-6 0 -24 -8t-23 -8q-7 0 -11 3t-11 3q-6 0 -30 -3.5t-35 -4.5q-43 -82 -43 -93q0 -7 20 -37q35 -50 39 -57q29 -3 99 -16q62 -12 67 -12q27 0 49 7q15 5 32 32t17 41zM543 646v0v0v0zM334 589q-5 -6 -9 -12q-7 -8 -15 -8q-13 0 -24 20
h48zM381 438q-1 0 -11.5 -3.5t-17.5 -3.5q-17 0 -28 13t-11 27q0 5 23 45q26 -11 34 -38q5 -20 11 -40zM254 579q-62 -35 -62 -97q0 -28 14 -58q-9 -3 -14 -2l-30 45q-19 27 -19 36q0 7 9 29q12 30 14 36q17 13 49 11h39z" />
    <glyph glyph-name="colon" unicode=":" horiz-adv-x="72" 
 />
    <glyph glyph-name="question" unicode="?" horiz-adv-x="722" 
d="M555 833l-10 -30q-3 6 -11 16q14 14 21 14zM590 694q-11 7 -37 23.5t-37 23.5q15 -2 43 -6q9 -13 31 -41zM367 674q-24 -24 -41 -24q-14 0 -51 24q38 11 53 11q8 0 39 -11zM683 573q0 -5 -9.5 -23t-11.5 -26q-3 -37 -20 -105q-2 -4 -65 -64q-22 -21 -66 -48t-71 -37
q-4 -2 -28 -2q-13 0 -23 -2q2 -3 6.5 -9t6.5 -8q-9 -7 -26 -23q4 -11 13 -31q-27 -17 -37 -27q-9 4 -29.5 9t-29.5 10q12 16 22 16q14 0 41 -18q12 25 12 35q0 14 -14 23v16l82 32q50 21 77 39q33 24 94 108l42 78q-4 14 -4 22t3.5 12t3.5 6l-4 4q3 13 3 24q0 32 -29 74
q17 -6 41 -22q20 -31 20 -63zM437 487q-10 -21 -20 -26l-10 11q0 10 10 20q2 0 10 -2.5t10 -2.5zM386 494l-5 -11l-7 2l6 12zM582 288q-11 -24 -30 -23v20q7 5 19 14zM635 564q0 -56 -23 -99q-26 -51 -98 -116q-19 -17 -153 -73q-8 -4 -14.5 -18.5t-4.5 -21.5q4 -2 10 -8
q1 -3 1 -18q-8 1 -23.5 5.5t-21.5 4.5t-17 -11q-20 -23 -22 -24h-19q-5 12 -28 55q-17 33 -17 39t31 33q38 34 47 43q5 6 7 19q4 19 5 21q8 -13 22 -13q12 0 12 13q2 -2 7 -8.5t7 -8.5q10 10 10 8q4 0 12 -8q20 14 29 21q16 14 25 26q17 26 37.5 65.5t20.5 47.5q0 9 -15 50
q-17 48 -35 71q-12 18 -52 32q-31 11 -45 11q-12 0 -56 -17.5t-43 -17.5q-3 0 -12.5 4.5t-15.5 4.5q-9 0 -31.5 -26.5t-26.5 -37.5q5 -24 2 -25q-3 -2 -3 -3q0 3 3 -5q3 -6 -2 -20v-4q14 -43 54 -72q18 10 45 38q-8 14 -8 30q0 33 15 33q17 0 57 -6q10 -6 28 -17v-50
q-31 -21 -121 -71q0 3 -17 30q-27 -13 -30 -13q-12 0 -46.5 23.5t-42.5 38.5q-3 21 -16 62q-4 8 -15.5 14.5t-22.5 12.5q41 44 124 123q10 2 27 7q6 4 14 14q12 17 13 19q31 4 75 24.5t48 20.5q23 0 78 -15q50 -14 53 -18q37 -43 89 -79t64 -51q25 -31 25 -89zM390 509l-8 5
q-6 -4 -16 -19.5t-14 -18.5q-17 -14 -45 -29.5t-36 -15.5q-7 0 -11 4l-13 -12h-20q42 27 121 81q-1 10 0 31q2 27 2 34q-7 4 -22 15q8 2 25 9l4 -38q6 -27 33 -46zM530 296l-11 -11l-4 5l11 10zM252 662q-3 -4 -18 -50q-9 -9 -24 -27q-5 -15 -18 -42q11 -10 22 -32
q-2 -2 -7.5 -5t-7.5 -5q-23 18 -37 49q-1 7 7 20q0 1 -4 4.5t-4 9.5q0 30 1 34q5 11 20 28t23 17q5 0 13 -4.5t13 -4.5q13 0 21 8zM200 436q-11 6 -30 5q5 3 14 11q3 1 16 -16zM442 49q0 -3 -3.5 -13.5t-1.5 -15.5q-1 0 -6 3.5t-11 3.5t-6 -8q-6 10 -6 18q0 5 3.5 15t3.5 17
q0 6 -56 49q10 -1 46.5 -28.5t36.5 -40.5zM471 -17q-9 5 -11 22q4 -3 8 -5q6 -6 6 -10q0 -3 -3 -7zM170 263q-5 -8 -19 -25q-14 1 -20 20q8 5 39 5zM398 17q0 -11 -6 -15q-32 -14 -65 -28q-10 -4 -45 -4q-31 0 -37 1.5t-23 23.5t-17 34q0 7 12 33q13 30 25 43q8 10 30 18.5
t32 8.5q33 0 92 -66q2 -8 -6 -28q7 -4 0 -9q-1 -3 8 -12zM424 -9q-3 -2 -41 -29q-27 -18 -33 -18q-4 0 -26 3t-31 3q64 20 116 51q10 -10 15 -10z" />
    <glyph glyph-name="A" unicode="A" horiz-adv-x="929" 
d="M685 704q-9 -4 -26 -2q-23 1 -27 1q0 8 -5.5 30t-5.5 34h18q15 0 31 -21.5t15 -41.5zM723 668q-2 -2 -13.5 -10t-17.5 -14q0 1 -3.5 7t-3.5 14q0 21 26 21q0 -7 12 -18zM600 756l-5 -7l-24 18l5 7zM426 795q-11 0 -37 12q30 15 30 27l3.5 -11.5t3.5 -27.5zM378 836
q0 -3 -3 -13t-3 -13q-19 19 -19 26h25zM894 143q3 -19 -21 -29q-38 -14 -38 -15q-8 -16 -28 -40q-25 -15 -75 -29q-58 -15 -75 -23q-12 -5 -40 -46q2 10 2 30q55 38 160 123q22 4 44 7q29 9 29 30q0 8 -9 12.5t-18 7.5q-1 7 21 19q-5 7 -17 14q-17 9 -19 11q0 26 -3 32
q-22 26 -61 81q-49 85 -75 145q-23 53 -45 107q-31 68 -61 107q-31 26 -95 84q5 0 13.5 3.5t16.5 3.5q78 -52 102 -113q80 -86 147 -222q14 -30 93 -221q4 -9 17 -20.5t25 -21.5q0 -2 -22 -23q14 -14 32 -14zM346 690q-1 -5 -7 -14q-29 15 -84 46q56 -11 91 -32zM830 146
q-21 -2 -55 -15q-82 -63 -108 -81q-54 -38 -103 -62l-13 13l27 27q-9 9 -28 19.5t-25 17.5q-14 18 -43 53q-129 25 -154 25q-37 0 -44 -2t-22.5 -18.5t-22.5 -16.5t-7 2.5t-7 2.5q-15 0 -28 -15q-3 -8 -9 -21q-13 -10 -34 -32q-12 -22 -25 -44q-12 -17 -35 -17q-8 0 -35 7
q-37 9 -46 11l280 453q-8 51 -29 155q-2 7 -15.5 16t-23.5 9q-30 0 -84 -20q-2 -11 -2 -19q0 -32 48 -69q3 5 1 19q-2 18 -2 23q12 0 12 12l35 -36q-21 0 -29 -27q-5 -20 -10 -39q-17 16 -46 51q-44 53 -44 70q0 5 24 44q30 47 37 63q4 4 44 19l132 -70q38 27 53 65l14 50
q16 9 19 9q11 0 57 -36q51 -38 70 -68q33 -53 108 -213q63 -134 128 -216q3 -5 4 -18v-21q4 -2 12 -10l-5 -12q2 -12 29 -38zM239 609q-10 -4 -27 -14l-13 11q-17 -16 -27 -38q-10 20 -2 37q9 0 27.5 6t25.5 6zM260 456q-5 0 -22 3t-26 3q1 1 11 39q9 30 31 29q8 -26 6 -74z
M771 -59q-11 -13 -36 -23q0 2 -6 9.5t-6 15.5v33q17 0 17 6q23 -9 31 -41zM480 93h-14v9h14v-9zM448 72q-6 -9 -6 -14q-1 0 -5.5 5t-12.5 5q-10 0 -29 -9q3 2 18 31zM528 -90q-17 5 -52 15q8 11 21 33q-10 10 -10 18q19 1 30 -26q6 -20 11 -40zM147 265q-5 -5 -18 -14.5
t-18 -15.5q6 13 23 37q8 -7 13 -7zM454 104q-33 7 -81 7q-30 0 -33 -2q-10 -6 -19 -12q-12 -7 -20 -7t-13.5 2.5t-7.5 2.5q-62 -62 -58 -117q-20 -1 -55 -8q-4 -2 -16.5 -11.5t-17.5 -8.5l-12 13q29 41 59 82q37 50 45 50q7 0 7 -2.5t7 -2.5q6 0 19 11q17 14 25 19q5 2 53 2
q33 0 118 -18zM470 225q-7 23 -6 46q-30 5 -33 26q-3 26 -5 51q-10 38 -56 70l-88 -159q5 -5 6 -13q24 -3 81 -18q53 -15 58 -15q8 0 13 8q8 12 11 14q10 -10 19 -10zM406 361q-32 -32 -55 -104q-20 0 -34 3t-13 3l71 128q2 -1 31 -30z" />
    <glyph glyph-name="B" unicode="B" horiz-adv-x="867" 
d="M597 828q-14 0 -39 -12q0 -2 -2 21q-2 14 2 25h33q0 -3 3 -15t3 -19zM403 922q-13 2 -33 -18q-3 12 -9 38t-9 38q16 -11 32 -21q16 -14 19 -37zM828 494l-22 -20q0 14 -7 21q28 0 29 -1zM266 957l-15 16q15 0 15 -16zM296 772l-56 6v10l56 -6v-10zM822 161
q0 -81 -20 -116q-37 -64 -112 -94q-27 -11 -82 -16q-70 -5 -90 -9l-20 22q28 -2 56 -3q33 -1 52 5.5t82 97t63 116.5q0 21 -43 99q-6 10 -42 52q-33 37 -33 44q0 36 35.5 95t35.5 84q0 9 -23.5 60t-46.5 92q-27 8 -157 49q-94 29 -103 29q-8 0 -14.5 -2t-8.5 -2q17 22 29 22
q32 0 56 -24q16 18 38 18q14 0 59 -8q52 -9 75 -18q75 -29 117 -75q17 -19 31 -56q10 -32 20 -63q-8 -10 -8 -30q0 -36 19 -60q-5 -3 -32 -33q-20 -22 -27 -22q-9 0 -21 12q-1 -13 -9 -67q9 -3 21 -12l52 -78q51 -81 51 -109zM728 164q0 -32 -60 -113q-56 -75 -67 -77
q-51 -8 -95 -8h-23q-14 1 -19 1q-30 0 -51 -18q-3 0 -10.5 7.5t-9.5 8.5q-19 8 -72 8q-7 0 -63 -6t-64 -6q-6 0 -25.5 6t-27.5 6q-6 0 -34 -23h-21q-1 18 -27 31q-22 8 -44 17v83q0 6 10.5 35t10.5 42q0 69 -7.5 206.5t-7.5 132.5q0 109 1 121q1 5 20 31q8 10 8 34
q0 25 -23 60q31 0 84 12.5t69 12.5q7 0 82 -14.5t83 -14.5q6 0 14.5 6t14.5 6t96 -30q121 -40 154 -50q56 -127 56 -138q0 -37 -32 -77t-32 -77q0 -21 1 -31q22 -22 60 -78q51 -73 51 -106zM398 -130q-10 -7 -26 -20h-27l20 40q10 -6 33 -20zM615 487q0 28 -21.5 54.5
t-44.5 53.5q-93 6 -132 20q-3 -12 -20 -30.5t-29 -24.5q6 -16 25 -59q16 -35 16 -42q0 -23 -16 -97q36 13 73 26q42 17 66 35q31 27 83 64zM639 171q-35 21 -70 41q-30 14 -77 14q-38 0 -58 -14q-30 -23 -30 -48q0 -30 22 -79q28 -59 63 -59q11 0 52 24t72 48q-2 13 -2 29
q11 16 28 44zM497 440q1 -15 -25.5 -26.5t-52.5 -21.5q8 49 8 70q0 7 -17.5 44t-17.5 44q0 9 15.5 25t25.5 16q7 0 31 -3t33 -3v-145zM545 76q-8 -4 -31 -21q-16 -12 -22 -12q-41 0 -71 121q0 7 10.5 17.5l20.5 20.5h63q0 -56 -17 -107q7 -5 47 -19z" />
    <glyph glyph-name="C" unicode="C" horiz-adv-x="928" 
d="M582 683q-2 0 -12.5 2.5t-12.5 2.5q9 9 14 9zM789 501q0 -8 -85 -194q-24 -12 -48 -12q-9 0 -17 8q8 5 19 16q68 144 96 228q11 -6 23 -22t12 -24zM587 438q0 -11 -13 -25q-11 29 -27 40q-11 3 -41 14q-6 4 -6 13q0 6 43 78q5 -3 19.5 -9.5t19.5 -8.5q-16 -10 -29 -34
q-11 -20 -12 -33q16 -13 46 -35zM856 166q0 -51 -14 -80q-11 -25 -50 -69h-60q19 30 51 90q47 86 47 105q0 14 -46 45q1 0 10 3.5t15 3.5q29 0 40 -48q7 -25 7 -50zM809 217q-1 -20 -45 -106q-12 -24 -39 -72q-43 -2 -67 -10q-43 -14 -73 -54q-16 21 -26 21
q-6 0 -47.5 -15.5t-47.5 -15.5q-134 0 -190 38q-25 17 -107 97q-91 89 -134 144q-4 5 -4 14q0 5 3 24q3 16 2 25q-1 11 -10 32.5t-9 27.5q0 22 6 67q9 63 22 86q10 18 44 54q37 40 69 64q26 19 75.5 44t59.5 25q7 0 47 -15.5t46 -15.5t61.5 8t62.5 8q6 0 26 -10
q24 -13 31 -15q25 -5 68 -19q15 -7 53 -45q46 -46 46 -69q0 -10 -32 -86q-34 -82 -58 -121q-5 -8 -20.5 -17.5t-23.5 -9.5q-24 0 -92 38q-50 28 -71 72q-7 13 -7 55q0 5 3 30t3 36q6 -1 12 -1q17 0 69 17q-2 -4 -20 -37q-13 -21 -13 -36q0 -6 2 -11q8 -5 26 -10.5t25 -10.5
q10 -8 20 -27q14 -26 20 -33q31 42 59 70q-33 32 -33 57q0 7 3 23t2 27q-7 15 -22 33q-29 14 -79 27q-44 11 -57 11q-15 0 -49 -7q-45 -8 -65 -20q-10 -6 -18 -34q-11 -35 -13.5 -40t-39.5 -58q-27 -40 -35 -66q-12 -39 -12 -84q0 -7 8 -23q10 -23 11 -26q9 -29 18 -59
q11 -39 26 -64q19 -31 75 -65q2 -1 30 -1q91 0 154 22q21 8 48 60q2 4 -1 13q-6 12 -6 16q-2 12 10 49q1 0 4 -2.5t10 -2.5q14 0 40 26q0 -11 9 -21q42 21 62 21q47 0 95 -47zM485 601q-35 -16 -74 -40q-8 -5 -22.5 -24t-19 -22.5t-32.5 -19.5q-20 -11 -27 -24t-7 -44
q0 -39 -1 -48q-2 -12 -13 -40t-11 -34q0 -27 66 -169q37 -10 110 -30q-6 0 -52 -3q-34 -2 -48.5 2.5t-34.5 20.5t-29 31q-4 7 -51 150q-2 4 -2 29q0 47 7 65q5 15 32 57q36 57 42 67q6 21 23 61q84 28 107 28q11 0 37 -13zM425 262l-8 -4l-22 28l7 5zM695 20
q-37 -37 -58 -65q-2 1 -12.5 9.5t-16.5 13.5q13 14 43 36q14 1 44 6zM567 -32q-10 -3 -33.5 -8t-33.5 -7q9 4 19 8q19 8 35 8q7 0 13 -1zM211 -79q-13 -9 -34 -23q0 5 -3.5 16t-3.5 17q0 8 6 15t6 8q2 -1 12.5 -14t16.5 -19z" />
    <glyph glyph-name="D" unicode="D" horiz-adv-x="748" 
d="M769 290h-9v26h9v-26zM743 229q0 -9 -2 -30.5t-2 -29.5q-21 0 -21 10q0 8 11.5 25.5t13.5 24.5zM719 244l-17 -58h-8l17 58h8zM696 300q0 -6 -11 -32q-12 -29 -14 -39q1 16 -16 33q-8 -26 -30 -71q0 -2 -6 -9l9 -9q5 0 28 22q-14 -99 -135 -190q-111 -84 -199 -84
q-6 0 -80.5 16.5t-81.5 16.5q-11 0 -62 -38q0 1 -3 13t-3 18q48 12 74 12q6 0 71 -5.5t71 -5.5q2 0 15.5 -1.5t22.5 -1.5q13 0 22 4q186 93 233 196q6 14 11 67l8 80q2 13 17 49q15 33 15 39t-30 125q-12 50 -37 70q-58 47 -230 145q13 14 30 14q10 0 100 -57
q96 -61 147 -103q23 -19 34 -73q3 -13 -0.5 -41t-1.5 -41q4 -22 18 -70q14 -43 14 -49zM635 380q0 -5 -14.5 -36.5t-16.5 -46.5q-3 -36 -6 -73q-3 -49 -14 -76q-7 -17 -34 -49.5t-50 -49.5q-72 -54 -136 -83q-3 -1 -53 -1q-7 0 -70 5.5t-70 5.5q-42 0 -112 -21q21 56 21 84
q0 4 -14.5 39t-16.5 54q-11 96 -6 165q6 12 13 34q2 9 -9 28.5t-11 25.5q0 5 11 17t11 19t-20.5 52t-22.5 59q-2 15 0 76q1 48 -11 74q42 34 73 39q47 8 133 8q5 0 18.5 -5.5t18.5 -4.5q12 2 24 2q60 0 156 -58q70 -45 139 -91q13 -7 42 -96q27 -83 27 -96zM24 332
q6 -32 -7 -46q-6 8 -6 23q0 20 13 23zM-17 87h-9v152h9v-152zM256 -177q-9 -2 -38 12q3 3 9.5 13t9.5 12l19 -18v-19zM553 314q0 65 -11 101q-13 46 -54 93q-12 18 -31 44q-29 28 -52 28q-14 0 -61 -35q6 -19 22 -46v-163q0 -4 -7.5 -42t-7.5 -57q0 -6 6.5 -20t6.5 -19
q0 -66 0 -64q3 -48 21 -48q13 0 11 5l28 -27q31 24 62 49q36 30 48 52q19 37 19 149zM473 477h-10l-6 31h10zM468 429q0 2 -14 16q0 2 7 8t7 9v-33zM443 484q0 2 -16.5 -63.5t-16.5 -79.5q0 -6 4 -28q4 -25 5 -38q2 -22 0 -57q-2 -47 -2 -58q0 -4 10.5 -17.5t10.5 -21.5
q0 -4 -13 -30q-16 9 -46 23q-13 83 -13 134q0 29 6.5 77.5t6.5 72.5q0 29 -6 58q14 -8 39 -24q6 32 6 47q0 25 -12 47q-2 0 -3.5 2.5t-8.5 2.5q-9 0 -12.5 -6t-7.5 -11l-8 7v20q3 1 19 10q11 7 20 7q13 0 27 -14l-17 -17q2 -2 15 -18.5t13 -24.5zM525 222q0 -8 -10.5 -20.5
t-18.5 -16.5h-19q0 7 -12 19q5 4 24 36q18 -18 36 -18z" />
    <glyph glyph-name="E" unicode="E" horiz-adv-x="918" 
d="M849 563q-6 -19 -13 -22q-2 -1 -19 -1q-16 0 -21 3q-8 6 -16 30q24 20 24 44q0 6 -2 20q-2 11 -1 17q43 -25 41 -43q-10 -10 -10 -23q0 -16 17 -25zM648 518q-99 -21 -183 -30q-3 -6 -7.5 -10.5t-9.5 -7.5q-11 20 -11 34q14 3 76 21q48 15 55 15q2 0 31 -12t49 -10z
M849 309q-1 -5 -9 -11q-12 -8 -14 -11q-1 -8 -4 -28.5t-3 -31.5q-20 -3 -64.5 -7t-64.5 -7q45 8 74 27q7 5 17 37t29 42q1 11 -20 20h17q7 1 20 -11q20 -17 22 -19zM635 338h-24v9h24v-9zM531 448q-25 -7 -22 -43q-13 22 -13 35q0 19 24 19q0 -11 11 -11zM481 448
q-6 -4 -17 -13l-13 12l7 8zM521 346h-17q-15 -1 -76 51q0 4 -3.5 17.5t-3.5 20.5l13 10q28 -32 87 -99zM884 64q-5 -11 -25 -30q6 -18 25 -56q-9 -2 -34 -15q-21 -11 -28.5 -11t-36.5 -2.5t-35 -2.5q-17 0 -24 2.5t-36 20.5q2 0 10.5 6t14.5 6t17.5 -7.5t17.5 -7.5
q42 0 86 15l4 3v14q-7 5 -25 21q30 14 30 29q0 4 -9 24t-16 26q2 2 11.5 5.5t9.5 6.5q17 -16 43 -47zM829 48q-18 -7 -39 -29q10 -8 24 -26q-11 0 -36 -5.5t-31 -5.5q-4 0 -13.5 7.5t-18.5 7.5q-6 0 -19 -7q-18 -10 -22 -11.5t-29 -1.5q-6 0 -52 5t-52 5q-44 0 -111 -15
t-66 -15q-5 0 -45.5 20t-46.5 20q-4 0 -33.5 -15t-66.5 -15q-36 0 -83 13q-13 -1 -39 -2h-37q10 11 10 21q0 7 -10 31.5t-10 31.5q0 5 10.5 20t12.5 23q12 45 12 64v308q0 -5 -6 60q-5 60 -3 90q1 6 30 30q6 2 19 2q6 0 31 -10t31 -10t67 10t67 10t41 -5t42 -5q6 0 67 10
t67 10q4 0 37.5 -12.5t50.5 -16.5q5 -1 44 -1q6 0 27.5 2.5t27.5 2.5t9.5 -5t10.5 -5q19 0 49 30q16 -1 29.5 -19.5t13.5 -35.5q0 -7 -30 -37q4 -8 15 -26q-27 0 -83.5 -5.5t-58.5 -5.5q-6 0 -32 10t-33 10q-31 0 -152 -49q5 -12 15 -34q-7 -8 -30 -25q1 -17 7 -49
q5 -19 37 -35q16 -14 49 -31q37 -7 124 -7q5 0 66 12.5t66 12.5q7 0 40 -32q-19 -18 -38 -65q-9 -3 -65 -25q-42 -17 -49 -17q-6 0 -66 15t-66 15q-35 0 -55 -21.5t-20 -50.5q0 -6 3 -30q3 -27 3 -40q8 -19 50 -32q33 -10 56 -10q6 0 80 11q86 12 104 15q7 1 19.5 12
t18.5 11t25 -11q26 -15 29 -16q3 -10 10 -31zM556 213q-22 -7 -100 -40q24 -51 60 -94q-3 -2 -7 -2q-22 0 -56 31q-7 75 -7 66q0 21 20.5 36.5t39.5 15.5q12 0 50 -13zM-7 648l-21 -23h-23q13 29 24 29q7 0 12.5 -3t7.5 -3zM-57 657q-2 -2 -5.5 -13.5t-5.5 -14.5
q-19 0 -19 13q0 7 3 13.5t3 8.5zM576 -35q-70 -28 -78 -28q-3 0 -38 6t-54 6q102 23 135 23q6 0 18 -3.5t17 -3.5zM307 -36q-2 -1 -17.5 -11.5t-22.5 -10.5q-3 0 -30 20q27 20 35 20q7 0 17 -6t18 -12zM21 211q0 -8 -2 -27.5t-2 -26.5q-19 0 -19 9q0 7 10.5 23t12.5 22z
M-1 225l-15 -53h-8l16 53h7zM137 -55l-39 11v7l39 -10v-8z" />
    <glyph glyph-name="F" unicode="F" horiz-adv-x="748" 
d="M724 526l-7 -13l-7 3l6 13zM702 653q-8 -19 -15 -37q-10 -22 -22 -36q-19 -21 -80 -53q-64 -33 -94 -33q-6 0 -42 21q0 4 6.5 11t15.5 7q6 0 21 -9.5t21 -9.5q11 0 113 83q-2 17 -2 55q18 8 33 24q-23 46 -35 46q-7 0 -9.5 -2t-3.5 -2q-11 32 -5 54q15 -5 52 -5zM522 443
q0 -2 -2.5 -12.5t-2.5 -16.5q-32 16 -34 16l17 19q8 0 14.5 -3t7.5 -3zM442 474q0 -7 -7 -15.5t-11 -8.5q2 3 8.5 12t9.5 12zM408 511q-5 -8 -13 -21q-1 -37 -7 -110q-14 -5 -43 -20q0 10 -5.5 32t-5.5 27q0 13 15.5 33.5t15.5 35.5q0 17 -16 40h22q4 0 37 -17zM563 257
q-15 -8 -47 -52q-19 20 -48 31q2 6 15.5 20.5t18.5 22.5q2 4 2 13q0 30 -16 57h17q8 0 28 -12.5t23 -23.5q1 -6 -2 -17.5t-3 -16.5q0 -13 12 -22zM612 600q-7 -5 -57 -41q-36 -26 -42 -26q-7 0 -22 9q-20 10 -23 11l-44 -30q-56 25 -63 25q-14 0 -26 -13q-1 -6 6 -24.5
t6 -28.5q-1 -12 -14.5 -34.5t-13.5 -28.5q0 -5 3 -24.5t3 -27.5q0 -11 22 -33q17 13 54 35l30 -30q12 5 30 20q27 -53 27 -64q0 -16 -32 -45q-45 30 -50 30q-23 0 -86 -34q-1 -34 5 -108q7 -78 7 -114q0 -8 -25 -39q-26 -34 -40 -34q-6 0 -30.5 15t-29.5 15q-6 0 -28.5 -5
t-28.5 -5q-5 0 -49 11q-48 12 -70 15q-10 31 -24 96q-2 8 4 24q4 13 8 25q-13 -3 -13 8q0 7 4 13t2 9q-1 5 -5 15q-1 10 15 66q-3 7 -10 23q-1 2 6 8t7 13q0 30 -1 44q-4 7 -12 20q5 14 7 40q-4 7 -12 20q0 17 -6 50q0 -5 1 12t1 52q0 50 -2 132q29 11 44 11q7 0 38 -7.5
t37 -7.5t13 5t12 5q6 0 21 -15t21 -15t53.5 10t53.5 10t42.5 -7.5t42.5 -7.5q5 0 13 7.5t14 7.5t49.5 -10t49.5 -10q28 0 53 22.5t25 49.5q0 7 -28 22q-5 -7 -20 -19q-3 2 -11.5 8t-10.5 9q10 10 31 52q6 1 17.5 -5t14.5 -11q13 -33 22 -85zM461 165q-4 9 -27 44
q10 -4 20 -8.5t10 -16.5q0 -8 -3 -19zM415 215l-13 -9l-5 7l13 9zM438 242q-29 -6 -75 -6q14 -19 18 -59q3 -35 5 -69t4 -104q7 -9 18 -9q-24 -60 -82 -83q-11 11 -37 32q33 32 36 35q18 21 22 40q2 13 2 32q0 32 -7.5 82l-7.5 50v56q40 21 65 21q4 0 39 -18zM543 -116
q-3 -3 -11 -9t-11 -8q-14 3 -32 53q-30 84 -30 85h24q-10 -11 -10 -16q0 -7 29 -46q34 -48 41 -59zM-13 325l-28 -22l-4 7l27 21zM229 -50q-7 -19 -24 -19q-8 0 -45 24q4 0 17 3t20 3q9 0 32 -11zM140 -46q-21 -13 -35 -13q-8 0 -11 5.5t-6 9.5q-9 -8 -13 -8q3 2 6 9t6 9
q19 -3 53 -12zM168 -99q0 -22 -7 -29q-3 23 7 29z" />
    <glyph glyph-name="G" unicode="G" horiz-adv-x="928" 
d="M903 596q0 -8 -11 -20q-13 -15 -15 -18h-22q0 7 -13 20q10 14 26 39h21q5 -3 9.5 -7t4.5 -14zM703 759q-17 0 -33 1q-25 1 -33 21h32q9 0 19.5 -10t14.5 -12zM848 713q-4 -5 -25 -66q-14 -40 -48 -46q11 -17 22 -17q-4 0 -14.5 -4.5t-18.5 -4.5q-11 0 -22 7t-21 14
q4 9 38 52q27 36 27 54q0 15 -16 23q81 -12 78 -12zM897 439q0 -5 -13.5 -21t-15.5 -28q-1 -7 7 -29t8 -37q0 -17 -5 -54t-5 -42v-221q-4 -3 -38 -40q-25 -28 -32 -28q-8 0 -8 3v0q0 3 -7 3q-8 0 -12 -7.5t-8 -14.5q-12 -3 -65 -16q-40 -11 -48 -11q-7 0 -22 7t-21 7
q26 29 70 29q6 0 23 -3t25 -3q11 0 40.5 32t39.5 57q5 13 4 44q-1 42 0 52q4 33 8 67q5 48 2 78q-5 64 -5 60q0 31 11 49l-30 31q1 1 12 9t18 15q-1 1 -11 50q13 0 52 13q1 -3 15 -24q11 -18 11 -27zM478 449q-16 15 -16 14q0 2 2 3zM806 178q0 -4 -8 -53t-8 -77
q0 -12 2 -22q-31 -56 -61 -67q-13 -5 -47.5 -1t-48 -2.5t-35.5 -22.5q-8 -6 -39 -6q-40 0 -53 18t-20 18q-8 0 -24.5 -6t-24.5 -6q-6 0 -25 10.5t-30 11.5l-104 8q-71 7 -109 26q-57 30 -78 79q-40 94 -55 164q0 25 -4 73q-2 18 -28 31q8 6 16 18q10 17 12 20q1 8 -4.5 23.5
t-5.5 22.5q0 4 2 8q39 98 79 146q43 52 133 126q85 69 98 69q7 0 22.5 -6t23.5 -6q21 0 51 31q4 -6 8 -12.5t14 -6.5q7 0 16 9.5t17 9.5q7 0 22.5 -9.5t22.5 -9.5t24 6.5t25 6.5q7 0 29 -23q27 -28 42 -37q12 -7 50 -7q18 0 41 12q0 -22 20 -52q-18 -26 -35 -51
q-25 -36 -41 -36q-8 0 -43 16q-31 15 -61 30q-16 7 -67 17q-45 9 -67 23q-13 9 -14 24q-1 5 -39 5q-26 0 -29 -2q-45 -29 -139 -95q-2 -2 3 -28q-1 -1 -24 -27q-14 -15 -14 -24q0 -6 12 -31t12 -33q0 -7 -21 -81.5t-21 -81.5q0 -38 77 -146q81 -112 123 -112q23 0 74 26
q6 2 20.5 21t21.5 23q13 8 49 8q1 5 1 10q0 6 -4.5 20t-4.5 22q0 6 9.5 20.5t9.5 22.5q0 7 -10 24q-11 21 -13 30q-20 68 -20 134q0 7 3.5 23t3.5 21q55 -1 86 9q4 1 21.5 11.5t24.5 10.5q8 0 25 -4.5t21 -5.5q38 -6 84 3h22q-6 -8 -6 -19q0 -14 12 -38q-12 -5 -36 -29
l36 -36v-189zM867 -85q0 -24 -32 -36q-5 14 22 54q10 -10 10 -18zM429 679q-9 0 -15.5 2.5t-13.5 2.5q-9 0 -44 -29q-29 -26 -59 -52q18 -11 18 -31q0 -7 -11 -22t-12 -21q-4 -30 -22 -110q-15 -70 -15 -77q0 -46 52 -134l74 -126q-68 44 -124.5 119t-56.5 123q0 5 34 140
q1 4 1 10q0 12 -6 35q-8 29 -9 38l20 24q14 17 14 30q0 7 -4 14q32 21 64 41q42 26 57 44q15 -2 45 2q13 -13 13 -23zM412 242q0 -9 -10 -18.5t-10 -11.5q-7 5 -27 47.5t-20 55.5q0 6 10.5 18t10.5 18q46 -93 46 -109zM345 268h-28q-32 39 -32 56q0 8 7 16.5t7 10.5
q31 -47 46 -83zM145 1q-34 12 -47 12q7 11 7 16q15 -11 40 -28z" />
    <glyph glyph-name="H" unicode="H" horiz-adv-x="900" 
d="M927 551l-7 -16l-9 4l8 15zM907 512q-5 -17 -14 -45q0 5 -14 18q0 4 9 12q16 12 19 15zM858 526l-14 -20l-8 5l14 20zM964 208h-21q4 11 21 33v-33zM838 571q0 -7 -7 -27t-9 -29q3 -20 3 -58q-16 -71 -16 -100q0 -8 8 -16l16 -16q-2 -2 -12.5 -10t-17.5 -14l-5 -248
q0 -35 2 -43q5 -23 27 -49q-9 -9 -27.5 -22t-26.5 -22l-33 9q42 14 42 51q0 11 -4 29q-8 41 -8 87q0 23 5 101q4 75 4 136q-5 6 -14 17q1 10 11 38t10 35q0 16 -8 60q0 5 -10.5 16.5t-10.5 19.5q0 7 7.5 21.5t8.5 19.5q3 16 3 51q0 21 -12 83q-3 0 31 2q21 1 31 -2
q1 -10 -1 -30q-3 -24 -3 -30q0 -9 8 -31.5t8 -28.5zM931 97q0 -15 -15 -29q-2 3 -12.5 9.5t-12.5 9.5l7 61q10 -5 21.5 -24t11.5 -27zM863 158l-7 -16l-8 4l7 15zM858 103h-10v16h10v-16zM399 527q0 -24 -8 -37q-2 1 -6 1q-14 0 -42 -18q-1 7 -1 16q0 11 2.5 35.5t2.5 36.5
q0 13 -2.5 24.5t-18.5 57.5q-14 38 -14 49q0 10 19 28h33q0 -18 4 -56q5 -47 6 -56q1 -16 13 -45.5t12 -35.5zM419 406q0 9 -10 9q-9 -12 -11 -48q-1 -23 -24 -33h-38q0 8 -3 27.5t-3 26.5q0 8 14 20q12 9 23 18q3 -3 6 -8.5t6 -8.5q27 26 35 52q0 -8 2.5 -24.5t2.5 -30.5z
M769 420q0 -5 -14.5 -36t-14.5 -39q0 -9 8 -14.5t15 -10.5v-365q0 -8 -13 -9q-5 0 -20 2q-13 10 -19 10q-9 0 -21 -12q-9 23 -31 23q-7 0 -53.5 -14.5t-53.5 -14.5q-6 0 -12.5 3t-13.5 3t-10 -5.5t-10 -5.5q-25 0 -48 78q-23 83 -34 87q-5 3 -37 19q-23 12 -31 12
q-6 0 -48 -27q6 -45 6 -44q0 -22 -12 -31q-2 -4 -2 -9q13 -9 35 -23v-21q-29 -3 -99 -17q-65 -13 -71 -13q-5 0 -20.5 9t-22.5 9q-12 0 -19 -7l-18 -22q-36 12 -59 42q-26 32 -26 70q0 8 14.5 84.5t14.5 83.5q0 6 -10.5 22t-11.5 24q-8 87 -12 220l-6 222q52 29 53 29
q26 12 51 12q-5 0 51 -5q65 -5 174 -9q-10 -7 -19.5 -14t-9.5 -15q0 -7 14 -48q20 -57 24 -73q5 -17 -11 -65l6 -32q6 -22 17 -40q7 3 18 12q9 6 17 6q5 0 12 -1v-22l-19 17q-36 -39 -55 -50q0 -15 3 -42.5t3 -41.5q18 -11 41 -11q8 0 46 13.5t46 19.5v224q0 2 -17.5 60
t-17.5 83q0 6 2 10q4 0 16 -5.5t20 -5.5q7 0 26 6t26 6t17.5 -3t17.5 -3t28.5 8.5t28.5 8.5q8 0 32.5 -11.5t31.5 -11.5q4 0 19 11.5t30 11.5q7 0 17.5 -3t16.5 -3q0 4 -5 -23.5t-5 -73.5q0 -47 5 -113q2 -19 15.5 -54.5t13.5 -41.5zM682 -86l-13 -14q-2 0 -9 6t-15 6
q4 0 -32 -3q-24 -1 -38 2l-20 10q16 2 56 14q35 11 42 11t16.5 -9t12.5 -23zM468 -70q-3 0 -14 3t-14 3q5 6 9 28q0 -4 7 -15q10 -14 12 -19zM387 -64l-112 -36q-6 3 -21.5 16t-25.5 13q-5 0 -11 -2q-12 4 -20 4q66 17 152 27l4 4v45q-2 3 -29 16q10 35 6 78q11 7 23 7
q8 0 18 -7q14 -11 16 -12v-153zM191 -67q-37 -21 -49 -21q-9 0 -20 7q-17 12 -18 12l14 15q41 -23 44 -23q8 0 17.5 5t11.5 5z" />
    <glyph glyph-name="I" unicode="I" horiz-adv-x="496" 
d="M320 821q-18 -20 -30 -26q-2 2 -2 26h32zM429 704q2 -48 -23 -209l-18 16q-2 -2 -15 -27q-5 3 -9.5 6.5t-4.5 12.5q0 6 9 28t10 32q2 58 14 171q13 0 24.5 -2.5t12.5 -2.5v-25zM492 446h-10v15h10v-15zM157 752l-3 -8l-18 7v8zM423 429q-16 6 -42 18q0 11 13 37
q11 -12 29 -12v-43zM418 406q-3 -29 -7 -60q-3 -22 -3 -28v-237q0 -10 -29 -111q-17 6 -42 31q5 0 16 11v130l24 287q4 -5 41 -23zM374 731q1 -5 -6.5 -30t-7.5 -34q0 -3 3 -48q2 -32 -1 -51q-2 -10 -13.5 -38.5t-11.5 -34.5q0 -7 13.5 -19.5t13.5 -19.5t-13.5 -143
t-13.5 -143v-149q-10 -7 -30 -24q-41 28 -58 28q-6 0 -25.5 -11t-26.5 -11h-163q-6 -7 -6 -14q0 2 -7 8t-7 14q0 7 19.5 124.5t19.5 124.5q0 44 -19.5 92.5t-19.5 131.5q0 98 13 140q1 4 10.5 15.5t9.5 18.5q0 8 -27 36q5 8 20 28.5t20 28.5q54 -22 88 -22q6 0 28.5 5.5
t29.5 5.5q6 0 41.5 -5.5t42.5 -5.5q42 0 84 22v-20zM0 574l-7 -14l-8 3l7 14zM-20 538q-2 -6 -6 -22t-7 -21q0 5 -12 17q-1 4 8 11q15 12 17 15zM35 250h-20q4 10 20 31v-31zM276 -4q-31 -31 -40 -31q-77 0 -113.5 -3t-28.5 -3q-9 0 -22 11l-19 15h155q7 1 18 8.5t15 9.5
q13 0 24 -3.5zM3 145q0 -14 -13 -28q-3 3 -12.5 9.5t-12.5 9.5l7 58q10 -5 20.5 -23t10.5 -26zM-60 203l-7 -15l-8 3l7 14zM-66 151h-9v15h9v-15z" />
    <glyph glyph-name="J" unicode="J" horiz-adv-x="748" 
d="M737 729h-8l-6 13l7 3zM567 781l-6 -36h-9l6 36h9zM519 786l-7 -21l-7 3l6 18h8zM708 695q-14 -95 -41 -294q-2 -17 3.5 -60t5.5 -46v-24q-16 0 -24 12q-7 21 -15 70q-8 44 -8 56l33 297q18 -3 46 -11zM304 524q0 -10 -14 -24q-2 16 1 37zM734 244q-8 -23 -19 -72
q-5 -51 -76 -131q-82 -94 -91 -114q-39 -2 -61 -12q-2 2 -8.5 6.5t-9.5 6.5q28 7 78 77q76 107 84 117l16 -16q13 48 41 143q2 0 10 -7.5t16 -7.5q9 0 20 10zM671 248q-7 -15 -18 -41q-8 11 -21 32q-14 -27 -14 -35q0 -6 10.5 -21t10.5 -21q0 -7 -18 -29q-14 -15 -29 -31
q-26 -40 -53 -80q-34 -50 -67 -76q-49 24 -158 28t-146 22q-10 4 -31 25q-25 24 -34 30q-19 5 -47 20q-15 18 -35 57q-27 51 -36 66q11 8 25 27q11 33 11 68q0 4 -4.5 18.5t-3.5 19.5q8 14 22 42q97 40 102 40q17 0 95 -43q7 -26 13 -52q9 -35 38 -39q-8 -41 -6 -78
q-8 -2 -38 -13q-26 -9 -33 -9q-9 0 -28 22t-28 40q21 3 41 5q32 5 44 36q-65 41 -85 41q-28 0 -48 -14q2 -40 7 -116q3 -31 21 -52q23 -28 63 -61.5t50 -33.5q9 0 43 21q1 -1 8 -10.5t13 -15.5q54 97 51 202l-48 351q14 75 11 121q42 12 66 12q42 0 77.5 -13.5t36.5 -13.5
q7 0 25 16t44 16q29 0 74 -23q-10 -62 -21 -175q-10 -97 -10 -113q0 -52 12 -104q17 -69 46 -65zM347 213q-33 -20 -52 -27q0 63 9 90q0 1 -31 27q-16 14 -16 35v18q10 -6 24 -18q7 -18 58 -84q8 -10 8 -41zM283 179q-20 -20 -35 -19h-23q19 7 58 19zM278 126q-7 -7 -7 -20
l-20 20h27zM198 279q-22 -24 -37 -24q-13 0 -24 11q-3 -7 -3 -27q0 -34 21 -39q-5 -8 -10 -15q-5 -10 -5 -18q0 -7 6.5 -16.5t13.5 -17.5q-37 37 -36 61v103q2 0 11 3t15 3q8 0 23 -10q19 -11 25 -14zM448 -62l-35 -8q-31 7 -188 36h23q28 3 200 -28zM-3 235l-13 -13l-5 5
l13 13zM177 -60q-18 -15 -58 -41v19l22 22h36zM118 -50q-9 -18 -38 -30q-5 12 8 37zM703 179q-5 0 -12 7q-5 0 -14 -12v-14q12 -11 19 -11q2 0 2 2z" />
    <glyph glyph-name="K" unicode="K" horiz-adv-x="952" 
d="M711 589q2 0 2 -2q0 -6 -13 -19q11 11 11 21zM556 731q-3 -3 -13 -4.5t-13 -4.5l15 15l-6 12zM726 683q-8 -13 -24.5 -38.5t-24.5 -39.5q3 3 2 28q-23 -10 -32 -21q-5 -6 -9 -47q-94 -69 -158 -203q-12 -2 -31 18q21 41 66 113q9 11 50 47.5t58 59.5q23 34 72 107
q8 0 31 -24zM276 769l-8 -5l-12 19l7 5zM823 211l-6 -5l-23 23l5 6zM412 638q0 -97 -13 -131q-2 -7 -23 -23q-17 -13 -34 -27q1 24 7 101q5 64 5 100q20 0 36 -2t15 -2q7 -7 7 -16zM844 47l-6 -25h-7l5 25h8zM651 236q-20 -20 -62 -61q2 26 -11 66q-22 63 -22 65
q10 18 32 18q11 0 36 -41q14 -24 27 -47zM891 93q0 -7 -9 -15q-15 -13 -17 -14v22q-4 4 -11 4q-13 0 -31 -36q-8 -21 -17 -41q2 -2 8.5 -5.5t6.5 -6.5q-12 -5 -63 -33q-41 -22 -48 -22q-6 0 -22.5 6.5t-25.5 6.5q37 16 74 31q43 20 68 40.5t30 73.5q2 24 -11 98
q68 -102 68 -109zM704 166q1 -16 -12 -65q-19 12 -19 29q0 8 6 27q9 27 11 34q9 -6 14 -6v-19zM684 84l-16 -6v7l13 7zM816 114q0 -60 -33 -81t-92 -47q-55 -24 -66 -24q-37 0 -86 42q-16 13 -74 72v170q0 8 -19 35t-26 27q-11 0 -52 -21.5t-41 -26.5l21 -268q0 -51 -34 -51
q-6 0 -31 9q-28 9 -39 10q-18 -1 -53 4q-13 10 -37 25q-4 -2 -17 -17t-20 -15q-6 0 -13 2.5t-12 1.5q-16 -9 -23 -9q-12 0 -43 22q-2 11 -2 26q0 10 2 51q3 33 1 52q0 5 -9.5 19.5t-9.5 20.5q0 8 8 16q6 4 11 9q8 43 8 55v7q-7 17 -15 54q-12 169 -12 229q0 33 28 215
q30 -15 87 -36q77 -17 127 -17q6 0 30 10.5t31 10.5q23 0 25 -23q2 -43 -6 -127q-8 -89 -8 -84q0 -21 24 -48l8 4v10v18q29 22 57 44q33 26 53 51q9 11 25.5 49.5t25.5 51.5q44 62 96 113q24 -18 67 -39q-45 -79 -72 -114q-7 -10 -46.5 -43t-52.5 -48q-24 -29 -51.5 -73.5
t-27.5 -54.5q0 -9 13 -21.5t22 -14.5q25 -4 71 -13q3 -24 20 -81q16 -50 16 -76q0 -18 -6 -32q-14 -37 4 -94q8 -26 40 -66q3 -1 14 -1t34.5 11.5t30.5 23.5q15 28 25 86q9 44 9 62q0 13 -10 30q-11 21 -28 21q-6 0 -14 -8q-15 -15 -18 -16q6 -8 16 -21v-72q-19 7 -37 15
q-27 11 -42 30q89 93 98 93q6 0 17 -5.5t18 -5.5q6 0 15.5 10t13.5 12q66 -37 66 -136zM10 703h-8l-7 12l8 3zM635 94q-9 -43 0 -94h-19q-34 44 -33 56v66q34 -22 52 -28zM446 48h-8l-6 18l7 3zM433 256q-19 0 -43 -16v-133q-26 -13 -26 -25q0 -10 15 -24q6 -6 12 -6
q13 -32 10 -121q-26 -16 -50 -16q-16 0 -29 10q15 7 31.5 14t16.5 15l-21 305q30 15 73 27q0 -2 5.5 -13t5.5 -17zM398 88l-7 -14l-7 3l6 13zM292 -71q-4 -9 -18 -9q-7 0 -33.5 10.5t-33.5 10.5q-8 0 -12.5 -5.5t-7.5 -10.5q-13 6 -35 42q12 -9 34 -19q36 -4 106 -19z
M105 -59l-24 -18l-5 8l24 17z" />
    <glyph glyph-name="L" unicode="L" horiz-adv-x="894" 
d="M716 440q-13 -13 -28 -5l7 32q21 -20 21 -27zM377 804q-14 -3 -48.5 -9t-48.5 -9q5 1 33 14q25 12 33 12q6 0 16 -4t15 -4zM446 694q0 -7 -13 -24q-18 -25 -20.5 -29.5t-0.5 -14.5q3 -17 3 -18q3 -31 -3 -93q-6 -68 -6 -65q0 -10 11.5 -85t11.5 -81q0 -3 -6.5 -67
t-6.5 -94q-7 6 -11 22q-6 24 -7 25q-2 5 -20 22t-18 25t11.5 89.5t11.5 89.5q0 4 -14.5 47t-14.5 53q0 17 7 81q9 78 18 118q1 4 12 17t11 19q44 -22 44 -37zM618 153q-8 0 -21 -13q1 5 -7 13.5t-17 11.5l19 21q4 0 13 -10.5t13 -22.5zM779 -19q-10 -15 -16 -17t-29 -2
q-8 0 -41 2.5t-40 2.5t-50 -8.5t-50 -8.5q-6 0 -37 14.5t-38 14.5t-63 -11.5t-64 -11.5q-7 0 -67 5.5t-68 5.5q-52 0 -59.5 -2t-36.5 -12q-22 -9 -30 -9q-27 0 -55 13q-37 18 -37 48q0 6 10 19.5t11 20.5q3 28 3 70q0 61 -6.5 150.5t-6.5 84.5q0 68 8 126q0 4 7.5 21t7.5 25
q0 7 -11.5 33t-11.5 33q0 4 3.5 56t3.5 75q6 2 28 16t29 14q3 0 39 -20q41 -23 62 -30q16 -6 38 -8q7 7 13 21q20 -1 62 4q9 2 27 13q15 9 23 9q7 0 20 -8l20 -12q-7 -8 -16 -19q-24 -177 -24 -197q0 -6 10 -38t11 -44.5t1 -28.5q0 -40 -8 -105.5l-8 -65.5q0 -7 17.5 -27
t20.5 -26q0 -1 3 -31q2 -19 25 -36q18 11 37 11q7 0 33 -8.5t33 -8.5l41 4q34 4 52 2q1 -1 16 -6.5t24 -5.5q41 0 67 14q33 18 44 20q0 -5 9 -15.5t9 -18.5q0 -18 -17 -40q-12 -13 -23 -26q10 -13 45 -21v-20zM546 164h-10v27h10v-27zM848 -48q-5 -3 -32 -25
q-20 -17 -28 -17q-7 0 -30 8.5t-30 8.5t-60.5 -11.5t-60.5 -11.5q-36 0 -195 44q8 0 33.5 7t32.5 7t37 -14.5t38 -14.5q7 0 54.5 8.5t54.5 8.5q6 0 37 -5.5t37 -5.5q61 0 61 51q0 4 1 8v5q0 7 -30 24q13 19 25 67q20 -8 48 11q0 -9 -10.5 -32.5t-10.5 -30.5q0 -11 8 -38
q9 -32 20 -52zM3 482h-16v10h16v-10zM399 -63h-15v9h15v-9zM377 -64q-122 -20 -118 -20q-7 0 -48 10q-47 13 -64 16q29 5 64 5q29 0 85 -5t81 -6zM-2 58q-8 -17 -27 -44q-1 11 -7 50q2 0 14.5 -3t19.5 -3z" />
    <glyph glyph-name="M" unicode="M" horiz-adv-x="927" 
d="M724 818q-3 0 -12.5 -2t-12.5 -2q4 12 13 34q0 -2 6 -13t6 -17zM606 781q1 -8 -2 -10.5t-12 -2.5q13 13 14 13zM898 800q-39 -47 -39 -110q0 -11 3 -49q2 -30 0 -51q-4 -46 -12 -148q0 -6 -6.5 -23.5t-6.5 -24.5q0 -5 10 -19t10 -22q0 -6 -12.5 -26.5t-12.5 -26.5
q0 -7 17.5 -44t17.5 -43t-15 -52t-15 -53q0 -6 8 -33q10 -31 12 -37q-18 0 -28.5 2t-14.5 2q-6 0 -13.5 -4.5t-12.5 -5.5q-3 3 -9 6.5t-8 5.5q10 34 21 96q9 55 9 68q0 6 -20.5 65t-20.5 65t13 29t13 27q0 6 -15.5 21t-15.5 20t13 25t16 34q3 19 3 56v56q7 54 21 157
q16 12 33 23q25 19 28 31q6 -5 29 -17zM459 707q-29 -3 -49 3q5 -1 27 21q0 -13 22 -24zM423 421q-1 0 -5.5 -3.5t-11.5 -3.5t-21 10q-10 7 -21 14q-53 31 -118 115q-103 132 -118 149q10 24 28 34q37 -56 120 -169q2 -2 76 -60q60 -47 71 -86zM790 768q2 -34 -27 -285
q0 -8 -11.5 -25t-11.5 -23t12.5 -22t12.5 -21q0 -6 -12.5 -22t-12.5 -22t20.5 -75t20.5 -75q0 -26 -19 -123q-5 -22 -13 -36q-7 -2 -19 -2q-20 0 -39 21q-20 -7 -81 -32q-49 -20 -56 -20q-39 0 -79 32q0 6 6 17t7 15q-42 76 -44 116q4 4 -8 4q-6 0 -15.5 -3t-13.5 -4
q-2 -12 -11 -38q-9 -16 -40.5 -50.5t-41.5 -52.5q-13 14 -41 30q-40 23 -47 28q-6 13 -18 35q-16 15 -52 50q-46 -62 -40 -179q-4 11 -16 31l-20 -20q1 5 -11 5q-6 0 -22.5 -13t-23.5 -13q-17 0 -27 41q-9 36 -5 56q12 6 25 19v131q0 5 8 38.5t10 49.5q3 25 1 75
q-1 41 -3 82q0 12 5.5 42.5t5.5 47.5q0 24 -9 43q1 12 2.5 38.5t37.5 55.5q6 -7 16 -19q23 -3 31 -8q58 -74 116 -147q118 -142 169 -142q8 0 38 11q34 13 52 26q13 9 30 36q24 40 27 43l98 118q58 72 75 122q2 6 25 22.5t39 24.5v-34zM699 29q-42 -28 -51 -28t-36 14
q6 0 35 8.5t41 8.5q8 0 11 -3zM444 119q0 -7 -21 -34q-27 -33 -33 -43q1 7 -10 18t-23 14l36 42q27 30 27 54q24 -36 24 -51zM490 3q-16 1 -30 -6q19 19 18 19zM17 446h-7l-6 17l7 3zM209 75q0 -5 -2.5 -24.5t-2.5 -28.5q-20 0 -50 2q-12 1 -14 -2q0 7 -3.5 24.5t-3.5 23.5
q0 8 27 89q18 -11 33.5 -37t15.5 -47zM-74 211h-9v24h9v-24zM-54 63h-9v39h9v-39z" />
    <glyph glyph-name="N" unicode="N" horiz-adv-x="738" 
d="M333 795q-6 -7 -6 -11q-13 7 -33 15q-1 7 21 29q2 0 18 -16v-17zM702 84q0 -4 -15 -51t-17 -64q-5 -8 -15 -21q-2 0 -13 7.5t-15 9.5q12 0 18 11q2 11 2 56l-20 567q0 57 17 139l9 -6q4 -116 19 -195l5 -393q2 -9 14 -33q11 -20 11 -27zM501 514q0 -28 -5 -39
q-4 9 -13 22zM233 749q-2 0 -11.5 -2.5t-11.5 -2.5q0 13 23 24v-19zM502 439q0 -4 -16 -18h-28q1 3 1 6q0 18 -39 52q-31 25 -61 50zM273 585q-6 3 -103 73q35 -14 52 -24q30 -18 51 -49zM164 660q-43 11 -64 33h43q6 -12 21 -33zM631 -17q-11 0 -22 -11q-7 19 -35 33
q-85 45 -244 130q-52 21 -158 71q-38 -30 -38 -60q0 -10 3 -27q5 -20 5 -25q2 -17 -9 -67q-2 0 -12 10q-1 0 -9 -5t-15 -5q-5 0 -10.5 5t-11.5 5q-7 0 -32 -25q-19 9 -34 38q-14 26 -14 44q0 7 7 21q10 23 11 25q2 4 -3 14.5t-5 16.5t11 17.5t12 15.5q12 37 12 70v198
q-2 3 -21 26q-14 17 -14 24q0 6 8 20t10 21q3 9 -0.5 29.5t-1.5 29.5q13 28 30 81q8 -2 23 -15q19 -17 29 -23q23 -6 70 -28l134 -92q78 -56 128 -101q7 -6 7 -40q5 0 16 -2t17 -2q8 0 43 24v222q0 6 -12.5 33.5t-12.5 34.5q0 9 11.5 26.5t20.5 17.5q6 0 23.5 -9.5
t23.5 -9.5q1 0 44 14q0 -30 -2 -92.5t-2 -63.5zM353 33q-3 0 -10 2.5t-9 2.5q6 9 6 14q13 -13 13 -19zM229 57q0 -9 -51 -59h-18q0 5 -10 16v141q8 11 26 31q31 -20 47 -25q0 -20 -9.5 -40t-9.5 -22q0 -5 12.5 -19.5t12.5 -22.5zM124 4q-13 0 -19 6q9 7 13 7q1 -4 6 -13z
M178 -77q-32 0 -33 1q0 7 33 18v-19zM90 9q-15 2 -30 -6q14 10 30 6zM522 183q-24 25 -24 41t15 24q-22 12 -20 20q0 2 8 14q3 25 -10 43q-52 -9 -46 -9q-40 0 -84 87q-43 17 -111 46q0 15 -7 35q-37 25 -96 75q-28 -54 -28 -59q0 -6 5 -19.5t4 -17.5q-18 -75 -18 -85
q0 -50 21 -100q45 -17 130 -46q51 -14 54 -15q33 -14 69 -49q13 -12 50 -35q13 -2 35 -8q11 -9 28 -21q4 46 5 50q6 28 20 29zM487 286q-9 0 -34 13q4 0 12.5 3t16.5 3q0 -6 2.5 -11.5t2.5 -7.5zM259 252q-98 32 -110 42q-25 20 -25 94q0 6 8 30q9 32 11 40q2 9 -3.5 23
t-5.5 19q0 6 7.5 16.5t8.5 12.5q10 3 27 -22q-4 -9 -4 -18q0 -11 8 -25t8 -19q0 -8 -12.5 -32.5t-12.5 -52.5q0 -31 6 -46q3 -6 16.5 -13t19.5 -13q10 -10 53 -36z" />
    <glyph glyph-name="O" unicode="O" horiz-adv-x="952" 
d="M848 705l-6 -5l-9 9l6 6zM978 420h-10v74h10v-74zM954 444h-8l-7 19l8 3zM888 298q0 -5 -19 -35t-21 -47q-9 -78 -43 -138q-5 9 -15 29q-5 -9 -12 -39q-7 -25 -17 -36q-43 -50 -134 -88q-20 -8 -65 -13q-50 -5 -68 -10q13 7 55 16.5t58 17.5q21 12 50 55q22 33 45 67
q25 17 72 52q1 85 15 158q3 16 19 59q15 38 15 47q0 -1 1 17v36q0 126 -32 168q-36 48 -116 95q-68 37 -135 74h25q22 0 94 -28q66 -26 76 -34q-2 -8 3.5 -19.5t15.5 -11.5q8 0 11 5.5t10 5.5q20 0 63 -40q40 -39 41 -51q1 -18 4 -71q4 -44 4 -52v-189zM872 2h-10v45h10v-45
zM795 53l-6 -27h-9l6 27h9zM805 387q0 -6 -14 -39q-15 -37 -20 -56q-11 -51 -15 -154q-53 -40 -152 -164q-63 -12 -133 -43q-55 -24 -98 -24q-66 0 -139 60q-21 18 -173 166q-17 17 -32 62q-12 37 -12 53q0 7 12 28.5t12 27.5q0 8 -12 33t-12 32q0 36 13 101q2 9 16 28
l22 31q78 123 145 164q44 27 131 60q80 31 94 31q55 0 112 -30q37 -19 107 -71q79 -57 122 -83q4 -37 16 -128q10 -79 10 -85zM110 642q-7 -26 -43 -79q-32 -46 -53 -67q-8 13 -8 40q38 14 66 49q19 29 38 57zM-16 2h-10v22h10v-22zM857 459q-9 0 -9 -9t8 -13q1 2 1 22z
M705 525q0 20 -27 50q-19 0 -51 4q-5 2 -94 61q-83 55 -107 55q-34 0 -108 -46q-69 -44 -93 -72q-59 -72 -100 -154q-14 -26 -14 -80q0 -92 58 -182q66 -104 168 -126q7 -2 27 -10q16 -6 24 -6q13 0 65 20q58 22 87.5 41.5t74.5 67.5q37 39 47 55q18 29 18 113q0 12 -9 37
q-8 22 -5 33q5 24 24 83q15 50 15 56zM623 377q-8 -49 -31 -116q-16 0 -40.5 -15t-31.5 -15t-19.5 3.5t-18.5 3.5q15 52 47 136q-10 11 -37 36t-39 37q6 -3 31.5 -3t36.5 -4q19 -6 49 -27q27 -18 53 -36zM505 366q0 -5 -19 -53q-21 -52 -25 -74l-8.5 -7t-17.5 -7q-8 0 -43 3
t-43.5 3t-29.5 13t-29 25q-26 34 -26 59q0 8 20 49q23 49 28 65q9 0 28.5 3t26.5 3q37 0 54 -8q26 -12 55 -37.5t29 -36.5zM471 213l-29 -14v9l25 13zM464 656q-3 1 -15 -2.5t-17 -3.5q-31 -2 -63.5 -23t-50.5 -48q-14 -22 -33 -70l-41 -79q-27 -53 -27 -90q0 -48 25 -117
q26 -74 58 -99t129 -67q-27 -14 -47 -14q-7 0 -20.5 4.5t-18.5 4.5q-90 9 -157 119q-57 94 -57 174q0 53 27 103q21 39 87 121q18 22 80 61q67 42 94 42q16 0 47 -16zM446 138q-22 7 -52 7q3 0 11 5q12 8 16 10q2 -3 12 -11t13 -11z" />
    <glyph glyph-name="P" unicode="P" horiz-adv-x="892" 
d="M861 349q-35 25 -35 44q0 9 4.5 15.5t4.5 8.5q0 -16 26 -68zM843 445q-12 -3 -34 -17q-4 -19 0 -60q-24 -32 -34 -120q-110 -71 -133 -83q-54 -28 -112 -27h-30l108 56q63 35 102 69q5 5 9 35q5 34 12 48q39 71 45 99q1 8 1 69q0 96 -33 146q-27 41 -111 89q21 -2 41 -5
q26 -4 36 -14q30 -26 113 -155q21 -33 20 -91v-39zM258 810q4 -3 4 -15t-5 -19l-15 7v27h16zM825 115q-11 -4 -34 -14q-14 28 -14 51q0 9 3.5 16t3.5 8l8 4h8q7 -5 16 -20t9 -25v-20zM746 159l-28 7v9l28 -7v-9zM759 535q0 -60 -8 -106q-3 -15 -16 -40q-11 -20 -23 -39
q-7 -28 -22 -78q-207 -129 -223 -129q-7 0 -24 12t-24 12q-8 0 -18 -2.5t-16 -2.5q0 -137 -1 -205h-139q-7 0 -97.5 8.5t-98.5 8.5t-24 -2q-19 -2 -24 -3q0 2 -3.5 10t-3.5 16t12 16t12 15v149q0 -9 10 104q2 26 2 48q0 39 -9 79.5t-9 61.5q0 8 7.5 29.5t8.5 28.5
q1 10 -2.5 28t-3.5 26t7 28t7 26q0 7 -16 43.5t-19 52.5v21q10 0 21 -12q63 31 90 31q7 0 32.5 -9.5t32.5 -9.5t16 -3t18 -3q8 0 47 15.5t47 15.5q5 0 14.5 -3t18.5 -3q7 0 22 9t23 9q89 0 157 -15q31 -6 90 -41q67 -40 96 -78q11 -15 31 -73q2 -8 2 -46zM554 -42
q-14 3 -34 -7q0 1 -4 11.5t-4 17.5q0 13 23 36q0 -29 19 -58zM482 -18h-23v27l15 13q0 -25 8 -40zM464 97q0 -7 -6 -32q-7 -28 -8 -40l-15 -18q13 -42 9 -55q-5 -15 -17 -29.5t-23 -14.5l-253 34q94 -10 196 -10q27 0 51 17q-3 35 -2 94q3 91 3 99q61 -12 65 -12v-33z
M109 -59q-6 -3 -53 -14v28q11 0 53 -14zM657 495q0 39 -1 42.5t-24 60.5q-116 25 -196 51q-20 -23 -43 -63q-10 -63 -16 -153.5t-3 -132.5q18 -10 59 -21q37 -9 49 -9q26 0 88 53q57 49 66 69q21 45 21 103zM508 445h-10v28h10v-28zM566 380q-27 -1 -39 10q-2 -2 -5.5 -10
t-7.5 -8l-13 17q6 -2 11 -2q10 0 18 11l11 16q0 -21 25 -34zM488 618q-2 -8 -17 -28t-18 -29q-3 -13 -10 -60q-20 -10 -45 -47q15 -9 34 2q4 -11 4 -30q0 -9 -1.5 -30.5t-1.5 -32.5q0 -70 52 -72q-31 5 -93 16v158q0 31 14 87q18 73 46 73q8 0 19 -3.5t17 -3.5z" />
    <glyph glyph-name="Q" unicode="Q" horiz-adv-x="939" 
d="M544 873q-21 4 -43 25q0 3 9 15t11 16q0 -15 -9 -24q14 -9 32 -32zM995 340h-9v14h9v-14zM512 801q-13 -7 -38 6q26 1 38 -6zM895 473q0 -21 -7 -110q-2 -16 -28 -49q8 -13 0 -29q-25 -56 -49 -113q-32 -63 -88 -76q-20 -5 -29.5 -17.5t-19.5 -36.5q-13 -33 -17 -40
q-30 -10 -93 -35q-7 4 -19 13q16 23 45 52q18 8 36 15q26 11 41.5 25.5t35.5 48.5l30 52q4 8 39 41q31 30 39 52q13 34 13 122q0 135 -70 305q26 -5 80 -18q15 -19 26 -54q35 -107 35 -148zM884 -75q-11 -9 -32 -23q0 6 -9 -37q-88 -35 -98 -35q-18 0 -77 6q-74 8 -115 17
q-29 7 -83 47q-5 3 -64 38q-40 24 -57 45q-62 6 -127 -96q8 -14 23.5 -24.5t23.5 -10.5q6 0 16 5t18 5q0 -2 3.5 -7.5t3.5 -13.5q0 -6 -22 -33q-30 -37 -34 -43q2 0 -29 16l-21 -22q-21 8 -42.5 38t-21.5 52q0 8 33 57l56 82q3 0 6.5 -7t5.5 -9q7 6 30 41q-14 14 -108 80
q-72 51 -92 94q-2 19 -9 49q-9 11 -24 33q-24 42 -24 81q0 12 31 47q-8 52 -7 66q32 23 41 58q7 28 14 57q14 31 96 116q90 93 121 93q18 0 51 -11l49 49q13 -5 50 -28q31 -21 38 -21q6 0 30 8.5t31 8.5q3 0 56 -32q35 -18 69 -36q49 -27 66 -60q10 -17 19 -59
q11 -49 18 -67q15 -40 15 -126q0 -119 -8 -138q-3 -10 -27 -36q-30 -32 -41 -47q-20 -35 -41 -70q-30 -48 -71 -66q-11 -2 -32 -9q-15 -9 -64 -72q40 -24 105 -54.5t75 -30.5q6 0 28.5 5.5t33.5 6.5q1 2 20 44q13 29 49 56q-22 8 -57 8q-77 0 -77 -24q0 1 -6.5 10t-6.5 17
q0 25 29 52.5t53 27.5q19 0 120 -168zM791 -7q-13 -19 -42 -48q0 11 -12 48h54zM955 -57q1 -5 -31 -40q-1 -23 -4 -66q-73 -33 -95 -38q-10 -2 -69 -2q-48 0 -70 4q-28 6 -81 27q115 -14 140 -14q11 0 45 9q40 12 63 24q11 7 16 45q24 16 37 29q-8 31 -93 142q23 13 36 13
q8 0 46 -50q30 -41 60 -83zM703 -92q-19 9 -59.5 26t-60.5 25q60 -17 120 -51zM25 406q-7 -16 -30 -40q-2 4 -2 8q0 25 32 32zM354 -47q-51 -79 -92 -79q-6 4 -18 13q15 27 43 51.5t54 28.5zM386 -173q-5 -9 -55 -49q-45 -34 -45 -57l-25 24q9 15 55 69q28 32 28 60
q16 -15 42 -47zM146 -50q0 -6 -3.5 -16t-3.5 -16q-2 0 -11 3.5t-14 3.5v1q7 7 10.5 20.5t6.5 25.5q15 -14 15 -22zM60 -60h-9v20h9v-20zM709 423q0 8 -15 36t-16 36q-3 38 -15 94q-27 46 -77 72q-17 -8 -39 -32q-13 10 -46 21t-55 11q-7 0 -52 -3q-55 -4 -72 -4
q-19 -25 -21 -28q-15 -18 -28 -24q-8 -3 -28 -4t-26 -5q-18 -37 -50 -108q-12 -29 -3 -61q-14 -14 -27 -28q-15 -17 -15 -24q0 -20 35 -102q41 -97 80 -137q28 -28 88 -32h89q10 0 28.5 -9.5t23.5 -9.5q7 0 34.5 2.5t34.5 2.5t27 28q23 33 35 42q20 7 53 24q15 51 37 144
q20 88 20 98zM605 619q-7 0 -20 -9q-19 -13 -21 -14q-8 7 -13 7q13 26 42 36q0 -8 12 -20zM535 618l-4 -8l-34 18v8zM687 422q-8 0 -20 -12q1 6 -29 36q10 9 31 24q0 -23 18 -48zM617 442l-16 -7v8l12 7zM577 290q-4 0 -15.5 5t-19.5 5q-10 0 -26 -16l-86 8q22 3 56 15
q13 9 25 27.5t12 28.5q0 27 -29 59q-18 11 -53 34q4 7 14 19q34 -22 89 -62q15 -14 25 -43q9 -25 8 -39v-41zM501 366q0 -29 -31.5 -41.5t-63.5 -23.5h-19q-4 8 -13.5 16t-14.5 7q6 3 16 12q-4 6 -30 37q-19 21 -19 29q0 11 69 79q16 -17 45 -40q21 -16 41 -32t20 -43z
M435 639q-20 -27 -56 -35q-24 -2 -49 -4q-6 -20 -28 -58q-8 -9 -64 -69q-38 -41 -38 -50q0 -6 7 -17t8 -15q1 -5 -3 -16q-4 -14 -5 -18q-5 -33 6 -75q1 -8 16.5 -27t17.5 -28q2 -21 5 -42q4 -31 30 -47q-14 2 -36 16q-30 50 -66 127q-34 74 -34 85q0 9 14.5 26.5t26.5 25.5
q-6 5 -6 16q0 19 20 69q24 60 28 76q69 2 104 60h102z" />
    <glyph glyph-name="R" unicode="R" horiz-adv-x="868" 
d="M771 479q0 -44 -96 -235q-14 -5 -41 -24q-4 -4 -7 -18q-4 -17 -7 -24q-8 -3 -38 -20q-25 -15 -33 -15q-7 0 -14 9q-13 14 -16 17q16 0 23 6q10 21 34 55q18 11 45 38q28 41 61.5 100.5t33.5 69.5q0 13 -19 117q-7 21 -18 57q21 -12 56.5 -65t35.5 -68zM855 148l-6 -53
h-10l6 53h10zM213 781q-1 -27 -53 -36q0 1 -3.5 7t-3.5 14q0 9 12 21t21 12t27 -18zM820 124l-15 -13q0 2 -2.5 14t-2.5 18zM123 785q-16 0 -16 -5q0 19 5 19q3 0 5.5 -7t5.5 -7zM828 35q-23 -24 -47 -49q-35 -36 -61 -49q-11 -5 -27 -6q-11 -1 -32 0q-24 2 -33 2q-2 0 40 3
q6 12 62 79q44 54 44 88q0 21 -14 39h21q-1 -9 5.5 -26t6.5 -24q0 -11 -12 -18q3 -2 5 -6t5 -7q11 0 20 15q6 12 12 23q11 -30 5 -64zM760 97q0 -17 -100 -145q-11 -3 -24 -3q-26 0 -82.5 20t-82.5 16q1 13 -2 33q-46 23 -58 47q-4 14 -8 29q-6 11 -40 11h-30q-2 -1 -60 -26
q-1 -6 6.5 -13t15.5 -13q-5 -8 -22 -27q16 -16 16 -18q-85 -34 -92 -34q-5 0 -14 11t-16 11q-4 0 -47 -6t-67 -7q-24 -14 -25 -14q0 2 -3 6t-3 12q0 5 11 19.5t11 21.5q0 2 -15 70q-15 72 -17 108q0 13 4 50.5t4 58.5q0 15 -3 52t-3 52q0 8 5 40q3 26 1 42q-3 19 -15 66
q-10 42 -10 49q0 6 15 42q19 44 24 59h214q18 0 61 -12q48 -14 62 -16q22 2 64 -2q56 -13 214 -66q26 -36 32 -70q13 -70 13 -105q0 -22 -84 -165q-4 -6 -18 -15q-18 -12 -24.5 -18.5t-17 -27t-16 -26t-18.5 -6.5q-18 -2 -20 -3q0 1 -1 2t-2 -0.5t-1 -7.5q0 -11 21 -34.5
t31 -23.5q7 0 52 24.5t52 24.5t16 -7q15 -12 18 -13q18 -11 60 -15q18 -29 18 -38zM442 -130q-38 15 -38 33q0 6 7.5 14t7.5 12q0 3 -4 6l16 -8q11 -7 11 -15v-42zM404 -73l-19 -19l-12 13v25q10 -4 31 -19zM383 87q-23 -13 -44 -35q16 -32 16 -43q0 -18 -14 -44
q-14 -1 -49 -12.5t-41 -11.5q-5 0 -25 6.5t-29 6.5q68 20 125 55q-14 15 -21 15q9 22 21 34q-15 16 -15 19q1 0 11.5 5.5t18.5 4.5h46zM-9 215h-9v26h9v-26zM281 -73q-8 0 -25.5 -9.5t-23.5 -8.5h-35q4 7 17.5 16.5t23.5 9.5q6 0 20.5 -4t22.5 -4zM185 -52q-13 0 -28 2
t-20 2q-14 0 -17 -5q-3 -9 -6 -17h-20q-11 21 -11 37q12 0 41 3.5t35 3.5q13 0 26 -26zM-7 78q-13 12 -17 8q2 2 4.5 10.5t5.5 8.5q7 0 7 -27zM596 427q0 29 -45 134q-59 15 -172 41q-21 -38 -44 -89.5t-23 -61.5v-135q0 -7 10.5 -25t10.5 -25q0 -3 -21 -39q17 -3 60 -17
q39 -12 46 -12q27 0 46 18q41 32 96 87q14 22 26 70q10 40 10 54zM699 86q0 7 -6 17.5t-6 11.5q-53 -21 -86 -21q-11 0 -23 21q-21 -6 -59 -18q37 -50 48 -60q19 -20 42 -20q8 0 28.5 6t27.5 7q34 47 34 56zM437 573q-7 -13 -20 -36q0 21 -7 36h27zM464 527h-17
q0 -17 -17 -34q-1 0 -15 14q20 10 25 22q3 8 5 40q7 -16 19 -42zM398 543l-8.5 -2t-12.5 -1q-5 1 -5 7q0 8 7 18q11 13 12 15zM514 315q-12 -21 -19 -35q-13 16 -33 16q-8 1 -13 1q5 12 24.5 29.5t33.5 23.5zM447 324q3 0 -12 -2q-11 -2 -17 1q-2 0 -2 2q0 11 19 20
q12 -12 12 -21zM415 530q-2 -4 -32 -61q-17 -33 -17 -55q0 -83 7 -115q1 -4 31 -50l-6 -14q-4 -10 -13 -10q-7 0 -46 13q5 9 14 23q0 7 -8.5 23.5t-9.5 24.5q-7 41 -7 135q0 6 13 32l22 44l12 -11q6 2 20 10.5t20 10.5zM617 36q-19 -6 -70 57h20q6 -10 19 -17t24 -27
q1 -4 7 -13z" />
    <glyph glyph-name="S" unicode="S" horiz-adv-x="772" 
d="M627 662q0 -5 -7 -34t-7 -42q0 -4 1 -17t1 -20q-2 0 -8 -3t-15 -3q-11 0 -21 13q-1 5 -10 23t-9 25q0 8 13 39q22 48 23 51q13 -4 26 -14t13 -18zM689 477q3 -9 -8 -24q2 21 -6 37q5 -4 14 -13zM423 588q-8 -9 -34 -48q11 -16 34 -49q-36 16 -73 48q-1 14 -3 21
q-3 14 -10 22zM472 431l-7 -6l-20 20l6 6zM709 197q0 -55 -79 -131q-6 6 -38 19q1 2 21 58q12 34 55 83q-13 12 -69 106q46 -20 72 -37q3 -11 22 -54q16 -36 16 -44zM131 674q-5 4 -7 18q-3 15 1 19l4 -8.5t4 -16.5q0 -6 -2 -12zM68 703h-16v10h16v-10zM669 47l-6 -6l-8 9
l6 6zM639 226q0 -7 -13 -22q-17 -19 -21 -26t-8.5 -33.5t-12.5 -36.5q-87 -107 -109 -125q-42 -33 -118 -33q-7 0 -46 15q-47 18 -65 23q-31 9 -99 19.5t-100 19.5q-1 1 -17 20q-13 14 -13 22q0 27 8 43t35 30q7 -3 15 -12q13 -16 14 -17l12 11q36 -18 70 -52q10 10 33 26
q17 9 39 9q8 0 41.5 -3t40.5 -3q10 0 19.5 10t9.5 19q0 21 -31 65q-69 99 -131 154q-15 7 -40 28q-21 32 -66 93q10 10 28 30q3 15 -1 35q2 2 91 118q55 71 76 91q15 -3 54 2q45 6 46 6q7 0 35 -14.5t35 -14.5t11.5 3t11.5 3q8 0 42 -17q45 -22 54 -25q-2 -7 -20 -41
q-15 -30 -15 -46t12 -25q-15 -15 -24 -15q-6 0 -34 18q-34 22 -45 27q-18 8 -92 8q-7 0 -19 -12q-15 -13 -19 -15q9 -11 15 -35t14 -32q5 -7 27.5 -18.5t30.5 -18.5q9 -10 28.5 -36t28.5 -35.5t29 -18.5q28 -14 29 -15q42 -25 80 -74q44 -56 44 -77zM598 46q0 -7 -27 -45
q-22 -30 -44 -61q-8 -2 -16 -2q-6 0 -24.5 4t-27.5 4q42 36 126 131q0 -1 6.5 -12t6.5 -19zM249 181q-13 -14 -31 -45q-5 3 -10 7.5t-5 13.5v36q7 1 46 -12zM178 96q-8 0 -22 12q0 4 6 13t10 9q12 -18 6 -34z" />
    <glyph glyph-name="T" unicode="T" horiz-adv-x="904" 
d="M865 591q0 -8 -14 -25l-22 -27q-18 12 -53 12q9 11 25.5 31t24.5 32q-11 16 -36 36q-14 10 -14 30q0 13 25 36q30 -15 30 -40q0 -6 -2 -19t-2 -20l23 -23q15 -15 15 -23zM694 562l-14 -14l-5 6l13 14zM493 791q-8 -14 -15 -25q-17 -25 -26 -27q-4 0 -13 -6l8 29
q0 14 -15 23q25 26 39 26q7 0 14.5 -6.5t7.5 -13.5zM525 697h-37v10h37v-10zM403 787q0 -14 -6 -20h-20q-6 0 -6 13l7 14zM698 401q-10 0 -17.5 2.5t-9.5 2.5q0 17 20 27zM659 541q-19 -1 -36.5 -18t-17.5 -35q0 -14 11 -23q-3 3 -7 3.5t-7 3.5q0 -19 6.5 -60t6.5 -46
q0 -6 -11 -25.5t-11 -26.5v-151q0 -7 11 -31.5t11 -31.5t-8.5 -59.5t-8.5 -59.5v-30q-20 -6 -57 -29l-32 8q16 5 49 30q2 6 -2 18q-5 18 -6 24q-3 28 -3 59q0 51 11.5 149.5t11.5 140.5q0 18 -2 35q0 6 -4.5 20.5t-4.5 22.5q0 21 23 40q-17 25 -17 42q0 21 11.5 27t23.5 12z
M682 61q-23 50 -23 80q0 6 10.5 36t12.5 45v-161zM804 614q-21 -21 -52 -64q-14 5 -29 11q-22 9 -34 28q-3 0 -10.5 -9.5t-15.5 -11.5q-13 -3 -49 -5q-31 -2 -50 -9q-18 -27 -18 -46q0 -16 11 -33q-1 -4 -13 -18t-12 -21t11 -44.5t11 -44.5q0 3 -12 -105t-12 -162
q0 -71 13 -111q-24 -30 -156 -30q-86 0 -97 1q-5 1 -18 8t-21 7q-7 0 -28 -11q-23 -14 -34 -16q-18 26 -18 58q0 7 11 55.5t11 55.5q0 29 -7 147q-8 150 -17 219q-5 31 -63 109l-15 -12q-19 2 -38 3q-23 2 -37 -2q0 11 -3 35.5t-3 30.5q0 29 16 49q13 18 28 18q6 0 49.5 -14
t53.5 -14q7 0 40 11.5t40 11.5q6 0 13.5 -6t14.5 -6t58.5 17t58.5 17t62.5 -14t62.5 -14q-4 0 138 12q8 1 31.5 11t30.5 10q11 0 27 -8.5t23 -20.5q-1 -14 9 -44q13 -9 38 -29zM108 544q0 -17 -12 -17q-8 0 -14.5 4.5t-8.5 4.5q19 0 35 8zM154 363q0 -4 -6.5 -8t-6.5 -21
q0 -9 2 -22q-14 1 -14 -4q0 23 -7 38t-7 18v29q10 0 23.5 -2.5t15.5 -2.5v-25zM80 377q3 -3 2 -14q-3 -18 -3 -19q1 3 -4 11q-8 11 -10 15q5 7 15 7zM-48 443q3 -9 -7 -24q1 20 -6 36q4 -4 13 -12zM412 -81h-14q0 -7 -19 -6q-26 1 -31 0q26 6 64 6zM154 121q-8 -7 -22 -18
q5 -9 16 -24h-32v25q10 11 17 17h21zM276 -75q-14 -7 -50 -7q7 8 26 21q13 -14 24 -14zM152 39q5 -17 -8 -56q5 8 8 26q3 19 0 30z" />
    <glyph glyph-name="U" unicode="U" horiz-adv-x="736" 
d="M738 728l-6 -13l-7 3l6 13zM722 706l-3 -7l-16 6v7zM653 766q-6 -6 -19 -6v18l12 11q4 -4 7 -23zM687 610l-34 -152v-201q0 -6 -5 -30.5t-5 -30.5q0 -12 9 -65q10 -60 20 -96q-37 2 -102 -19q5 8 13 21q6 84 6 172v258q0 5 12 51q12 52 16 73q2 14 -8 65h67q4 -17 11 -46
zM416 500q-5 -20 -17 -49v38q6 3 17 11zM441 323q-2 -5 -2 -8q0 -6 5 -2v0q-4 -2 -15 -9q0 7 12 19zM398 655q-6 -15 -33 -36q2 -18 1 -52q-2 -47 -2 -40v-138q0 -5 2.5 -26t2.5 -27q0 -18 -25 -30q4 -10 9 -21t13 -11q7 0 8.5 2.5t2.5 2.5q3 -5 0 -17q-3 -15 -3 -19
q0 -22 24 -119q-3 -1 -15.5 -11t-18.5 -10q-9 0 -20.5 7t-12.5 15q-3 27 -13 83q-5 7 -12 24q5 13 7 35q-7 12 -18 35q30 26 30 48q0 51 -17 201q-4 12 -12 39q-3 13 12 46q2 5 0 12q-3 14 -23 21q11 0 37.5 3.5t31.5 3.5q12 0 44 -21zM604 602l-34 -164l4 -303l-2 -58
q-2 -38 -19 -56q-33 -1 -93 -8q-9 -2 -33.5 -15t-30.5 -13t-11 5t-11 5q-12 0 -41 -11q-5 -2 -15 -16.5t-20 -20.5t-30 -6q-37 0 -65 16q-15 18 -48 41q-20 5 -129 18q2 13 -2 30l-12 15q11 49 11 93q0 67 -27 98q12 9 39 30q-8 16 -34 33q4 10 21 54q13 33 13 40
q0 5 -12 17t-12 20q0 5 14.5 17.5t14.5 19.5q0 5 -6 14.5t-7 14.5q-13 58 -11 104v16q45 -1 75 6q93 24 99 24q23 0 100 -11q-15 -51 -15 -60q0 -8 6.5 -10.5t6.5 -3.5q3 -31 13 -136q9 -89 9 -96q0 -5 -15 -21t-15 -23q0 -6 6 -18q9 -17 10 -21q-3 -11 -10 -19
q7 -12 17 -39q4 -15 16 -107q6 0 23.5 -4.5t23.5 -4.5q9 0 31.5 13.5t28.5 24.5t10 43q5 44 7 54q14 54 27 108q11 46 11 108q0 46 -2 62q-7 46 -37 124q20 17 49 17q3 0 42.5 -2.5t59.5 -2.5q12 -22 11 -35zM635 -23l-36 -42l-7 5l36 41zM530 3q-45 -23 -61 -23
q-7 0 -10.5 4.5t-6.5 8.5q9 2 36.5 5t41.5 5zM1 424l-18 -17q0 12 -6 18q23 0 24 -1zM437 -15q-6 -15 -48 -38q-38 -21 -45 -21t-24 17q7 11 23.5 21.5t22.5 10.5t13 -4.5t12 -4.5q7 0 22 7q19 10 24 12zM295 -96l-12 -12q-15 9 -40 0q-6 10 -6 14q16 0 19 3q-14 17 -35 24
q20 -4 39.5 -8.5t34.5 -20.5zM217 -87q-5 0 -18 -8t-19 -8q-11 0 -37 26q0 5 7.5 14t14.5 9q8 0 25 -13q13 -10 27 -20zM348 432v67h-17q-11 -10 -11 -16q0 -7 6 -22q8 -20 9 -24z" />
    <glyph glyph-name="V" unicode="V" horiz-adv-x="952" 
d="M961 406q-13 19 -13 40q0 8 3 25.5t3 28.5q13 -18 13 -49q0 -21 -6 -45zM558 669q-12 -11 -12 -31q0 -11 6 -18q-3 -5 -6 -9.5t-12 -4.5q-7 0 -21 3.5t-20 3.5q13 20 37 56h28zM603 541q-5 4 -10.5 7.5t-5.5 12.5q0 12 15 27q4 -7 3 -23q-2 -29 -2 -24zM502 679
q-3 -3 -3 -31q-13 -6 -41 8q20 -1 44 23zM916 583q-45 -3 -49 -57q-2 -33 -61 -115q-63 -86 -70 -126q-2 -25 -3 -49q-3 -34 -13 -52q-7 -13 -30 -26q-32 -18 -37 -21q-1 -24 -9 -71q-8 -9 -20 -23q-1 -9 3 -28q4 -22 4 -34q0 -42 -40 -75q-47 5 -93 11q-57 7 -69 35
q12 -3 56 -16q38 -13 46 -13q10 0 25.5 18t22.5 34q4 7 3 27q0 24 1 31q10 21 26 65q0 21 3 65q19 14 50 47q3 15 15 47q20 39 25 52q13 28 16 47q1 7 15.5 19.5t16.5 16.5q9 22 21 80q11 53 24 79q2 4 38 43q30 34 32 52q22 -10 51 -30v-33zM526 241q-30 49 -78 143
q-32 80 -76 208.5t-44 139.5q0 6 9.5 26t9.5 29h21q6 -12 17 -36q2 -5 -1 -18t-1 -18q60 -203 102 -317q1 -3 -15 -19q5 -5 15 -17q1 -16 24 -57q21 -37 17 -64zM569 318q-17 7 -46 19q14 14 14 27q3 -6 16 -23t16 -23zM840 645q0 -9 -24 -36q-28 -31 -33 -43
q-11 -23 -24 -74q-17 -66 -21 -78q-2 -7 -18.5 -25t-19.5 -28q-16 -78 -57 -147q-3 -5 -23 -19.5t-26 -23t-6 -31.5q1 -34 1 -35q-1 -9 -4 -15q-10 -24 -14.5 -51.5t-9.5 -54.5q-1 -8 -13.5 -22.5t-22.5 -14.5q-7 0 -67 14.5t-68 14.5q-30 0 -55 -5q4 16 -3 30
q-10 23 -46 117q-29 76 -56 118q-10 17 -23.5 65t-26.5 71q-11 18 -50 66q-34 42 -47 69q-5 11 -7.5 43.5t-7.5 45.5q-3 6 -29 49q-22 38 -22 46q0 11 6 19t6 15q0 9 -6 26q6 2 76 2q7 0 21 11.5t20 11.5q8 0 24 -6t23 -6q9 0 115 53q19 -7 19 -29q0 -10 -5 -29t-5 -24
q0 -12 47 -149q49 -147 83 -229q11 -27 80 -140h15q83 119 179 410q5 16 -16 27q7 34 47 34q23 0 94 -43zM63 525q-20 0 -27 -13q12 35 12 46zM278 50q0 29 -11 64q11 -35 11 -64zM410 -50h-22v11h22v-11zM226 112q-12 24 -6 29q6 -7 6 -29z" />
    <glyph glyph-name="W" unicode="W" horiz-adv-x="1252" 
d="M859 648l-7 -23l-9 3l8 20h8zM670 699l-8 -3l-8 17h9zM1189 670q-75 -97 -150 -193q-100 -130 -133 -216q-1 -4 -1 -10q0 -7 3 -26.5t3 -29.5t-3 -17q-18 -56 -37 -112q-24 -64 -57 -103q-6 2 -51 32q10 19 19 84q1 7 16 28q17 25 22 37q7 18 15.5 70t17.5 72
q18 43 66 116l82 122l73 73q67 70 67 91q0 27 -35 66q-32 35 -53 42h33q31 -42 103 -126zM1076 293q-13 -27 -32 -46q-3 3 -13.5 7.5t-13.5 7.5l31 31h28zM1010 323q0 -15 -8 -23q-3 3 -10 8t-10 8q3 0 14 3.5t14 3.5zM768 508h-28q-3 35 -17 105q8 -8 14.5 -43t30.5 -62z
M543 650h-14.5h-19.5q0 3 19 40q9 -6 15 -6v-34zM384 758q-23 -19 -32 -55l-27 25v67q13 14 13 20q19 -16 46 -57zM430 519q-10 13 -51 57q-18 19 -18 41v32q20 -32 39 -65q22 -38 30 -65zM975 35q-49 -24 -49 -49q18 51 42 83q0 -1 3.5 -12t3.5 -22zM919 71l-15 -21l-7 6
l13 21zM1124 688q0 -8 -53 -62q-67 -68 -83 -88q-75 -92 -153 -248q-5 -10 -9 -37q-6 -37 -6 -39q-11 -46 -29 -76q-23 -37 -27 -49l-8 -54q-7 -32 -39 -36q-25 26 -25 47q0 13 7 32q-18 57 -95 118q-14 11 -35 39q-17 24 -35 47q-44 -15 -86 -54q-43 -61 -86 -123
q-84 -113 -117 -113q-8 0 -16 5q-12 7 -16 9q4 18 4 38q0 33 -14.5 75t-29.5 82q-20 99 -69 290q-10 29 -59 139q-46 101 -46 108q0 30 18 30q7 0 6 -3t6 -3t18.5 17t18.5 21q4 3 31 3q7 0 28 -6t28 -6q6 0 32 6t33 6q8 0 25.5 -6t25.5 -6q10 0 10 18q36 -23 36 -48
q0 -17 -14 -37q35 -19 38 -69q4 -66 11 -78q4 -8 26.5 -29t28.5 -30q9 -21 31 -64h15q25 0 57 21q-5 9 -5 22q0 36 39 98q21 33 21 103q0 11 -1 21q14 0 27 13q6 -15 9 -21q7 -11 14 -13q64 -16 90 -85q19 -51 14 -113q31 -17 96 -17q18 21 24 56q8 42 11 49q12 24 53 84
q34 50 34 57t-10.5 24t-12.5 24q22 19 69 49q3 -18 39 -35q49 -22 54 -26q16 -13 33.5 -39.5t17.5 -37.5zM538 101q-14 -13 -23 -13l7 52q3 -6 8 -19.5t8 -19.5zM21 442q-14 20 -14 42q0 9 3 26.5t3 26.5q14 -18 14 -49q0 -22 -6 -46zM556 226q-29 -21 -75 -80q0 18 -11 18
q-13 0 -39 -21q9 -15 24 -42q-47 -36 -62 -82q-8 -34 -16 -67q-12 0 -37.5 -3.5t-32.5 -3.5t-28 11q-24 13 -31 16q59 29 144 144.5t131 142.5q10 -11 33 -33zM84 303l-8 -15l-8 3l8 15z" />
    <glyph glyph-name="X" unicode="X" horiz-adv-x="892" 
d="M883 553q-7 -6 -20 -17q0 6 -13 31q13 0 33 -14zM799 586q-8 9 -31 0q-4 17 -14 45q-6 10 -24.5 26.5t-23.5 24.5q-1 5 8 13.5t17 12.5q38 -53 68 -122zM873 518l-5 -6l-14 14l6 5zM622 733q-6 -8 -6 -13q-8 0 -21 25q15 0 27 -12zM483 538q-13 -14 -25 -14
q-9 0 -37 27.5t-42 52.5q-6 11 -25 79q-16 57 -37 76v20q25 9 55 -1q-5 -9 -5 -21q0 -24 23 -69l34 -66q-6 -22 -6 -21q24 -20 65 -63zM783 544q-127 -141 -194 -183q16 -5 18 -25q1 -25 5 -29q29 -32 74 -89q10 -22 35 -65q-31 19 -111 110q-77 88 -77 97q0 11 52 80
q55 73 94 109q11 11 40 18q40 9 47 12l-11 -13q3 -2 12.5 -9t15.5 -13zM744 592q-26 -9 -74 -25q-153 -178 -153 -209q0 -9 55 -78t105 -122q20 -12 54 -37q1 -17 8 -50q-62 -36 -120 -85q-3 11 -16 33q-6 -5 -26 -31q-14 -19 -22 -19q-10 0 -28.5 9.5t-24.5 19.5
q-10 26 -32 72q-39 52 -107 154q-36 -31 -120 -93q-122 -90 -149 -90q-8 0 -14 3.5t-7 4.5q-22 35 -62 67q14 20 41 50q23 7 60 26q42 33 95.5 87.5t53.5 64.5q0 6 -17 26q-20 24 -26 39q-2 7 -5 36q-2 26 -9 36q-38 65 -76 129q-49 74 -99 65q-1 21 17 47q29 1 83 15
q39 21 79 42q48 27 73 28q7 -3 17 -12q-2 -15 3 -45q9 -10 24 -33q8 -17 17.5 -57.5t19.5 -58.5q12 -22 40 -51q41 -41 46 -48q53 7 77 55q19 43 38 87q20 5 56 15q31 10 50 49q11 -21 36 -51q19 -23 39 -46v-19zM817 72q0 -18 -7 -25q-51 -40 -106 -93q-4 -2 -9.5 -4.5
t-14.5 -2.5q-6 0 -6 5v0q0 6 -7 6q-6 0 -17.5 -14t-19.5 -14q-7 0 -52 30q2 3 6 10t7 10q1 0 5 -8.5t12 -8.5q7 0 60 39q63 47 86 60q5 23 -4 31l7 31q20 -9 40 -18.5t20 -33.5zM218 313l-20 -13l-5 8l20 13zM154 309h-26q0 7 26 32v-32zM410 7q-8 -18 -34 -43q-5 -1 -14 8
t-12 17q18 9 60 18zM383 155l-226 -169q-1 11 -12 21t-23 20q12 11 45 29q38 21 51 30q48 39 141 111q7 -16 24 -42zM324 4l-14 -14l-6 6l14 13z" />
    <glyph glyph-name="Y" unicode="Y" horiz-adv-x="880" 
d="M735 392q0 -23 -24 -34h-33q13 15 37 46q13 -12 20 -12zM467 588q-1 -8 -14 -8q-14 0 -57.5 35t-48.5 49.5t-16 39.5q-15 10 -30 21q-23 16 -26 40q19 9 38 19q10 -11 23 -40q16 -35 21 -43q47 -74 110 -113zM824 670l-217 -287q0 -1 8 -12q-1 -17 1 -57q3 -43 3 -53
q-7 -8 -4 -40q5 -6 14 -18q7 -81 7 -73q-26 -8 -34 -32q8 -6 29 -23q0 -8 -23 -31q3 -7 28 -44q5 -1 15 24q1 -1 13 -18q8 -11 8 -20t-10.5 -23t-20.5 -27q-5 2 -31 14q-20 10 -29 10q-6 0 -28.5 -15t-29.5 -15q-9 0 -30 9l-32 12l66 10q45 10 81 49q-3 4 -20 19
q-16 12 -16 18q0 8 12 44.5t12 43.5t-23.5 65.5t-23.5 66.5q0 151 25 194q28 49 117 137q80 79 80 84q0 7 -19 35q-29 42 -33 49q32 -10 105 -96zM703 209l-8 -16l-8 4l8 15zM754 682q-16 -19 -101 -98q-69 -65 -97 -114q-24 -43 -24 -200q0 -30 21 -78t21 -66q0 -10 -4 -18
q-16 -32 -16 -52q0 -27 24 -40q-24 -39 -102 -39q-7 0 -61.5 12t-61.5 12t-15 -7t-13 -9q-28 -14 -71 -14q-7 0 -23 3.5t-26 3.5q0 2 -6.5 9.5t-6.5 16.5q0 7 6 9t6 9v197q0 1 -4 33q-3 27 0 39q2 9 17.5 38t15.5 37q0 13 -34 57q-39 52 -40 53q-3 5 -17 50q-10 32 -34 55
t-50 47q-34 34 -47 54q52 41 104 81q40 27 99 27h30q10 -43 25 -66q13 -19 43 -31q4 -28 56 -76q44 -39 90 -67q51 59 101 118q61 71 97 122q24 -7 45 -35q26 -37 53 -73zM725 68q0 -8 -9 -30q-10 -28 -12 -37q-5 17 -1 50q-1 1 -7.5 3.5t-6.5 10.5q0 15 15 44q3 -6 -3 -11
q24 -12 24 -30zM34 539l-21 -18q0 6 -13 34q14 0 34 -16zM24 502l-6 -6l-14 15l6 6zM449 -48h-16v10h16v-10zM426 -38q-36 8 -93 5q3 5 7 10.5t13 5.5t33 -8q33 -11 40 -13zM315 -43q-6 -2 -22.5 -10t-22.5 -11q-1 5 -7 15q12 6 52 6z" />
    <glyph glyph-name="Z" unicode="Z" horiz-adv-x="940" 
d="M700 732q-3 -5 -11 -15q-8 0 -18.5 3t-12.5 3q8 6 20 30h22v-21zM890 655q-19 -22 -52 -70.5t-52 -70.5q-32 -24 -90 -84q-11 -24 -35 -69q-22 -20 -57 -65q-20 -44 -63 -130q-3 0 -16.5 2.5t-18.5 2.5q31 47 86 137q1 2 25 64q19 51 43 80q32 25 90 83q7 9 36 69
q22 44 51 62q2 -3 4.5 -7.5t5.5 -6.5q-1 0 11 1.5t32 1.5zM842 43q-1 -5 -22 -32q14 -13 14 -25h-41q7 8 15 8q2 5 2 10q0 7 -13 30q3 3 13 15t15 17q-37 25 -37 33q0 6 12 17.5t21 11.5q3 5 -1 14.5t-4 13.5q0 7 6 11t11 8q0 2 9 -25q1 -7 0 -11q-2 -2 -7 -9q-3 -17 -3 -25
q0 -7 3.5 -7t3.5 -2q0 -5 -5.5 -6.5t-5.5 -8.5q0 -5 3.5 -13t10.5 -25zM673 204l-11 -12l-5 5l12 11zM825 677q-36 -33 -54 -70q-24 -51 -32 -61.5t-46 -44.5t-53 -53t-31 -62q-22 -57 -31 -76q-14 -27 -47 -72q-38 -53 -49 -71q0 -5 17 -9q13 -4 51 -18q33 -11 39 -11
q9 0 57 7q54 9 84 17q2 0 28 27q22 -22 44 -30q-3 -5 -18 -23q-10 -11 -10 -31q0 -19 28 -29q-15 -19 -15 -43q0 -12 5 -19q-1 0 -5 -3t-11 -3q-12 0 -37 37q-6 -6 -27 -37l-211 46q-54 -9 -95 -41q-60 41 -83 41q-6 0 -12.5 -6t-10.5 -6q-72 -11 -158 -11q-4 0 -17.5 4.5
t-21.5 4.5q-5 0 -33 -11.5t-34 -11.5q-9 0 -35 26q85 40 150 177q16 16 48 51q10 21 36 54q46 38 85 96q64 97 65 99q-3 4 -30.5 12t-36.5 8q-6 0 -27 -8q-27 -12 -32 -13q-9 -3 -63 -9q-42 -4 -63 -21q-11 10 -24 30q-2 29 -15 83q55 49 67 49q6 0 31 -16t31 -16t19.5 7.5
t19.5 9.5t45 2q5 0 34 -2.5t35 -2.5q-13 0 113 21q44 1 129 12l34 17q29 15 41 15q5 0 27.5 -7t28.5 -7q5 0 7.5 2.5t8.5 2.5q7 0 21 -14q13 11 17 32zM764 -19q-10 6 -41 6q6 8 17 26q4 -11 24 -32zM361 508l-14 -27q-5 1 -22 11q-14 7 -21 7q2 0 -105 -29q-2 -1 -21 -31
q1 8 -15 24v17q36 4 99 15q7 2 30 13q20 9 26 9t21 -4.5t22 -4.5zM75 572q-11 -13 -31 -31v50q2 -1 14 -10t17 -9zM93 509h-17q-10 20 -10 27t9 14q6 5 12 9zM251 376q-38 -9 -56 -9q5 -1 15 6q14 10 15 10zM686 -8q-36 0 -109 8q-4 1 -14 7t-16 6t-46.5 -11.5t-45.5 -11.5
t-16.5 3t-16.5 3q12 11 41 22q19 6 38 13zM187 383l-14 -6v7l11 6zM367 11q-73 -21 -107 -21q-4 0 -22 2t-24 2t-64 -13.5t-63 -13.5q-22 0 -49 23q46 23 72 23q5 0 21.5 -2.5t22.5 -2.5q48 0 132 6q6 1 21.5 7t19.5 6q7 0 19 -7q16 -8 21 -9zM216 -151l-9 -17l-6 3l8 16z
" />
    <glyph glyph-name="grave" unicode="`" horiz-adv-x="909" 
d="M406 1038q-1 -1 -2 -4.5t-5 -3.5q-5 0 -16.5 18t-13.5 18q-4 0 -6 -1t-3 -1q1 5 3 18q5 -8 10 -8l8 2q-1 -3 3.5 -19t9 -16t8 -1.5t4.5 -1.5zM697 727h-5v10h5v-10zM693 748q0 -2 -1.5 -5.5t-1.5 -4.5q-2 1 -6 1.5t-4 1.5q-7 6 -8 17q-26 29 -47 38q6 0 8 3q-3 3 -9 5
q0 18 -8 18q-3 0 -6 -3q-20 27 -27 34q-14 14 -35 21q0 3 -3 6q-10 2 -21.5 11.5t-32.5 21.5h20q1 -7 5 -9.5t8 -4.5q0 -4 6 -12q19 -3 28 -11t12 -8l5 3q3 0 7 -9.5t7 -9.5q2 0 2 5q7 -29 31 -31q20 -26 21 -26q4 0 5 1l1 1q2 -4 1 -13q22 2 24 -33q7 -1 19 -8zM492 917
q-1 0 -4.5 -1.5t-5.5 -1.5v5q-5 6 -14 8h12q7 1 12 -10zM438 953q-3 0 -5 -3q5 -4 5 -6q-10 9 -10 13q6 0 10 -4zM620 780q-8 -1 -18.5 4t-10.5 14q-3 -2 -5.5 -3.5t-5.5 -2.5q-3 11 -22 13q-15 0 -30 1v9q-2 0 -7 4q-2 -2 -2 -8q-7 4 -18 0q0 4 5 9q-10 1 -31.5 8t-23.5 7
q-4 0 -6.5 -1t-3.5 -1v9q-2 1 -5 1q-6 0 -6 -5h-10q-3 16 -11 16q-3 0 -10 -2q-6 -2 -9 0q-13 5 -34 19q-7 -2 -19 -6q-7 7 -2 12q-7 4 -23 7l-8 8q-1 0 -2.5 1.5t-4.5 1.5t-35 6q0 5 1 19h-14.5h-15.5l5 6q-4 10 -11 13q3 5 7 11.5t8 6.5q2 0 8 -5q6 17 21 20.5t28 6.5
q5 -11 19 -11q3 0 8.5 1.5t8.5 1.5t18 -6t21 -6q8 -15 22 -15q4 0 3 1t3 1q3 0 0 -2q-2 -3 1 -3q8 0 19 5q-4 -12 10 -16l18 -4q2 -3 6 -8q-5 -1 7 -1q3 0 3 5q8 -7 18 -22q5 0 9 1.5l4 1.5q6 -5 20 -21q3 -5 15 -7q3 -15 11 -15l11 5l8 -8q1 0 1 -4t4 -4t5.5 1t3.5 1
q-1 -3 -1 -6q0 -9 11 -16q7 -4 15 -9q-7 -5 -6 -12q5 -1 13 -8q8 8 8 6q-2 -5 4 -26zM257 775l-6 -3t-5 -3q2 -2 8 -2q-1 -2 -3 -5.5t-3 -4.5q-3 0 -16 12l10 9q2 2 7 0q6 -3 8 -3zM515 823l-4 2l-3 -7l4 -2z" />
    <glyph glyph-name="a" unicode="a" horiz-adv-x="670" 
d="M562 177q0 -10 -68 -88q-71 -80 -87 -80q-11 0 -33 24q-31 34 -45 44q-31 24 -67 24q-55 0 -118 -9q-26 -4 -48 -39q-18 -32 -15 -50h-22q-31 -1 -70 31l245 613q32 4 42 -14l54 -106q36 -69 82 -138q41 -50 82 -101q68 -85 68 -111zM417 658q-11 -13 -39 -1q2 5 11 17
q0 -4 9.5 -8t18.5 -8zM309 658v0v0v0zM568 338q-45 38 -45 60l8 19q38 -19 37 -35v-44zM505 399h-10l-8 15l10 4zM233 235q-31 -17 -56 -7q10 32 26 90q6 -13 14.5 -41.5t15.5 -41.5zM419 -58l-8 -26l-9 4l8 22h9zM265 -26q-17 0 -17 -24q6 6 17 24zM312 57q-24 24 -40 24
q-114 0 -148 -22q-9 -6 -18 -47q-8 -36 -25 -36q-16 0 -36 10q4 -2 18 -14q10 -9 18 -9h56q10 0 14.5 4.5t3.5 4.5q-7 3 -7 14q0 29 20 50.5t68 21.5q75 -1 76 -1zM259 201v36q0 8 -15 52q-17 48 -20 69q-18 -11 -42 -35q-10 -34 -35 -101q12 -7 23 -14q15 -8 23 -8
q4 0 20.5 -1t25.5 -1q13 0 20 3zM635 150q-77 -102 -180 -187q-9 0 -31 23q3 4 90 93q75 76 75 98q0 23 -156 215q-6 18 -24 53q-81 101 -103 182h24q35 -67 69 -135q43 -82 79 -135q57 -73 157 -207z" />
    <glyph glyph-name="b" unicode="b" horiz-adv-x="604" 
d="M551 557q0 -7 -41 -52q-33 -37 -67 -74q4 0 -31 19l60 78q34 45 34 54q0 21 -32 94q20 -5 48 -44q29 -42 29 -75zM577 174q-4 5 -7 14q-2 10 2 14q0 -6 2.5 -15.5t2.5 -12.5zM495 300q0 -7 -18 -38q-30 -48 -35 -58q-71 -30 -98 -30q-7 0 -85 11.5t-85 11.5
q-6 0 -32 -11.5t-32 -11.5q-33 0 -95 13q11 57 11 110q0 5 -8.5 18t-8.5 19l6 346q0 4 -11 53q8 10 20 10q8 0 20.5 -5t16.5 -5q29 4 57 8q40 6 73 3q5 0 14 -5.5t17 -5.5q7 0 19.5 8.5t19.5 8.5t30 -10q33 -15 40 -17q26 -2 73 -9q13 -4 48 -51q38 -51 38 -78q0 -8 -41 -60
q-52 -66 -66 -86q0 -13 12 -13q7 0 5.5 2.5t5.5 2.5q8 0 29.5 -19.5t30 -32.5t19 -41t10.5 -38zM-25 706q-11 -11 -20 -11v43q23 -22 20 -32zM534 314q0 -42 -4 -59q-9 -37 -40 -45q2 -3 7.5 -5t8.5 -4q1 -17 -14 -36q-13 -3 -62 -18q-41 -12 -49 -12q-7 0 -66 8.5t-65 8.5
q-7 0 -47 -5.5t-46 -5.5t-13 5.5t-15 5.5q-7 0 -22 -8.5t-22 -8.5t-19 8q-16 11 -18 12q153 19 137 19l159 -16q23 0 53 7q34 9 49 21q24 20 47 63q19 37 19 51q0 6 -17 47q-21 49 -38 66q35 -23 70 -47q7 -8 7 -52zM323 79l-17 -7v8l13 7zM523 -37q-4 -1 -32 -14
q-21 -9 -29 -9q-7 0 -29 7t-30 7q-79 8 -109 8q-22 0 -27 -1q-15 -4 -19 -21q-14 7 -36 14q-9 0 -152 5q11 2 60 12q38 8 46 8q7 0 12.5 -8.5t12.5 -8.5q11 0 16 14q8 3 34 3q21 0 112 -8q7 -1 30.5 -8t30.5 -7q13 0 61 24q20 10 20 41q0 7 -22 29l42 -4q-7 0 -6 -11
q2 -16 1.5 -18.5t6 -6t6.5 -11.5v-36zM473 9q-3 -4 -9 -13q-3 -1 -25 -13q-18 -10 -25 -10q-6 0 -24 7t-26 8q-73 8 -117 8q-7 0 -29.5 -6t-29.5 -6t-12.5 6t-12.5 6q-6 0 -54 -7q-57 -7 -82 -10q0 6 -6 32q-8 30 -11 50q21 -3 60 -1q53 3 45 3q7 0 51 -4q52 -3 70 -4
q6 -8 17 -20q78 39 128 39q35 0 61.5 -18.5t30.5 -46.5zM338 -102h-26v10h26v-10zM110 -112q-11 -11 -22 0h22zM417 579q0 30 -55 55q-44 21 -65 21q-15 0 -29 -40q-13 -35 -13 -58q0 -8 10 -29q12 -25 14 -29q8 0 28.5 -3t25.5 -3q24 0 54 34t30 52zM434 328
q0 10 -35.5 42.5t-45.5 32.5q-30 0 -57 -13q-7 -8 -18 -22v-126q6 -2 27 -13q18 -10 26 -10q6 0 5 3t6 3q8 0 13 -6t9 -11q17 11 39 30q11 17 22 50q9 30 9 40zM344 625q-29 -16 -33 -51q-1 -29 -1 -58q-18 0 -28 15t-10 34q0 6 3 29t3 32q2 0 6.5 6t12.5 6q7 0 23 -6.5
t24 -6.5zM383 360q-26 2 -37 -19q-7 -13 -10.5 -47.5t-9.5 -46.5q-1 0 -13 3t-18 3q0 5 -3 17t-3 19t5 17q8 14 9 16q-9 29 -7 40q1 3 18 19q11 -11 19 -11q9 0 12.5 5.5t6.5 10.5q5 0 31 -26z" />
    <glyph glyph-name="c" unicode="c" horiz-adv-x="711" 
d="M651 510q-10 -19 -38 -56q0 28 23 64q5 -1 15 -8zM628 547q0 -10 -26 -49.5t-50 -64.5q-13 -14 -46 -14q-8 0 -22 4.5t-19 4.5q16 1 32 17q35 37 43 43q-5 -7 -5 -13q4 -4 15 -4q17 0 33 21.5t16 39.5q0 16 -21 28q-2 22 -3 45q-6 32 -40 50q25 5 59 -41.5t34 -66.5z
M287 461l-15 -14l-6 6l15 14zM367 579q-7 2 -14 2q-35 0 -127 -71q-22 -12 -22 -88q0 -143 52 -150q-58 30 -77 53q-16 19 -15 48v23q12 -23 25 -29q1 1 7 2q2 1 2 9q0 35 -15 35h-9q-2 -5 -2 -6q-15 14 -15 35q0 29 20 63q6 11 59 55.5t64 44.5q7 0 25.5 -13t41.5 -13z
M558 582q0 -26 -37 -80t-56 -54q-6 0 -34 10q-32 12 -41 15v55q7 4 20 13q14 -9 46 -29q4 3 4 23q0 48 -56 61q-29 3 -59 5q-2 1 -19.5 11.5t-25.5 10.5q-30 0 -95 -67q-62 -63 -64 -82q0 -4 -3.5 -15t-3.5 -20q0 -82 19 -114q25 -46 136 -91q32 -13 92 -13q7 0 19 6t19 6
q6 0 12.5 -8.5t13.5 -8.5q8 0 32 12q28 14 39 16q16 -35 42 -73q-17 -8 -56.5 -26.5t-56.5 -27.5q-4 5 -9 11t-14 6q-6 0 -56 -11.5t-58 -11.5q-28 0 -103 47q-41 28 -81 56q-23 4 -65 27q-37 38 -46 88q-7 42 -7 102q0 74 7 108q13 56 140 156q32 26 86 26q7 0 81 -14.5
t81 -14.5t16.5 6t15.5 6q9 0 51 -30.5t66 -53.5q8 -9 8 -38zM611 137q-13 -13 -60 -33q-52 -22 -77 -22q-8 0 -16 4t-10 4q17 15 80 41q48 19 48 41q0 8 -23 48q25 5 58 -83zM240 350h-8l-7 20l8 3zM436 104q-7 -20 -60 -34q-4 3 -9 -2q17 -14 22 -34q-30 0 -37 23
q-8 27 -32 34q6 1 46 9q32 6 49 6q13 0 21 -2zM610 -26q0 -8 -6.5 -23.5t-6.5 -25.5q0 -11 7 -22v-12q-87 4 -261 14q18 0 58.5 7t46.5 7q7 0 39.5 -8.5t38.5 -8.5q21 0 44 15q-9 37 1 77h39v-20zM206 126l-8 -16l-8 4l7 15zM110 196h-16v10h16v-10zM553 10q-1 4 -8 -53
q2 -7 1 -20v-11q-2 0 -6.5 -3.5t-13.5 -3.5q-7 0 -37.5 11.5t-37.5 11.5t-53.5 -8.5t-54.5 -8.5q-6 0 -32 8.5t-32 8.5q-7 0 -87 -17t-87 -17q-32 0 -62.5 19t-30.5 39q0 8 3.5 17t3.5 11q30 -5 115 -24q71 -16 79 -16q6 0 32 12.5t37 14.5q53 11 150 25q87 12 101 12h13z
M390 -123q-5 -6 -10 -13q-8 -9 -17 -8h-42l6 21h63zM279 -109q-21 -3 -71 -14q-44 -10 -51 -10q-11 0 -98 33q46 -16 49 -16q7 0 72.5 17.5t73.5 17.5h25v-28zM143 -180q5 0 3 -8q-2 -9 -12 -9t-16 8t-6 14z" />
    <glyph glyph-name="d" unicode="d" horiz-adv-x="832" 
d="M741 757q0 -11 -3 -41.5t-3 -46.5q-24 0 -79.5 -6.5t-59.5 -6.5q-5 0 -39 11t-48 10q13 0 98 19q6 1 20 -1q18 -3 23 -3h50q-8 32 2 72q14 -8 39 -7zM796 523q0 -3 -3.5 -11t-3.5 -10q-10 0 -24 2.5t-16 2.5q0 3 3 14.5t3 14.5q16 0 41 -13zM532 615q-11 0 -41 15
q1 0 15.5 3.5t25.5 3.5v-22zM675 711q-10 5 -44 5q-7 0 -55 -9t-55 -9q-8 0 -74 15t-73 15q-6 0 -68 -9t-70 -9q-6 0 -39 3t-42 3q-7 0 -56.5 -9t-56.5 -9q-17 0 -25 20q-5 12 -5 22q0 8 3.5 22t3.5 19q86 -17 95 -17q7 0 40 15t76 15q8 0 48.5 -6t47.5 -6q6 0 27.5 9
t29.5 9q7 0 22 -12t23 -12q-1 0 98 0q99 -1 149 -1v-64zM520 570h-28v11h28v-11zM479 682q-33 7 -63 7q-31 0 -76.5 -10.5t-70.5 -10.5q-36 0 -197 15q49 15 86 15q8 0 35 -6t34 -6q8 0 72.5 12t71.5 12q25 0 108 -28zM706 -39q0 -16 -27 -29q-8 7 -14 7q0 4 19 22h22z
M748 195q0 -70 -76 -135q-61 -52 -155 -90q-81 -32 -122 -32q-67 0 -111 7q-14 3 -57 14q-36 9 -45 9q-6 0 -40 -6t-40 -6q-8 0 -19 8q-14 12 -17 13q17 0 52 4.5t40 4.5q47 0 88.5 -15t58.5 -15q60 0 128 19q21 6 179 84q21 10 60.5 75.5t39.5 87.5q0 29 -27 131
q-28 108 -44 122q38 -15 45 -30q23 -48 30 -78q32 -145 32 -172zM694 222q0 -13 -28 -66q-32 -60 -57 -78q-56 -43 -180 -85q-1 0 -67 -2q-10 -1 -16.5 -1.5t-21 -8t-22.5 -7.5q3 0 -46 15t-104 15q-6 0 -41 -3t-42 -3q-43 0 -43 62q0 27 8 71q8 40 8 43q-19 99 -18 196
q-6 4 -19 2q-20 -3 -21 -3q-13 11 -1 35q2 0 12.5 -6t17.5 -6q6 57 24 174q30 6 92 6q115 0 250 -18q126 -17 182 -38q25 -9 53.5 -42t35.5 -59q44 -156 44 -193zM587 276q0 40 -1.5 46t-19.5 70q-36 29 -63.5 39.5t-74 22t-57.5 11.5q-8 0 -25 -3.5t-22 -3.5v-103
q-1 -7 11 -29t12 -29t-18 -92.5t-18 -93.5q0 -15 44 -59q7 2 27 14q17 10 25 10q9 0 30 -6t27 -6q11 0 56 53.5t64 91.5q5 9 5 24q1 10 -0.5 26t-1.5 17zM496 409h-16v10h16v-10zM538 244q-23 0 -23 11q0 9 4 12.5t4 5.5q15 -15 15 -29zM473 420q-5 0 -18.5 1.5t-20.5 1.5
q-29 0 -50 -22q0 -28 5 -83q6 -58 6 -86q0 -21 -2 -40q-9 -42 -24 -116q-34 15 -34 56q0 8 15 83t15 82t-12 32t-11 32v79q5 0 16.5 3.5t18.5 3.5q8 0 42 -12q40 -13 54 -15z" />
    <glyph glyph-name="e" unicode="e" horiz-adv-x="594" 
d="M552 572q0 -6 -6.5 -40t-6.5 -48q-7 -2 -76 16q31 -6 41 30q7 23 5 61q2 -1 26 -6q17 -4 17 -13zM519 457q0 -11 -26 -37h-23q-2 23 20 44q3 0 14.5 -3.5t14.5 -3.5zM452 479l-15 -23l-9 6l15 23zM443 506q-23 -16 -72 -19q-13 -8 -27.5 -47t-14.5 -68q0 -24 25 -60h-30
q-40 78 -40 85q0 14 35 109q2 0 24 5q19 4 27 4q7 0 33 -4.5t40 -4.5zM635 135l-16 -15l-15 14v23q20 0 31 -22zM552 218q0 -13 -29 -52q-46 -7 -145 -29q-10 -3 -17.5 -14.5t-7.5 -21.5q-43 0 -43 19q0 7 3.5 22t3.5 21q17 6 53 6h19.5h19.5q46 0 66 11q30 14 30 55
q0 14 -3 30h50v-47zM488 46q0 -13 -24 -22q-17 -6 -27 -6q-8 0 -143.5 3t-143.5 3q-7 0 -25 -6.5t-26 -6.5q1 0 -82 21l32 104q6 23 6 82q0 23 -18 115q-6 33 -8 91q-2 41 -1 93q1 74 1 52q0 9 14 28.5t28 19.5q8 0 30 -6.5t30 -6.5t27 6.5t27 6.5t51 -9.5t51 -9.5
q7 0 28.5 9.5t29.5 9.5t32 -9.5t32 -9.5q6 0 17 6.5t21 6.5q7 0 17 -3.5t17 -3.5q10 -41 -1 -82q-76 12 -110 12q-35 0 -49 -8q-19 -11 -39 -66q-17 -48 -17 -66q0 -13 56 -101q53 -2 160 -15q0 -2 3.5 -8.5t3.5 -15.5q0 -37 -22 -50q-16 -10 -53 -10q-5 0 -16 1h-16
q-40 0 -58 -12q-26 -16 -26 -60q0 -27 36 -43q28 -11 53 -11q7 0 33 12.5t34 12.5q15 0 25 -18.5t10 -29.5zM545 -1q-42 -26 -66 -26q-6 0 -30.5 8.5t-39.5 8.5q-8 0 -136 -5q-120 -5 -184 -4q-8 5 -21 15q20 2 242 2q6 0 32.5 -1t43.5 -1q120 0 120 50q0 10 -4 22h23
q20 -30 20 -69zM99 -102q-12 -7 -18 -7q0 24 10 24q8 -11 8 -17z" />
    <glyph glyph-name="f" unicode="f" horiz-adv-x="736" 
d="M658 521q1 -19 -20 -36.5t-38 -17.5q-8 0 -45.5 13t-46.5 13q-10 0 -55 -12q-48 -13 -71 -23l-11 -12t-19 -12q-10 0 -28 12q-24 17 -25 18q10 2 31 16t31 17q60 15 89 15q8 0 48.5 -9.5t49.5 -9.5q30 0 50 18t20 43q0 11 -4 22q1 0 17 3.5t27 3.5v-62zM142 671
q-14 -6 -78 -6q23 13 62 37q16 -16 16 -31zM71 708l-19 -8v9l16 8zM574 104q-3 -3 -15.5 -11t-15.5 -12q0 2 -4 17.5t-4 27.5h25q0 -8 14 -22zM504 138l-8 -6l-9 9l7 7zM462 161q-5 -1 -17 -8q0 3 4 14.5t4 14.5q0 -3 4.5 -10.5t4.5 -10.5zM620 375q0 -8 -8 -34
q-12 -37 -13 -44h-178q-17 0 -65 -12.5t-57 -18.5q-2 -8 3 -22q8 -20 8 -22q4 -24 2 -79t2 -78q5 -30 31 -80q-11 0 -34.5 2.5t-30.5 2.5q-8 0 -70.5 -10t-71.5 -10h-132q-1 21 9 79t10 62v332q0 6 -13 25.5t-13 28.5v80q18 3 72 16q47 11 55 11t85 -3.5t85 -3.5
q7 0 33.5 10t35.5 10q7 0 24.5 -4.5t24.5 -4.5q-5 0 138 -5h41v-62q-15 -22 -58 -22q-9 0 -44.5 6.5t-44.5 6.5q-44 0 -96 -18.5t-77 -44.5q10 -25 51 -46.5t73 -21.5q139 0 208 -7l10 -6t5 -13zM685 336q0 -40 -41 -77q-190 -21 -227 -21q-7 0 -20.5 3.5t-19.5 3.5
q3 -24 1 -69q-2 -65 -2 -76q0 -34 3 -61q13 -32 31 -94q-130 -14 -189 -14q-15 0 -36 19q-1 -1 -5.5 -13.5t-14.5 -12.5q-15 0 -114 17q34 3 131 17q87 12 94 12t32 -6.5t34 -6.5q12 0 29 17q-32 56 -32 127v28q1 19 1 28q0 56 -21 99q82 21 157 21q7 0 26 -3t26 -3
q45 0 68.5 8t33.5 42q-2 10 -2 26q12 16 12 27h30q15 -28 15 -38zM-45 363h-11v24h11v-24zM286 -125q-3 0 -15.5 -7.5t-15.5 -7.5v45q12 -29 31 -30z" />
    <glyph glyph-name="g" unicode="g" horiz-adv-x="616" 
d="M554 746q-6 -42 -6 -109q-3 0 -13 4t-12 5h16q1 5 1 11q0 10 -4 28.5t-4 24.5v42q3 0 11 -3t11 -3zM396 762h-27v10h27v-10zM449 651h-51v10h51v-10zM519 666q-79 7 -225 30q-11 2 -35 20.5t-32 18.5q-7 0 -84.5 -23t-84.5 -23q-6 0 -17.5 3t-16.5 3q0 2 -3.5 8t-3.5 15
q0 25 48 41q36 11 63 11q7 0 146 -14.5t146 -14.5q27 0 53 12l15 -12q3 4 3 17h28q-8 -36 0 -92zM285 654q-26 0 -52 10h31q2 7 4 21v0v0q0 -3 11 3q0 -2 3 -14.5t3 -19.5zM240 689l-4 -8l-19 7v8zM471 513q-7 -26 -13 -52q-10 -34 -41 -41q-8 7 -14 7q29 39 49 98l13 -12h6
zM204 704q-90 -45 -117 -45q-7 0 -18 4.5t-17 4.5q53 9 152 36zM555 205q-28 0 -29 1l14 15zM387 315h-10v28h10v-28zM124 562l-20 -27l-7 6l19 26zM353 446q-26 9 -50 9q-6 0 -60 -44q-63 -52 -85 -66q-7 -37 -7 -39q0 -12 7 -55t7 -68q0 -10 7 -30q7 -16 13 -32
q-13 21 -32 55q1 9 0 30q-2 19 -14 61q-11 38 -11 45v48q7 2 78 53q65 47 92 47q11 0 55 -14zM479 -6q-14 -3 -53.5 -22.5t-116.5 -19.5q-6 0 -43 3q-41 3 -60 4q-6 5 -18 14q-50 13 -115 130q-62 110 -62 162q0 82 8 106q23 74 89.5 131.5t133.5 57.5q7 0 13.5 -3t12.5 -3
q7 0 13.5 11.5t13.5 11.5q39 0 76 -17q27 -15 55 -31q0 -11 -16 -45.5t-22 -34.5q-7 0 -42 17.5t-43 17.5q-39 0 -102.5 -52.5t-69.5 -52.5q-8 0 -11 3t-5 3q-5 -8 -5 -41q0 -13 8 -72q9 -66 17 -99t29 -59q35 -42 89 -51l10 5q1 104 -6 175q9 13 53 22q37 8 64 8
q6 0 27.5 -3t28.5 -3h25q14 -82 10 -137t-10 -100q0 -6 9 -18q13 -15 15 -18zM531 -23q-45 -19 -91 -39q-53 -21 -84 -21q-19 0 -64 15q58 0 127 17q83 20 83 50q0 12 -27 30v243h26q0 -39 7 -129q7 -95 7 -146q9 -12 16 -20zM273 -74h-21v10h21v-10zM219 -72l-12 9
q13 -2 13 -6q0 -2 -1 -3zM127 -84q0 -14 -3 -26.5l-3 -12.5q-3 0 -14 6t-14 6q8 14 34 27z" />
    <glyph glyph-name="h" unicode="h" horiz-adv-x="640" 
d="M598 731q0 -18 -27 -71q-110 18 -120 18q-51 0 -61 -16q-11 -2 -16 -2q0 21 -4 21q29 0 92 -1.5t67 -1.5q29 0 42 42q15 50 18 52q9 -15 9 -41zM560 770q-4 -6 -10 -32.5t-17 -40.5q-134 13 -204 13q8 0 -34.5 -3.5t-130.5 -3.5q-9 -2 -40 -11q-24 -7 -32 -7t-27 10
q-22 14 -29 16q13 54 26 79q11 0 46.5 3.5t42.5 3.5q9 0 58 -17q62 -22 79 -27q7 7 13 22q26 1 87 6q56 4 63 4q32 0 109 -15zM340 676h-35v11h35v-11zM636 303l-18 -8v9l14 8zM328 607h-23v11h23v-11zM173 678l-43 -14v9l40 14zM591 -64q-111 -12 -174 -4q6 -1 27 1t28 2
q70 0 82 15q-19 210 -19 220v161q0 4 10 83q10 84 13 124q1 9 -3 28.5t-4 24.5q-1 -7 11.5 -21t14.5 -19q2 -11 2 -48q0 -8 -15.5 -145.5t-15.5 -144.5q0 -34 26 -231q2 -17 17 -46zM648 77l-16 -17q-8 11 -8 17h24zM303 261l-23 -7q0 60 -13 183q5 147 11 147zM653 3
q0 -23 -7 -37q-10 7 -16 7q2 20 23 30zM542 550q0 -28 -18 -94q-15 -57 -15 -134q0 -53 10 -154t9 -142v-71q-74 10 -142 -1q10 57 10 91q0 83 -45 83q-6 0 -18.5 -12.5t-25.5 -12.5q-8 0 -11 3.5t-11 3.5q-54 0 -54 -48q0 -11 3 -34t3 -34q0 -13 -3 -21q-24 0 -88 -13
t-67 -13q-9 0 -18.5 3.5t-11.5 3.5q1 41 1 90q0 266 -21 521q4 6 14 17q79 15 183 15q9 0 14 -3.5t7 -3.5q0 -16 -2.5 -54.5t-2.5 -44.5q0 -4 8 -53.5t8 -74.5q0 -9 -2 -30.5t-2 -33.5q0 -38 17 -65q12 0 27 3.5t22 3.5q19 0 37 -19q18 14 20 28q7 62 15 138v196
q30 -6 83 -18l12 12h41q0 -3 7 -11t7 -17zM16 393q-2 -2 -20 -2q-7 -7 -7 -25q-10 1 -10 15q0 9 14 25t14 22zM373 87q-16 -15 -28 -15q-8 0 -14.5 3t-13.5 3q-16 0 -37 -23q0 -10 -4 -51q-4 -35 -4 -56q-62 -5 -190 -24q54 13 82 19q51 9 91 9q4 23 2 61q-2 65 -2 71
q7 -1 24 0q21 1 28.5 1t23.5 6q22 10 27 12zM20 97q4 -4 0 -15q-3 -10 -8 -10q-8 11 -8 17q7 3 16 8z" />
    <glyph glyph-name="i" unicode="i" horiz-adv-x="292" 
d="M46 748q0 -6 -2.5 -12t-2.5 -10q-6 0 -16 -11q-12 12 -12 17q0 6 6 16q10 14 10 15q1 -1 9 -4t8 -11zM157 623q-2 -1 -8.5 -10.5t-11.5 -14.5q0 6 20 25zM13 761q-3 -2 -8.5 -11t-8.5 -11l-11 13q2 0 12 4.5t16 4.5zM261 272l-12 11l7 55q0 -9 2.5 -32.5t2.5 -33.5z
M232 301h-9v22h9v-22zM234 505q0 -5 -8 -28t-9 -33q-1 -49 -5 -150l6 -6q6 -134 0 -175q-15 -11 -39 -11q-7 0 -15 8q4 0 17.5 3t20.5 3q4 20 1 83q-2 28 -7 93q-4 57 -4 63q0 3 11 77q11 79 13 118h18v-45zM201 538q0 -5 -5 -40q-6 -39 -7 -59q-1 -6 -6 -52q-4 -36 -4 -56
q0 -23 5 -88q5 -80 6 -106q-20 -16 -43 -16q9 0 -124 15v437q6 -7 14 -7q5 0 15 3.5t15 4t19 0.5q6 0 47 -9.5t47 -9.5q7 0 13.5 2t7.5 2v-21zM228 65q-13 13 -4 13q4 -9 4 -13zM173 63h-23v8h23v-8zM145 104q-66 -1 -98 2v10q78 -7 98 -12zM263 -27q-13 -10 -13 -28
q0 -7 3 -16q-41 -15 -54 -15h-20l-10 13q8 -9 26 -9q20 0 38 28q8 11 8 62q22 -22 22 -35zM225 -18q0 -16 -10.5 -30.5t-22.5 -14.5q-6 0 -28.5 5t-27.5 5q-29 0 -98 -14q-6 11 -9 32q-6 31 -6 33q5 0 16 -2t16 -2q6 0 13.5 5.5t12.5 6.5q60 11 121 11q23 0 23 -35z
M178 -102q-5 -14 -18 -36q0 1 -3 19q-4 15 -1 23q6 -6 22 -6zM119 -75q-3 0 -7.5 -6t-4.5 -9h-32q0 11 -8 11q7 0 24.5 2t27.5 2zM7 -53q-7 0 -17 -9q3 7 6 25.5t5 25.5q6 -13 6 -42zM-19 -7l-5 -18l-7 2l6 16h6z" />
    <glyph glyph-name="j" unicode="j" horiz-adv-x="580" 
d="M536 710q0 -9 -8 -32q-9 -26 -20 -39q-7 -2 -15 -2q2 0 -21 2q-16 1 -24 -2q-6 10 -6 15q18 0 28.5 -2.5t15.5 -2.5q6 0 29 19q-11 25 -11 29q0 10 18 47q14 -30 14 -32zM498 736q3 -12 -14 -29q-1 -6 1 -21t2 -22q-54 10 -101 10q-6 0 -36.5 -13.5t-37.5 -13.5
q-6 0 -23 9q-20 11 -26 13v73q15 -5 54 -5q7 0 24 5t23 5t21 -2.5t22 -2.5q4 0 20 8t24 8q14 0 47 -22zM410 653l-3 -8l-14 7l3 8zM436 608q0 -8 -8 -21q-6 -9 -11 -19q0 -3 -3 29q-1 20 2 34l12 -8q8 -7 8 -15zM395 622h-9v14h9v-14zM369 652q10 0 -3 -25q-8 0 -21 3.5
t-17 3.5q14 0 41 18zM246 713q-7 -10 -30 -50v23q-1 5 17 40zM289 640l-5 -5l-8 8l6 6zM530 476q0 -16 -9.5 -33t-9.5 -25q-1 -8 2 -22q3 -17 3 -25q0 -56 -5 -132q0 -62 -9 -181q-14 14 -14 24v310q0 7 6.5 15.5t7.5 11.5t-3 11.5t-4 14.5t6 16.5t6 15.5q1 13 1 27
q1 21 10 27q12 -33 12 -55zM232 485h-9l-5 40h9zM227 406h-9v14h9v-14zM525 36q-17 -49 -43 -94q-13 0 -25 13q15 32 49 87q7 -6 19 -6zM488 510q3 -41 -12 -66q-4 -71 -4 -225v-149q0 -11 11 -21q-15 0 -21.5 -15t-12.5 -31q11 -7 0 -29q-3 2 -11 7.5t-10 7.5
q-52 -62 -70 -72q-13 -6 -65 -6q-6 0 -56 7.5t-57 7.5q-5 0 -10 -5t-13 -5q-10 0 -41 14q-34 16 -47 29q-20 20 -53 106q-7 17 -7 59q0 12 7 34q7 27 16 36q19 19 62 35q35 13 49 13q10 0 36.5 -28t32.5 -47q13 -39 13 -72q0 -34 -29 -48q-27 20 -60 28v29q16 8 42 31
q0 5 -5.5 11.5t-13.5 6.5q-22 0 -71 -30q20 -44 39 -89q37 -76 64 -76t56 23q26 21 29 38q17 119 17 247q0 6 -10.5 87t-10.5 86q0 6 5 19t4 18q-6 20 -2 43q10 18 25 18q7 0 10.5 -8t10.5 -8t13.5 5.5t12.5 5.5q7 0 24 -5.5t24 -5.5q6 0 24.5 8t25.5 8q6 0 20.5 -12.5
t18.5 -14.5zM104 392q-12 -11 -24 -45q-13 27 -13 32q0 19 24 26zM64 415l-7 -21l-7 3l6 18h8zM261 179l-25 7q13 13 25 13v-20zM251 156l-7 -61q-11 33 -22 100q8 -18 29 -39zM262 38q-15 -6 -40 -17l-13 13q13 25 40 34l13 -12v-18zM435 -183q-3 0 -13 3t-13 3q8 7 19 30z
M409 -151q-6 -6 -20 -6q0 3 3 13t3 12q14 -14 14 -19zM127 119l-7 -14l-7 3l6 13zM441 -56q-11 -6 -24.5 -22t-15.5 -25q-66 -18 -76 -18q-6 0 -20 5t-19 5q-7 0 -19 -5t-18 -5q-5 0 -33 8.5t-43 8.5q2 6 7 14q9 -1 45 -12q31 -9 40 -9q76 0 92.5 6.5t37.5 26.5q28 28 32 31
q4 -2 14 -9zM182 -15q-32 41 -39 73q5 -11 19 -37t20 -36z" />
    <glyph glyph-name="k" unicode="k" horiz-adv-x="832" 
d="M767 588q-72 -67 -143 -135q-132 -130 -132 -156q0 -9 25 -47q38 -56 40 -60l-62 72q-37 44 -37 55q0 8 90 103q116 121 141 151q16 9 51 33q0 3 -2.5 13.5t-2.5 14.5q13 -6 32 -44zM474 514l-16 -24l-9 6l16 24zM264 652l-26 -8v9l23 8zM371 604q-22 -42 -22 -78
q0 -10 2 -31.5t1 -33.5q-1 -10 -3 -20q-2 -13 2 -21q-9 -8 -26 -8q1 8 -1.5 23.5t-2.5 18.5q0 7 2.5 24t2.5 26q0 26 -15 37q26 32 27 63h33zM787 55q0 -47 -35 -78q-19 -17 -82 -49h-30q0 3 -14 17q29 8 58 15q35 10 47 27q32 42 32 122l14 -26q10 -18 10 -28zM740 79
q0 -8 -23 -76q-63 -35 -91 -35q-9 0 -55 32l-76 56q-5 3 -12 20q-9 21 -20 34q-25 36 -51 73q-37 50 -71 67q-16 -5 -36 -45v-32q1 -13 -1 -42q-1 -32 -1 -47q0 -52 14 -79q-14 -24 -30 -24q-8 0 -48.5 13.5t-48.5 13.5q-3 0 -61 -6t-93 -6v471q0 6 7 39t7 59q0 12 -1 23
q0 15 -13 22q68 -11 97 -11q6 0 22.5 10t25.5 9h136v-30q0 -6 -13.5 -22t-13.5 -24t8.5 -16.5t9.5 -17.5q2 -18 0 -53q-3 -39 -3 -53q10 -18 26 -18q9 0 28 16q32 27 33 28q31 16 81 51q16 15 107 110q66 70 76 70q8 0 23.5 -7t25.5 -7q0 -2 4 -16t4 -22q-50 -46 -242 -238
q-33 -33 -33 -52q0 -41 120 -162q102 -103 131 -120q7 6 16 18.5t15 18.5q-3 7 -16.5 21t-16.5 21q15 -4 38 8q0 -7 7.5 -21t7.5 -22zM364 203q0 6 -8 -85t-8 -161q-10 -16 -24 -16q-7 0 -27 8t-27 9q2 0 10.5 -1t14.5 -1q33 0 40 36q2 13 -7 44t-9 41q0 8 4.5 22t4.5 20
q2 27 3 54q5 40 17 50q5 -3 10.5 -6.5t5.5 -13.5zM257 -35q-85 9 -195 -1q120 17 171 17q10 0 16 -8t8 -8z" />
    <glyph glyph-name="l" unicode="l" horiz-adv-x="639" 
d="M280 720h-9v20h9v-20zM530 261q-14 -27 -23 -36q-8 6 -13 6q9 19 36 30zM310 345q0 -4 -6.5 -55t-6.5 -76l-8 131q-3 31 -13 110q-9 70 -9 76q0 -5 17 80q3 0 13 -2.5t13 -2.5v-261zM585 174q0 -9 -8.5 -20t-8.5 -23q0 -17 11 -45q-30 -3 -78 -17l-13 15q5 -2 11 -2
q19 0 37 12t18 31q-6 13 -6 25q0 21 17 42q20 0 20 -18zM541 196q-11 -10 -11 -35q0 -19 6 -42q-35 -23 -59 -23q-6 0 -17.5 8t-18.5 8h-154q-7 0 -49 8t-49 8q-6 0 -66.5 -11t-67.5 -11q-27 0 -41 30q-10 23 -10 54q0 6 13.5 60t13.5 61l-27 293q0 40 43 40q5 0 27.5 -7
t34.5 -8q86 -6 158 -13q0 -11 -4.5 -38t-4.5 -39q0 -38 7.5 -117.5t7.5 -80.5v-139q25 -15 37 -15q7 0 34 8t34 8q5 0 28.5 -2.5t30.5 -2.5q6 0 18.5 5.5t18.5 5.5q16 0 67 -13zM585 -76q0 -7 -3.5 -16.5t-3.5 -15.5q-45 -2 -144 -10q29 20 54 20q5 0 13 -2.5t14 -2.5
q18 0 31 15t13 33q0 12 -6 20q2 0 9.5 3.5t10.5 3.5q12 -24 12 -48zM-1 418q0 -5 -14 -32q-19 38 -19 43q0 3 14 43q0 -1 11 -28q8 -18 8 -26zM449 -173q-14 0 -26 12q0 3 8 8.5t11 11.5q15 -15 7 -32zM246 104q-97 -12 -156 -6q91 13 156 6zM390 -111l-46 6v9l46 -5v-10z
M542 -58q0 -10 -8.5 -19.5t-18.5 -9.5q-7 0 -11 5.5t-11 5.5t-37.5 -13.5t-37.5 -13.5t-15 7q-12 10 -15.5 12t-28.5 2l-218 -16q-7 0 -35 3t-35 3q-25 0 -66 -11q1 30 -6 74q36 12 53 12q106 0 94 0q61 -3 87 -22q10 9 31 20q59 7 89 7q7 0 74 -13.5t74 -13.5q25 0 34 5
q0 -1 3.5 -8.5t3.5 -15.5zM133 -1l-15 -7v8l12 6zM90 52l-31 -12v8l28 12zM267 -110q-66 -20 -67 -20q-20 0 -89 14q24 0 72 3q44 4 50 3h34zM52 -115q-10 -5 -25 -15q5 15 7 15h18z" />
    <glyph glyph-name="m" unicode="m" horiz-adv-x="616" 
d="M304 -156l-22 -10v8l19 10zM615 407l-16 -12q12 22 12 49q4 -6 4 -37zM347 716q-3 -5 -20 -31q-9 -16 -17 -17q20 37 37 48zM565 146q-1 0 -22 -14q-15 -10 -25 -10q-7 0 -23 5.5t-22 5.5q-7 0 -36 -8t-36 -8q-10 0 -47 14q77 19 80 19q7 0 20 -3t19 -3q24 0 64 21
q-12 17 -22 60l-6 269q0 6 7 29.5t8 35.5q1 9 1 37v6q0 42 2 62q1 6 11 19t12 17q9 -6 14 -6v-81q-21 -33 -21 -188q0 -189 22 -279zM211 572l-6 -8l-19 14l5 7zM39 706h-10v21h10v-21zM526 694q0 -6 -9.5 -19t-11.5 -17q4 3 4 -10v-474q-23 -13 -36 -13q-7 0 -19.5 3
t-19.5 3t-43 -8.5t-43 -8.5q-11 0 -20 13q-1 11 -37 178q-3 7 -12 20q-37 -41 -48 -54q-24 -29 -40 -57q-13 5 -51 29q-32 21 -39 21t-12 -4q-8 -4 -13 -6q6 -18 11 -52q6 -44 11 -65q-34 1 -71 0q10 52 10 86v143q0 25 3 58.5t3 51.5q0 28 -4 63q-1 4 -1 74h35q7 1 56 -41
q60 -49 80 -62q-12 0 -16 -4q49 -37 52 -37q9 0 8 4q-3 10 -3 7l18 -16q10 5 26 23q14 15 27 30q12 3 34 14q94 79 157 150q14 -14 14 -23zM526 43q-6 -9 -6 -14q-6 0 -13.5 6.5t-7.5 13.5zM282 286q0 -15 -18 -30q-26 -23 -41 -45q-2 3 -12 10t-13 9q24 35 76 97
q0 -5 4 -19.5t4 -21.5zM282 172q0 -6 -14 -33q-7 9 -25 23q0 2 25 27q4 -3 9 -5.5t5 -11.5zM364 82q-6 -12 -12 -25q-9 -17 -26 -17v19q10 11 38 23zM564 -116q-81 -23 -116 -23q-11 0 -57 9q-51 9 -71 17q26 0 84 -2t61 -2q32 0 33 1q13 2 32 20q-2 20 -2 59q8 3 13 3
q2 -5 13 -27.5t10 -29.5v-25zM143 152q-16 -19 -38 -24q0 13 -12 13q25 13 25 39q0 14 -10 45t-10 45l6 16q0 -7 11.5 -12t13.5 -9q14 -26 14 -50v-63zM304 20q-10 -7 -25 -20l-19 20h44zM1 253v0v0v0zM515 -87q-26 -13 -34 -13q-37 0 -136 7q-13 1 -46.5 13.5t-39.5 12.5
t-63 -22t-64 -22q-14 0 -67 13q5 5 5 15q0 7 -9 22q-11 19 -13 25q5 9 18.5 19.5t23.5 10.5q6 0 27.5 -8t33.5 -8l158 -6q7 0 11.5 5.5t11.5 5.5q6 0 25.5 -2.5t26.5 -2.5q42 0 94 16h19q6 -12 11 -38q3 -21 7 -43zM86 142h-26v10h26v-10zM10 189l-4 -8l-14 7l3 8zM303 -102
q-16 -20 -27 -20q-7 0 -8.5 2.5t-8.5 2.5t-21.5 -7.5t-16.5 -12.5q-2 0 -18 -3.5t-24 -3.5q7 0 -92 19q5 0 19.5 -1.5t22.5 -1.5q7 0 65 22.5t65 22.5t23 -9.5t21 -9.5z" />
    <glyph glyph-name="n" unicode="n" horiz-adv-x="608" 
d="M552 651q0 -7 -15.5 -68.5t-15.5 -68.5q0 -1 19 -104l5 -332q-8 -1 -35 13v220q-1 8 -10 94t-9 93q0 68 14 157q3 6 32 21q15 -15 15 -25zM81 785q0 -10 -13 -35h-22q0 14 3 27t3 14q11 0 19 -3t10 -3zM354 443q-24 47 -32 80q0 -1 19 -26q16 -22 16 -39q0 -7 -3 -15z
M355 392q-21 6 -21 33q21 -21 21 -33zM503 684q-30 -32 -30 -189l24 -447l-15 -14q-73 41 -175 71q-87 22 -173 45q-16 -12 -16 -27q0 -31 25 -80q-12 -13 -37 -25q-31 -14 -58 -14q-9 0 -17 6l-8 8q-1 11 -5 43.5t-4 39.5t6.5 29t6.5 30v310q0 3 1 27q2 20 1 36
q-2 21 -8 41v10.5v10.5q1 7 15 7q9 0 14.5 -6t9.5 -12q11 11 11 18q105 -69 136 -94q90 -70 125 -133q5 -11 34 -11q7 0 15.5 7t11.5 9q-18 17 -18 36q0 4 5 61q6 65 9 116q-1 41 0 118q17 6 46 19q0 -13 10 -24l18 18q27 -13 40 -40zM558 31q0 -11 -10 -22.5t-20 -11.5
q-9 0 -19 6q-14 8 -18 9q13 13 27 41q10 18 20 18q3 0 7 -2q0 -5 6.5 -17.5t6.5 -20.5zM454 24l-189 70h20q10 1 169 -70zM222 111q-19 -9 -38 -9q-7 -10 -7 -27q0 -11 15 -70q-18 -29 -66 -30h-75q2 1 57 23q41 16 59 39q-11 20 -21 80q53 -6 76 -6zM289 -117q-8 2 -31 -16
l-11 4l8 35q10 -11 34 -23zM393 199q0 9 -4 44q-4 39 -5 52q-20 16 -62.5 37t-58.5 33.5t-37.5 43.5t-27.5 36.5t-50 26.5q-39 20 -53 39v-216q-1 -6 12 -35.5t13 -40.5q56 -31 141 -69q82 -36 92 -36q40 0 40 85zM370 284l-6 -8l-33 27l5 8zM166 212q-54 45 -54 186
q0 5 1 30.5t1 39.5q12 -8 32 -22q9 -107 4 -151q5 -6 16 -18v-65z" />
    <glyph glyph-name="o" unicode="o" horiz-adv-x="664" 
d="M448 725q-11 -5 -37 8q5 0 18 12q5 0 12 -6t7 -14zM612 471q0 -7 -6 -20q-5 -9 -9 -19q-1 -2 7 -15q-1 -12 1 -36q3 -30 3 -40q0 -17 -4 -28q-17 -62 -21 -72q-14 -42 -34 -65q-32 -39 -258 -110q-7 0 -17 8q-13 10 -15 11q73 39 105 44q65 12 83 18q45 16 71 49
q20 25 41 75q20 47 20 59l-7.5 56t-7.5 85q0 5 4.5 16.5t3.5 15.5q-4 20 -20 56q16 0 19 -5.5t25 -44.5q16 -29 16 -38zM557 324q0 -7 -18 -49t-33 -66q-17 -28 -75 -49q-36 -6 -103 -25q-5 -2 -39 -18q-26 -13 -33 -13t-23 14q-26 22 -28 23q-21 15 -71 31q-10 27 -42 53
q-37 30 -52 55q-10 16 -19 49q-7 29 -7 42q0 62 86 167q89 109 150 111q5 2 16 7q11 1 38 5q24 3 31 3q20 0 92 -34q67 -32 91 -50q11 -8 21 -31t18 -45v-180zM95 567q-47 0 -54 1q7 6 47 20q7 -7 7 -21zM41 601q-16 2 -32 -6q16 10 32 6zM606 -101q-22 -12 -40 -12
q-7 0 -64 11t-64 11q-6 0 -30 -6q-28 -8 -44 -10q-7 6 -7 20q10 1 31.5 6.5t27.5 5.5q7 0 56 -11t56 -11q28 0 57 15q0 1 -12 29q-10 22 -10 30v18q29 -2 42 6q-2 -84 1 -102zM308 17q0 -19 -24 -27q-18 -5 -35 -10q8 19 27 59h19q13 -12 13 -22zM557 -74q-3 0 -13 -3
t-16 -3q-7 0 -56 10.5t-56 10.5q-5 0 -23 -5.5t-26 -5.5q-7 0 -20.5 3t-19.5 3q-88 0 -174 -13q-4 -1 -14 -7.5t-16 -6.5q-8 0 -81 27q-2 26 6 49h22q7 0 67.5 -16.5t66.5 -16.5q5 0 54 15q54 17 79 21q141 24 155 24q7 0 26 -3t28 -3q0 -26 11 -80zM259 45q0 -25 -41 -66
q-40 44 -40 73q0 5 1 9q14 -6 29 -6q20 0 37 11q14 -13 14 -21zM389 -120q-5 -6 -9 -12q-7 -8 -15 -8q-14 0 -35 26q32 -9 59 -6zM286 -87q-51 -21 -63 -19h-84q51 22 85 19h62zM111 -110l-36 6v9l36 -5v-10zM161 -170l-14 -14q-13 14 -22 14h36zM492 346q0 8 -7.5 32
t-8.5 28q-2 12 4 37t5 34q-2 22 -15 46.5t-28 34.5q-23 16 -76 32q-45 14 -58 14q-21 0 -107 -98q-45 -53 -89 -105q22 -53 66 -153q15 -4 38 -15q10 -7 33 -18q28 -13 39 -13q29 0 94 44q48 31 71 53q39 36 39 47zM460 398q0 -12 -8 -40q-10 -33 -22 -46q-15 -17 -55 -35
q-35 -15 -48 -15q-8 0 -15 8q-13 15 -15 17q19 2 39 4q25 4 38 15q19 17 33 56l22 68q31 -15 31 -32zM432 541q-16 -2 -41 0q-6 2 -27 15q-16 10 -24 10q-16 0 -36 -22q-28 -32 -41 -41q-11 -1 -33 -4q-75 -114 -75 -131q0 -5 17 -44q19 -46 25 -67q-63 127 -63 138
q0 4 52 68q55 68 91 108q16 17 31 17t124 -47zM411 428q-14 -36 -47 -104q-1 -1 -39 -14q-26 -10 -34 -10q-27 0 -59 51q-28 43 -28 58q0 7 35 76q28 -11 52 -11q5 0 22 5.5t24 5.5q9 0 34 -22q39 -34 40 -35z" />
    <glyph glyph-name="p" unicode="p" horiz-adv-x="755" 
d="M290 710q-19 -17 -32 -17q1 16 -5 17h37zM706 414q0 -12 -36.5 -81.5t-60.5 -101.5q-7 -9 -31 -20q-29 -13 -34 -17q-63 -47 -115 -69q-42 -17 -84 -35q-2 -16 -2 -114q-14 -3 -40 -12l20 -21h-33q4 6 4 13q0 13 -17 29q25 16 25 53q0 7 -1 21t-1 20q0 27 13 40
q32 7 93 31q47 32 140 94q16 10 64 83q56 82 56 117q0 18 -66 120q106 -124 106 -150zM612 146q-15 -15 -15 -31q-9 9 -25 9q21 24 40 22zM646 444q0 -26 -39.5 -93t-62.5 -86q-70 -55 -162 -101q-30 -10 -91 -34q-9 -31 -9 -115h-28q-7 0 -20 10t-21 10q-9 0 -84.5 -17
t-84.5 -17h-21q-8 5 -20 16q22 79 22 182q0 58 -10 181.5t-9 187.5q0 5 -5.5 16.5t-5.5 20.5q0 16 15 47q7 -3 16 -3q14 0 39.5 8t29.5 8q116 0 225 -9q48 -4 111 -23q73 -22 119 -51q33 -21 66 -75q30 -47 30 -63zM450 36q-8 -2 -16 -8v33q16 -19 16 -25zM-23 283
q5 -6 4 -17q-2 -11 -12 -16zM243 -1q-37 -25 -60 -25q-9 0 -15.5 3.5t-15.5 3.5q-7 0 -31 -13.5t-32 -13.5q-16 0 -41 24q5 2 32 14q19 9 29 9q7 0 17.5 -3.5t19.5 -3.5q7 0 68 20q15 -15 29 -15zM565 421q0 48 -49 92.5t-102 44.5q-64 0 -115 -21q-3 -21 -1 -43
q1 -12 1 -27q0 -32 -4.5 -84t-4.5 -53q0 -28 9 -63q13 -44 31 -44q7 0 62 23.5t62 23.5q9 0 10.5 -3.5t9.5 -3.5q11 0 36 38q19 32 39 64q16 27 16 56zM155 278q-8 16 -45 52v-60q7 0 22.5 4t22.5 4zM491 507q-2 0 -15 5.5t-22 5.5q-38 0 -111 -12q9 -154 -8 -256
q-25 11 -25 90q0 8 5 30t6 31q6 62 -4 122q60 15 97 15q15 0 77 -31z" />
    <glyph glyph-name="q" unicode="q" horiz-adv-x="662" 
d="M714 472q0 -9 -20 -36q-17 -21 -33 -41q0 8 -4 27t-4 25t12 26t12 32q4 -3 23 -16q14 -10 14 -17zM659 500q0 -12 -26 -50q-3 22 -13 65q7 0 19 13q20 -7 20 -28zM714 286q-5 -6 -18 -30h-19q-7 0 -7 13q0 8 8 15q16 15 17 16q3 -3 10 -7t9 -7zM664 304q-3 -3 -6.5 -10.5
t-6.5 -10.5q-2 0 -9.5 4t-10.5 4q13 13 33 13zM578 414l-3 -6q7 -15 7 -34q0 -32 -23 -83q-20 -43 -40 -85q-3 0 -13.5 6t-13.5 6q4 6 4.5 21.5t2.5 19.5q5 10 26 36q18 23 20.5 35t2.5 95q0 5 5.5 14t5.5 16t-15 54q-15 51 -18 72q12 13 26 13q3 -4 8 -13q2 -14 -3 -40
q24 -44 24 -88q0 -19 -6 -33zM79 677q1 -7 -12 -20.5t-30 -22.5zM570 136q-7 -3 -40 -22q-25 -14 -32 -14t-49 30.5t-49 30.5q-6 0 -68.5 -16.5t-69.5 -16.5q-11 0 -62 18q-54 18 -84 33q-17 9 -44 34q-47 42 -50 44q-1 31 -10 95q-1 5 -11 28q-9 20 -9 28q0 20 19 68
q12 28 24 55q-2 14 -2 39q22 35 77 72q14 9 75 30q67 22 93 22q11 0 69 -15q62 -17 99 -31q44 -17 58 -55q10 -27 21.5 -71.5t11.5 -54.5q0 -13 -10 -26q10 -76 2 -106q-4 -12 -22 -35q-20 -26 -25 -37q-7 -17 -7 -54q52 -29 95 -73zM620 108q-23 -15 -74 -52q-6 -1 -32 25
q26 19 78 50q-3 8 -3 13q5 -10 31 -36zM431 119q-28 -1 -88 -13q0 8 -12 20q5 1 38 11q23 7 31 7t17 -10q10 -13 14 -15zM366 89q5 -5 -6 -16q6 10 6 16zM562 -128q4 -4 -8 -16q3 8 8 16zM592 -87q-6 -4 -16 -4q-15 0 -48.5 9.5t-40.5 9.5q-6 0 -70.5 -11t-72.5 -10h-46
q25 6 90 29q56 20 62 20q7 0 41 -10q44 -13 68 -19q1 21 1 78q13 -3 32 -12v-80zM314 121q-22 -21 -60 -32q0 9 -11 21q18 -6 71 11zM186 132l-26 6v8l26 -6v-8zM542 11q1 -35 -7 -61q-12 3 -47 13q-30 9 -38 9q-2 0 -60 -19.5t-115 -19.5q-6 0 -100.5 3t-101.5 3
q-22 0 -40 8q-24 10 -24 29v45q71 -1 102 3q6 0 16 7.5t18 7.5t35 -7q35 -10 45 -12q-20 -22 -20 -29q0 -5 4 -13q1 0 31 10q24 7 24 17q0 7 -11 15l234 13q13 0 29 -9q22 -12 26 -13zM275 -83q-30 -17 -83 -17q-23 0 -63 3q-52 5 -66 6q1 11 -4 8h216zM459 372
q0 63 -36 164q-41 23 -101 67q-10 1 -38 7.5t-34 6.5q-7 0 -57.5 -22.5t-72.5 -37t-38 -100.5q-12 -65 -12 -99q0 -21 29 -63q27 -37 43 -48l-11 -12q47 -17 95 -34q66 -23 88 -23q10 0 26.5 14.5t23.5 27.5q-27 27 -83 72q42 41 58 41q15 0 61 -50q12 7 35.5 45t23.5 44z
M356 380q-3 0 -12.5 -3t-12.5 -3q20 20 21 20q-1 -14 4 -14zM291 373q-2 0 -9.5 -3t-10.5 -3q0 22 8 22q12 -12 12 -16zM309 584q2 -1 -13 -1q-29 0 -93.5 -46.5t-70.5 -62.5q-4 -12 -4 -28q0 -13 3.5 -39t3.5 -38q0 -5 -10.5 -16t-10.5 -17q0 -8 12 -28q19 -33 21 -35
q-60 53 -60 85q0 72 18 140q9 34 33 49t63.5 34t48.5 19q7 0 27.5 -7.5t31.5 -8.5zM186 235q-15 0 -15 12q1 2 2 3z" />
    <glyph glyph-name="r" unicode="r" horiz-adv-x="655" 
d="M128 709q-12 -5 -30 -16v24q3 0 15 -4t15 -4zM569 456q0 -4 -21 -91q-22 -91 -26 -132q1 6 -14 6q-19 0 -59 -35q-32 -28 -45 -45q4 -16 16 -41q-8 9 -43 61q13 16 40 38q21 8 43 17q31 15 36 41q7 33 34 99q20 50 21 105v34q18 -24 18 -57zM495 143q2 -2 2 -5
q0 -18 -18 -18q4 3 8.5 11.5t7.5 11.5zM562 140q0 -53 -44.5 -92t-95.5 -39q-64 0 -91 29q-19 20 -61 112q-34 -8 -42 -42q-3 -26 -5 -53q-8 0 -36.5 -3.5t-36.5 -3.5t-49 16t-49 16t-12 -6.5t-12 -6.5h-33q7 31 16 92q-2 165 3 494q4 1 10 1q8 0 25.5 -3t24.5 -3
q11 0 25.5 9.5t19.5 9.5q6 0 37 -13t39 -13q6 0 25 9.5t29 9.5q98 0 133 -15q51 -23 145 -133q3 -3 3 -34q0 -30 -14 -74.5t-29 -67.5q-4 -6 -4.5 -26.5t-6.5 -30.5q-9 -18 -68 -44q-50 -22 -50 -53q0 -28 32.5 -62t60.5 -39q6 -1 25 -1q26 0 29 7q11 32 25 53q-3 3 -52 36
q1 -23 -14 -23q-5 0 -10 1q3 22 17.5 41t33.5 19q28 0 45 -34q12 -23 12 -40zM607 134q0 -31 -35 -115q-20 -18 -67 -33t-80 -15q-19 0 -54 23q6 0 24 -2t27 -2q64 0 111 43q51 47 51 118q0 12 -1 24q24 -12 24 -41zM593 -76h-23v11h23v-11zM268 23h-37q10 18 20 54.5
t15 46.5q0 -15 2 -101zM269 -22l-3 -9l-17 8l4 9zM217 26q-40 -7 -114 5q27 -5 114 -5zM187 -31l-7 -6l-9 9l7 7zM-23 138h-11v30h11v-30zM90 38q-26 -9 -69 -9q-1 4 27 31q6 -3 20.5 -11t21.5 -11zM498 428q-18 5 -23 37q-7 41 -12 47q-31 42 -87 52q-46 7 -92 13
q-9 -10 -28 -51q-19 -44 -19 -61v-179q11 -18 35 -41q52 36 153 99q22 36 73 84zM398 349l-16 -16l-7 7l16 16zM326 550q-36 -29 -36 -101q0 -11 1 -33.5t1 -32.5q0 -14 1 -47.5t1 -49.5q-14 -14 -25 -14q0 2 -3 14t-2 15q10 14 10 36q0 19 -9 54.5t-9 45.5q0 35 27 113h43z
" />
    <glyph glyph-name="s" unicode="s" horiz-adv-x="597" 
d="M556 504l-11 -41h-8l11 41h8zM512 465q0 -16 -28 -55q-13 0 -44 -6q-3 2 -6.5 9t-6.5 10q16 3 42 32q22 23 31 39q0 -2 6 -12t6 -17zM528 380l-18 -18h-19q14 16 23 26q5 -2 14 -8zM411 546l-48 -36q-28 -22 -32 -45q13 -12 31 -34q-41 27 -41 55q0 14 23 29t48 31h19z
M222 630q-20 -9 -33 -29q10 19 33 29zM198 656q-19 -19 -27 -45h-19q-7 1 -7 13q0 19 40 45zM143 661q-4 -5 -8 -11t-10 -6zM445 333l-7 -5l-45 61l7 5zM502 539q0 -9 -18 -39.5t-36 -51.5q-11 -13 -37 -13q-14 0 -48 51q30 23 35 26q21 14 35 17q0 5 -2.5 15.5t-2.5 19.5
q-5 0 -14 2t-16 2q-13 0 -56 -33.5t-43 -40.5q0 -24 20 -49.5t52 -38.5q11 -21 55 -89q38 -58 38 -65q0 -16 -74 -84t-79.5 -68t-18 -2.5t-19.5 -2.5q-5 0 -17.5 8t-19.5 8q-6 0 -23.5 -2.5t-24.5 -2.5q-40 0 -105 31q-49 25 -97 51q6 5 14 20q10 20 13 25q4 1 13.5 -6
t15.5 -8q118 -23 119 -23q-2 0 101 30q-13 27 -47 75q-22 7 -58 30q-14 15 -34 54q-13 27 -36 36q14 19 34 57q24 45 31 56.5t79 60.5q78 53 103 53q11 0 86 -23q8 -3 43 -36q39 -36 39 -50zM507 233q0 -15 -74 -84q-71 -65 -82 -69q-20 -3 -55 -11q-12 11 -12 15
q13 -2 39 2q163 143 163 166q0 6 -12 26q-18 33 -19 35q52 -65 52 -80zM538 -112q-2 1 -14 2.5t-12 9.5t9 34t9 39q0 9 -4 16q0 -2 6 -9.5t6 -14.5v-77zM156 300l-8 -8l-29 7q13 14 25 14zM502 -96l-3 -8l-18 7v8zM262 81q-26 -5 -85 6q30 -1 74 7q0 -2 11 -13zM470 -100
q-12 -2 -55 -11q-34 -7 -41 -7q-34 0 -80 19q8 0 25 4t23 4q7 0 40 -8t40 -8q14 0 48 7zM512 -35q0 -8 -17 -38q-11 -1 -40 -7t-36 -6q-6 0 -29 4t-35 5q-23 2 -151 -3q-139 -6 -133 -6q-41 0 -64 12q0 11 9 28q-2 4 -3.5 20t-4.5 24q12 -2 49 -14q33 -11 40 -11t80 18.5
t80 18.5q6 0 57 -13.5t57 -13.5t31.5 8t32.5 8q6 0 21.5 -5t21.5 -5q8 0 11 3.5t5 6.5q1 -3 11 -16q7 -11 7 -18zM273 -99q-49 -5 -157 -5h-45l114 5h88zM244 -171q3 -4 0 -9q-4 -6 -8 -6q1 5 8 15z" />
    <glyph glyph-name="t" unicode="t" horiz-adv-x="898" 
d="M658 304q0 -24 -9 -32q0 4 4.5 16t4.5 16zM844 506q-16 -2 -110 -13q-67 -8 -104 -8q-26 -11 -41 -49q-2 -4 -15 -56q-21 -78 -17 -140q2 -23 -2 -119q-5 -100 -2 -149q-13 -21 -13 -30q-48 13 -83 13q-8 0 -28 -3.5t-29 -3.5q-77 0 -225 47q39 -11 108 -23
q63 -10 79 -10q1 0 59 4.5t87 4.5q18 16 20 85q-1 -23 -1 108v188q0 9 9 23.5t10 20.5q-2 24 4 71q4 10 19 22.5t23 12.5q26 0 79.5 3.5t76.5 3.5t47 17q5 31 17 91q7 -15 15 -52q9 -40 17 -59zM780 541q-134 -23 -133 -23q-6 0 -28.5 7t-31.5 7q-12 0 -32.5 -22t-25.5 -38
q-21 -75 -24 -132v-355q-39 13 -59 13q-9 0 -31.5 -7.5t-52.5 -7.5q-10 0 -85 17q-94 20 -129 27q6 218 21 300q32 -2 42 6v18q-19 10 -42 -1v184q-40 27 -75 27q-9 0 -10.5 -7.5t-10.5 -7.5q-8 0 -28 4.5t-30 5.5q-8 14 -30 35q7 16 15 31q10 25 7 43l305 -34q9 0 60 7
t60 7q8 0 34 -10.5t33 -10.5q6 0 28.5 7t31.5 7q8 0 27.5 -10.5t28.5 -10.5t19.5 10.5t19.5 10.5q6 0 28 -4.5t35 -4.5q10 0 18 2l45 -8v-82zM140 522q-32 -11 -88 -11q-16 0 -16 21q13 -4 51 -5.5t53 -4.5zM104 392l-41 8q0 10 24 34l17 -17v-25zM422 -137l-20 -9v10l16 9z
M217 -93q-4 0 -17.5 4t-17.5 4l26 26z" />
    <glyph glyph-name="u" unicode="u" horiz-adv-x="630" 
d="M583 666q0 -19 -18 -48q-14 0 -26 4t-13 4q12 5 33 31q1 2 -6 21q8 27 8 42h22v-54zM543 725q-14 -37 -5 -65q-13 -13 -37 -13l-225 17q-7 0 -76.5 -8.5t-76.5 -8.5q-6 0 -48 3q-48 4 -67 5l-9 -7v58q-1 7 7 16q10 13 11 15q3 -3 6 -7t12 -4q7 0 91 8.5t91 8.5
q96 0 156 -20t74 -20q5 0 39.5 9.5t56.5 12.5zM521 627q-16 0 -68 -6q-46 -5 -72 -3q-6 1 -36 6.5t-37 5.5q-6 0 -24 -6t-28 -6q-6 0 -16.5 3t-17.5 3t-24 -8.5t-24 -8.5t-17 5q-13 8 -17 9q89 26 131 26q7 0 100 -8q111 -10 150 -12zM628 328q0 -5 -5.5 -13.5t-9.5 -8.5
q-3 3 -2 14q2 17 2 14q10 -6 15 -6zM355 542h-15v10h15v-10zM128 622h-89v10h89v-10zM390 254l-16 -7v8l13 7zM560 263q0 -6 -9.5 -34.5t-11.5 -39.5q-4 -58 -21 -171q-3 -13 -21 -29t-35 -23q-51 -18 -81 -18q-7 0 -13 4q-9 6 -14 7q-14 -18 -26 -22q-4 -1 -26 -1
q-16 0 -88 15q44 3 89 6q53 5 83 15q39 18 116 54q4 58 9 116q7 68 25 105q1 3 1 9q0 9 -5 28.5t-5 24.5v240q9 0 22 -12v-229q0 -7 5.5 -22.5t5.5 -22.5zM314 135q-3 6 -22 27q-16 17 -16 24t4.5 23t5.5 20q2 17 -1 48l-3 38v141q0 5 4 28t4 32q16 -17 16 -45l-9 -60
q15 -29 15 -83q0 -17 -1 -44q-2 -35 -3 -44q0 -3 -8 -18.5t-7 -26.5q8 -21 21 -60zM563 35l-14 -20l-8 5l14 20zM606 19q-23 -31 -65 -53q30 41 38 72q8 0 27 -19zM521 263q0 -7 -10.5 -21t-11.5 -19q-13 -92 -13 -189q-15 -4 -51.5 -22t-58.5 -23q-39 -9 -115 -17
q-63 -7 -81 -7q-66 0 -141 54q0 16 -8 51.5t-9 50.5q-2 23 7 70t9 49l-23 280q4 2 17 11q10 8 17 8t24 -11.5t24 -11.5t25.5 8.5t26.5 8.5q5 0 21.5 -3t23.5 -3q26 0 51 17q16 -15 23 -30q3 -5 0 -18q-3 -17 -3 -22v-274q0 -6 -5.5 -12t-5.5 -13q0 -13 61 -62q23 -18 32 -18
q12 0 81 44q1 21 5 80q2 48 2 55q0 54 -10.5 116.5t-11.5 170.5q14 5 43 29q23 -27 47 -41v-224q1 -7 9.5 -31t8.5 -31zM375 165h-10v15h10v-15zM-2 531q-8 -8 -34 -6q2 0 14.5 3t19.5 3zM557 -114h-9l-7 19l9 3zM392 -64q11 -22 0 -34q0 3 -6.5 13.5t-6.5 13.5q13 5 13 7z
" />
    <glyph glyph-name="v" unicode="v" horiz-adv-x="600" 
d="M254 568q-19 46 -19 57q16 -13 17 -28t2 -29zM461 365l-10 -20l-8 3l10 20zM309 444q-53 81 -52 97v19q18 -32 52 -96v-20zM562 636q1 -6 -10 -16q-14 -13 -15 -15q-60 -90 -97 -192q-10 -5 -24 -16q1 -8 -23 -44q-4 -3 -4 -5q0 -3 7 -3q8 0 10 2t3 2q-26 -30 -64 -130
t-74 -142q-9 -3 -32 19q25 9 37 34q44 95 97 230q15 23 40 66q8 24 26 66q12 13 35 44q11 29 36 83q5 8 19 16t21 7q7 -6 12 -6zM525 663q-11 -11 -27 -31q-24 -45 -78 -136q-12 -27 -48 -94q-28 -46 -60 -133q-40 -107 -53 -135q-3 -6 -14.5 -12.5t-20.5 -6.5
q-22 26 -34 79q-16 75 -19 82q-11 18 -35 60q-5 10 -13.5 43.5t-16.5 49t-57 105.5q-9 16 -15 49q-3 6 -20 22q0 10 13 18q19 3 88 18q60 12 66 12q23 0 45 -70l20 -74q20 -32 62 -98q3 -1 6 4q30 59 59 118q35 74 38 124q3 1 16 14q10 10 18 10q7 0 34 -7q35 -9 46 -11z
M411 159h-9v26h9v-26zM58 444q0 -8 -3.5 -16.5t-3.5 -10.5q-7 7 -20 7q4 15 14 48q0 -2 6.5 -11t6.5 -17zM552 -61q0 -8 -9 -20q-13 -16 -14 -18q-8 0 -26 18l15 30q9 19 9 28q8 -8 16.5 -18t8.5 -20zM68 330q-14 0 -32 18q7 8 7 19q10 -13 25 -37zM530 -108
q-13 -3 -40 -12.5t-41 -11.5q-6 10 -6 15q29 -5 87 9zM365 19h-48v10h48v-10zM339 4l-16 -7v8l12 7zM508 -28q0 -6 -9.5 -23.5t-9.5 -28.5q0 -7 3 -12q-20 -8 -50 -8q-60 0 -151 50q-22 -12 -19 -27q-97 -12 -134 -12q-73 0 -102 12q2 11 13 27.5t11 26.5q0 5 -2 11h84
q7 0 32.5 -8t31.5 -8q7 0 36 8t36 8q6 0 55.5 -5.5t56.5 -5.5q31 0 38.5 1.5t26.5 11t26 9.5q10 0 18.5 -8.5t8.5 -18.5zM354 -176l-12.5 -4t-19.5 -1q0 12 18 21q4 0 9 -6t5 -10zM125 51q3 -3 -4.5 -7.5t-12.5 -4.5q0 7 14 21zM315 -156h-20v9h20v-9zM322 -91
q-4 -7 -13 -18q-110 -13 -199 -13q-18 0 -41 16h156q19 6 54 13q11 8 11 21q6 -6 32 -19zM115 -209h-10v21h10v-21z" />
    <glyph glyph-name="w" unicode="w" horiz-adv-x="880" 
d="M752 588l-5 -7l-35 23l4 8zM620 555q-13 -25 -29 -31q13 23 29 31zM372 734l-6 -25h-8l6 25h8zM576 453q-2 0 -13 -12q-12 48 -24 95q-19 57 -56 99l4 13q7 -17 24 -38q1 -1 25 -18q20 -13 23 -28q1 -6 -4.5 -15t-10.5 -17q11 -11 32 -27v-52zM827 554q-9 -28 -35 -79
q-28 -33 -56 -67q-36 -43 -44 -73q-13 -52 -53 -138q-52 -109 -64 -141q-4 3 -19 2l-22 -1q12 40 39 116q13 33 47 83q47 71 53 81q35 58 117 223q13 0 24.5 -3t12.5 -3zM322 468q0 -7 -8 -15.5t-15 -16.5l-22 96q-16 63 -37 86q3 3 9.5 7t9.5 6q12 -12 19 -12q-4 -5 -4 -16
q0 -16 9 -46q6 -21 13 -42q2 -7 14 -23t12 -24zM772 559l-50 -102q-34 -66 -61 -107q-56 -87 -76 -121q-39 -70 -48 -117q-8 -40 -20 -40q-4 0 -15 2q-6 1 -10 -2q-7 21 -20 56q-13 13 -35 43q-28 60 -81 124q-3 0 -8 -2q-59 -96 -61 -99q-37 -65 -48 -116q-12 -2 -32 6
t-30 16q-2 15 -9 44q-18 47 -55 130q-4 9 -38 84q-21 48 -51 95q-4 7 -9 34.5t-14 44.5q24 9 66 30q55 34 89 45q26 7 66 8q26 -20 28 -41q0 -12 2 -37q9 -24 22 -76q-1 -8 0 -27q9 -11 28 -20q28 45 83 129q10 26 31 71q11 9 33 28q49 -41 72 -107q5 -17 24 -112
q8 -10 18 -20l114 201q19 -15 56 -37q12 -1 39 -8zM87 627q-24 2 -63 -22q16 33 50 54q8 -7 13 -7v-25zM27 638q-2 0 -12.5 -3t-12.5 -3q0 4 7.5 12.5t11.5 8.5q6 -5 6 -15zM745 -116q-35 -13 -54 -13q-6 0 -23 3.5t-26 3.5q11 3 35.5 6.5t35.5 6.5q-6 11 -10 35l-6 42
q22 -2 36 6q0 -24 -1 -48q1 -32 13 -42zM646 -140q0 -22 -5 -26h-20zM376 237q0 -9 -54 -93q-27 -43 -34 -88q-26 2 -42 2q16 6 16 22q0 25 1 28q31 55 88 165q2 -3 15 -17q10 -11 10 -19zM397 86q-16 -16 -32 -8q0 5 7 12.5t14 7.5q0 -12 11 -12zM528 -114q-3 -2 -40 -6
q-22 -20 -41 -20q-8 0 -17 4t-11 4q57 18 64 18h45zM349 -3h-32v20q5 -5 32 -20zM685 -96q-30 -2 -118 0q-80 2 -117 -3q-2 0 -24.5 -9.5t-46.5 -9.5q-7 0 -37 5t-37 5q-5 0 -24 -2.5t-27 -2.5q-7 0 -67 9q-69 10 -98 13q-13 23 -6 53q23 4 69 0q55 -4 50 -4q6 0 34 5t34 5
q7 0 47.5 -5t47.5 -5q6 0 98.5 8t99.5 8q4 0 49 -6t68 -6q-1 -7 4 -47zM164 7q0 -8 -4 -14t-4 -8l-39 119q15 -28 29 -56q18 -33 18 -41z" />
    <glyph glyph-name="x" unicode="x" horiz-adv-x="676" 
d="M290 656l-21 -7v8l18 6zM368 587q0 3 2 -20q1 -14 -2 -22q-25 0 -25 10q0 26 25 32zM625 678q0 -6 -31 -39q-37 -38 -48 -56q-4 -6 -7 -34t-12 -46q-26 -36 -51 -73q-38 -56 -38 -80q0 -20 52 -78q48 -54 68 -65q3 -5 3 -13q0 -22 -51 -66q-40 -35 -68 -50
q-13 -3 -46 -11q13 10 36 38.5t34 37.5l54 25q4 2 4 20q0 26 -58.5 87.5t-58.5 93.5q0 25 35 75l48 67q20 46 41 92q26 56 56 78q-15 14 -36 38q1 0 32 -16q20 -10 35 -10q7 -6 7 -15zM300 573l-13 -12q-7 6 -24 32t-31 41q19 -11 40.5 -23t27.5 -38zM348 499l-14 -13
q-12 17 -38 69q4 -4 22 -24t30 -32zM520 332q4 0 0 -9q-4 -8 -9 -12q-10 0 -24 14q17 -1 33 7zM555 687q-23 -60 -82 -173q-23 -31 -45 -61q-37 -53 -37 -81q0 -46 34 -79q60 -57 82 -91v-23q-15 -4 -43 -19q-28 -31 -87 -83q-21 26 -45 71q-28 53 -40 72q-35 -18 -65 -63
q-17 -35 -33 -70q-31 -58 -64 -58q-20 0 -40 22q-19 19 -19 31q0 7 55 77q44 57 88 113q1 2 1 23q0 18 -2 22q-28 30 -81 90q-11 25 -35 70q-7 8 -33 32q-19 18 -19 25q0 17 138 96q6 0 15.5 -4.5t14.5 -5.5q13 0 27 -23q9 -16 19 -32q36 -55 76 -111q27 41 84 121
q22 23 66 75q10 14 23 53q6 2 21 -5q23 -10 26 -11zM583 13l-4 -8l-13 7l2 8zM603 -59q0 -24 -17 -50q-5 0 -18 3t-18 3q17 17 21 43q0 1 1 40q23 0 23 3q0 -4 4 -19.5t4 -22.5zM87 396q-3 0 -13 3t-12 3q0 5 2 17t2 19t-12 20t-14 16q9 -2 40 -37q1 -8 7 -22v-19zM50 441
q-7 -7 -7 -24q-13 13 -29 6l-2.5 13t-2.5 29q5 -6 41 -24zM533 -112h-40v10h40v-10zM305 169q-22 -16 -59 -75q-10 0 -30 -6q2 19 24.5 52.5t47.5 52.5q0 -6 17 -24zM311 53q-3 -4 -8 -12q-2 0 -11.5 2t-11.5 2q0 4 7.5 12.5t11.5 8.5zM417 -106q-23 -10 -98 -17
q92 17 98 17zM555 -48q0 -42 -41 -42q-6 0 -15.5 1t-12.5 1q-6 0 -38 2.5t-39 2.5q-6 0 -45 -10.5t-45 -10.5q-7 0 -88 13t-88 13q-14 0 -92 -15q4 15 5 73q9 0 119.5 -2t116.5 -2q7 0 40 7.5t40 7.5q109 0 177 -6q0 -4 3 -15t3 -18zM236 76q-3 -11 -22 -56q-16 -1 -62 -11
q39 40 59 73q3 0 12.5 -3t12.5 -3zM203 -125q-23 11 -30 25h30v-25z" />
    <glyph glyph-name="y" unicode="y" horiz-adv-x="868" 
d="M756 720l-3 -10l-23 8v10zM802 560q0 -14 -47 -54q-61 -51 -66 -57q-16 -24 -53 -71l-40 -36q-26 -25 -26 -40q0 -8 8.5 -22.5t9.5 -19.5q9 -44 9 -140q0 -4 -4 -56t-4 -79q-5 0 -21.5 -2t-23.5 -2q6 -1 13 7.5t7 18.5q0 9 -7 17.5t-7 16.5v237q0 8 -9.5 17.5t-9.5 16.5
t168 185q5 6 59 32q18 8 18 25q0 18 -33 84q18 8 25 5q11 -12 22.5 -41.5t11.5 -41.5zM358 509q-25 -3 -67 58q-39 56 -39 80l17 13q23 -23 47 -70q36 -71 42 -81zM440 454l-7 -9l-36 29l6 9zM749 549q-50 -20 -121 -97l-116 -128q-2 -6 5 -21q9 -19 11 -30q4 -23 4 -98
q0 -177 -34 -177q-8 0 -35.5 6.5t-34.5 6.5t-24 -10t-26 -10t-47 8q-49 10 -64 13q0 3 -3.5 14.5t-2.5 15.5q6 9 12 19.5t6 18.5q0 19 -22 112q-17 70 -59 125q-28 36 -118 110q-66 54 -66 87q0 23 76 68q87 51 105 77q26 1 57 -73q33 -79 65 -90q16 -4 33 -8q23 -7 34 -17
q12 -14 26 -28.5t25 -14.5q8 0 68 57q76 72 102 92q34 18 101 63q21 -12 43 -91zM523 -31h-24v11h24v-11zM133 317q-11 2 -35 20t-24 28t4 12t4 4q29 -16 51 -64zM484 -26q-52 0 -79 7q22 7 79 -7zM53 356q-5 0 -9 9q-3 10 2 10q7 -13 7 -19zM524 -84q-3 -6 -6.5 -12
t-13.5 -6q-16 0 -33 18q12 4 29 2q29 -2 24 -2zM331 -90q0 -3 -4 -15.5t-4 -15.5l-31 31h39z" />
    <glyph glyph-name="z" unicode="z" horiz-adv-x="784" 
d="M598 709q0 -7 -3.5 -23.5t-4.5 -25.5l-13 11q-7 -5 -13 -5l2 50q-1 34 -14 46q7 0 16 3.5t12 3.5q0 -1 11 -30q7 -19 7 -30zM497 662h-15q0 -8 -18 -6q-24 2 -28 0q9 0 30.5 3t30.5 3zM372 651h-22v10h22v-10zM546 695q-111 -18 -223 -18h-239q-81 0 -81 32v60
q15 -2 176 -2q11 0 42.5 -10.5t38.5 -10.5t27 8q26 10 35 12.5t51 2.5q60 0 160 -14q3 -5 13 -16v-44zM690 329q-10 -30 -25 -39q-9 6 -14 6q2 9 13.5 20.5t25.5 12.5zM690 384q-21 -2 -59 -15q-50 -32 -126 -99q-110 -97 -128 -111q-10 0 -33 -1q14 12 89 86q57 55 97 83
q21 16 61 36q57 30 65 34q-9 12 -27 44q-8 16 -12 48q-3 27 -7 54q30 -4 49 -55q15 -40 18 -85q3 -8 13 -19zM266 567q-12 12 -20 12q0 5 5.5 13.5t9.5 8.5q11 -16 5 -34zM233 652h-166v10h166v-10zM337 438h-44v10h44v-10zM650 113q0 -15 -16 -25q-1 -3 2 -8t4 -7
q0 -6 -14 -49q-10 0 -21 3.5t-13 3.5q18 17 18 47q0 5 -1 14v15q0 17 4 29q-1 4 -9 13q17 -1 31.5 -12.5t14.5 -23.5zM130 582q-13 -15 -34 -14q0 14 3.5 26.5l3.5 12.5q15 -19 27 -25zM73 594l-6 -5l-8 8l6 6zM228 366q-8 -3 -21 -13q0 3 -3.5 14t-3.5 14q3 0 13.5 3
t14.5 3v-21zM633 401q-14 0 -39 -15.5t-34 -30.5q-36 -5 -137.5 -96t-101.5 -114q0 -14 3 -17q28 12 77 11q67 -1 78 0q12 2 39 10q24 8 31 8q11 0 49 -25q-12 -47 -12 -78q-2 -1 -40 -1l-434 -93q-11 3 -26 8q-23 24 -70 80q-2 3 -9 35q-8 12 -21 12q162 141 201 175
q126 114 167 163q7 9 7 26q-8 4 -40 4q9 0 -148 -14q-7 0 -26 -7.5t-27 -7.5h-104q-4 4 -8.5 7.5t-4.5 12.5q0 7 6 18.5t7 16.5q-3 11 0 25q46 24 79 24q7 0 17.5 -3t17.5 -3t30 9t31 9q7 0 25.5 -11.5t26.5 -11.5q6 0 27.5 8.5t29.5 8.5q7 0 22.5 -6t24.5 -6q-1 0 93 3
t139 3q16 -14 23.5 -67.5t30.5 -69.5zM211 432q-49 -9 -95 -25q-6 -3 -9 0h-35q46 9 139 25zM558 26q-57 -12 -164 -36q-57 -8 -113 -17q-72 -12 -126 -42q-2 3 -9 8t-10 7l402 89zM103 254q-4 -15 -29 -40q-1 5 -8 15q16 20 37 25zM471 -60q-13 -3 -38 -15.5t-34 -14.5
q-20 -1 -64 -7h-20q23 17 71 25q42 7 52 20zM349 -53q-22 -13 -68 -32q33 33 46 32h22zM84 -98l-23 -7v8l20 7z" />
    <glyph glyph-name="asciitilde" unicode="~" 
d="M929 802zM493 898q-13 16 -38 49q11 -11 22 -21q13 -15 16 -28zM728 827q-29 -12 -54 -15q-50 -41 -159 -138q-15 18 -49 50q2 0 7 -2t13 -2t75 42l122 76q6 3 13 18.5t12 21.5q9 -18 20 -51zM670 856q-161 -112 -187 -112q-7 0 -30 10q-35 15 -51 20q0 2 3 12.5t3 17.5
q-27 21 -53 42q-20 14 -38 14q-16 0 -21 -5t-19 -36l-13 12q-2 0 -10 -7t-14 -10q0 14 -7 21q29 9 47 36q25 35 30 39t46 19q35 13 49 30q19 -17 68 -70q43 -47 72 -70q16 9 45 35q43 38 47 41q21 -8 33 -39zM349 823q-7 -15 -24 -15q-6 -8 -7 -24q-1 -10 -13 -17l-8 20
q4 21 13 55q20 0 39 -19zM266 802q0 -23 -2 -23q-8 7 -13 7zM682 789z" />
    <glyph glyph-name="Ntilde" unicode="&#xd1;" horiz-adv-x="879" 
d="M878 767q0 -8 -3 -15t-3 -13q-19 -10 -40 0q0 2 -3 9.5t-3 15.5t12 21.5t14 16.5q2 -3 15 -17q11 -10 11 -18zM416 898q-13 16 -38 49l21 -21q13 -15 17 -28zM651 827q-30 -12 -54 -15q-51 -41 -159 -138q-15 18 -49 50q2 0 7 -2t13 -2t75 42l122 76q6 3 13 18.5t12 21.5
q9 -18 20 -51zM593 856q-162 -112 -187 -112q-7 0 -30 10q-35 15 -51 20q0 2 3 12.5t3 17.5q-27 21 -53 42q-20 14 -38 14q-17 0 -21.5 -5t-18.5 -36l-13 12q-2 0 -10 -7t-14 -10q0 14 -7 21q29 9 47 36q24 35 29.5 39t46.5 19q35 13 48 30q20 -17 68 -70q44 -47 73 -70
q16 9 45 35q43 38 47 41q21 -8 33 -39zM814 -63q0 -7 -10 -34q-15 -39 -16 -41t-37 -21q0 20 11 66t11 50q0 7 -15 26.5t-18 28.5t6.5 34.5t9.5 30.5v471q0 7 -14.5 61.5t-14.5 61.5q0 86 28 107q-11 -11 -11 -31l53 -496q0 -7 -12 -109t-12 -109q0 -28 1 -31q3 -8 23 -34
q17 -23 17 -31zM579 464q-7 9 -22 23q-2 0 6 6.5t16 10.5v-40zM272 823q-7 -15 -25 -15q-6 -8 -6 -24q-1 -10 -13 -17l-8 20q4 21 13 55q20 0 39 -19zM189 802q0 -23 -2 -23q-8 7 -14 7zM271 601q-23 19 -63 53q17 1 39 -16t24 -37zM750 -51q0 -9 -8 -37q-12 -39 -13 -42
q-3 27 -38 36q-44 12 -45 13q-56 54 -131 85q-62 24 -125 48q-73 35 -133 98q-60 -30 -83 -63q-3 -5 1 -18q4 -17 4 -21q0 -34 -25 -96h-47q-3 -12 -12 -30q-38 24 -50 24q-7 0 -17.5 -3t-15.5 -3q-14 26 -14 35q0 15 13 39t26 47q7 13 7 26q0 22 -21 59q28 111 28 120
q0 60 -19 94q-17 31 -15 90q1 8 -6 31.5t-7 32.5q0 41 13 151q2 10 17 27q23 25 26 28q7 -12 41 -18t36 -8q36 -33 111 -101q11 -10 38.5 -23t31.5 -15q1 -2 97 -76q130 -102 149 -102q9 0 52 27q0 -10 -3 47.5t-3 161.5q0 37 -14.5 58t-14.5 29t10 39q11 37 14 50
q12 7 49 7q33 0 58 -21q-4 -44 -1 -133q1 -14 14 -52.5t13 -46.5v-461q0 -6 -11.5 -29.5t-11.5 -31.5q0 -7 17.5 -36t17.5 -36zM709 -128l-27 -8l-25 28h19q12 1 33 -20zM395 -46q-5 -1 -15 -8q-3 5 -12.5 16.5t-12.5 17.5q24 -10 40 -26zM272 105q-60 -17 -60 -72
q0 -10 2 -31.5t2 -32.5q0 -54 -47 -81q2 8 -12 35q-3 0 -15 -24l-27 6v16q8 15 22 15q27 -1 26 -1q34 40 34 114q0 15 -3 28q20 31 58 49zM6 98h-9l-6 27h9zM185 -175q-10 -9 -35 1q7 7 27 21q8 -8 8 -22zM73 -91h-27v10h27v-10z" />
    <glyph glyph-name="aacute" unicode="&#xe1;" horiz-adv-x="670" 
d="M562 177q0 -10 -68 -88q-71 -80 -87 -80q-11 0 -33 24q-31 34 -45 44q-31 24 -67 24q-55 0 -118 -9q-26 -4 -48 -39q-18 -32 -15 -50h-22q-31 -1 -70 31l245 613q32 4 42 -14l54 -106q36 -69 82 -138q41 -50 82 -101q68 -85 68 -111zM417 658q-11 -13 -39 -1q2 5 11 17
q0 -4 9.5 -8t18.5 -8zM309 658v0v0v0zM568 338q-45 38 -45 60l8 19q38 -19 37 -35v-44zM505 399h-10l-8 15l10 4zM233 235q-31 -17 -56 -7q10 32 26 90q6 -13 14.5 -41.5t15.5 -41.5zM419 -58l-8 -26l-9 4l8 22h9zM265 -26q-17 0 -17 -24q6 6 17 24zM312 57q-24 24 -40 24
q-114 0 -148 -22q-9 -6 -18 -47q-8 -36 -25 -36q-16 0 -36 10q4 -2 18 -14q10 -9 18 -9h56q10 0 14.5 4.5t3.5 4.5q-7 3 -7 14q0 29 20 50.5t68 21.5q75 -1 76 -1zM259 201v36q0 8 -15 52q-17 48 -20 69q-18 -11 -42 -35q-10 -34 -35 -101q12 -7 23 -14q15 -8 23 -8
q4 0 20.5 -1t25.5 -1q13 0 20 3zM635 150q-77 -102 -180 -187q-9 0 -31 23q3 4 90 93q75 76 75 98q0 23 -156 215q-6 18 -24 53q-81 101 -103 182h24q35 -67 69 -135q43 -82 79 -135q57 -73 157 -207zM506 915q-4 1 -12 0q-8 -2 -11 -2t-4 -2.5t-2 -2.5l-3 20q7 7 10 7h8h3
q3 -7 11 -20zM468 897q-3 4 -10 4q1 1 3.5 6.5t4.5 5.5q0 -1 1 -7t1 -9zM420 832q1 -2 -4.5 -7.5t-6.5 -7.5q-2 1 -5 5t-4 6q1 0 -11 -8q1 3 5 9q-3 1 -7 5q1 2 -3.5 10t-5.5 12t-11 4q0 5 8 9q-10 5 -18 17q9 0 20 -11q2 0 2.5 4t2.5 5q1 -1 4 -6t6 -5q4 0 6 3q0 -26 1 -23
q3 -3 12 -7q4 -11 9 -14zM383 831q-3 -4 -13 -4q-4 0 -13 5.5t-13 5.5q-1 0 -7 -2.5t-22 -2.5q-2 -2 4 -8q-10 2 -20.5 -3l-10.5 -5q-4 0 -3 1q2 3 0 4q-2 -3 -2 -5q-7 5 -17 5h-2q-5 -4 -5 -13l-19 2q-1 0 -3 -4q-3 0 -14.5 -3t-15.5 -3h-5h-2l-8 -8q0 2 -4.5 2t-7.5 1.5
t-6 1.5q-10 0 -24 -10q-4 0 -10 -6q0 8 6 8q3 0 8 7t5.5 8t12.5 6q8 3 8 8q5 3 12 3q0 -6 5 -11q-1 7 -1 22q0 -3 6 -3t25 15q1 3 -2 6q1 0 3 -1t6 -1t21.5 16t20.5 16t14 -5q1 13 22 16q7 -6 27 -6q4 0 3 -1q-2 -3 0 -4l5 5q-1 -5 11 -12q0 -1 -4 -5q11 -12 29 -38z
M384 821q-2 0 -9 -3.5t-11 -3.5q-9 0 -17 8q-16 -16 -19 -16t-3 1v0q0 2 -4 2q-8 0 -4 -4q-4 4 -6 4q-4 0 -5 -3l-1 -3l-6 6q-6 -4 -14 -14q0 3 -2 6q-2 -3 -2 -5q-1 0 -2 2.5t-4 2.5h-16q-2 -3 -3.5 -5.5t-5 -2.5t-5 -3t-4.5 -3t-4 3t-4 3t-11 -7t-12 -7q-3 0 -3 3v0
q0 3 -4 3q-5 0 -5 -1q35 17 32 17q4 0 5.5 -4l1.5 -4q2 1 2 7q4 0 15 1.5t14 1.5t5.5 3.5t4.5 4.5q0 -9 2 -10q3 8 19 10h29q3 3 3 11q0 -1 2 -5q9 10 17 10q3 0 7.5 -4t8.5 -4q3 0 9.5 1t8.5 1zM104 979q-1 0 -13 -7q-8 -4 -16 -2l3 13q11 -4 26 -4zM190 781
q-35 -18 -39 -18q-3 0 -3 1v0q0 2 -3 2q-7 0 -7 -4q0 4 -4 4t-2.5 -3t-1.5 -3q-4 0 -3 1.5t-3 1.5q-2 0 -4 -4t-5 -4h-7.5h-6.5q-4 -4 3 -4q-5 -2 -14 -12h-10q10 16 20 29q1 -1 3 -5h8q6 9 18 8q20 0 22 1v6q8 1 27 9q7 -6 12 -6zM74 739q-6 -10 -10 -10q1 0 10 10z" />
    <glyph glyph-name="eacute" unicode="&#xe9;" horiz-adv-x="617" 
d="M552 572q0 -6 -6.5 -40t-6.5 -48q-7 -2 -76 16q31 -6 41 30q7 23 5 61q2 -1 26 -6q17 -4 17 -13zM519 457q0 -11 -26 -37h-23q-2 23 20 44q3 0 14.5 -3.5t14.5 -3.5zM452 479l-15 -23l-9 6l15 23zM443 506q-23 -16 -72 -19q-13 -8 -27.5 -47t-14.5 -68q0 -24 25 -60h-30
q-40 78 -40 85q0 14 35 109q2 0 24 5q19 4 27 4q7 0 33 -4.5t40 -4.5zM635 135l-16 -15l-15 14v23q20 0 31 -22zM552 218q0 -13 -29 -52q-46 -7 -145 -29q-10 -3 -17.5 -14.5t-7.5 -21.5q-43 0 -43 19q0 7 3.5 22t3.5 21q17 6 53 6h19.5h19.5q46 0 66 11q30 14 30 55
q0 14 -3 30h50v-47zM488 46q0 -13 -24 -22q-17 -6 -27 -6q-8 0 -143.5 3t-143.5 3q-7 0 -25 -6.5t-26 -6.5q1 0 -82 21l32 104q6 23 6 82q0 23 -18 115q-6 33 -8 91q-2 41 -1 93q1 74 1 52q0 9 14 28.5t28 19.5q8 0 30 -6.5t30 -6.5t27 6.5t27 6.5t51 -9.5t51 -9.5
q7 0 28.5 9.5t29.5 9.5t32 -9.5t32 -9.5q6 0 17 6.5t21 6.5q7 0 17 -3.5t17 -3.5q10 -41 -1 -82q-76 12 -110 12q-35 0 -49 -8q-19 -11 -39 -66q-17 -48 -17 -66q0 -13 56 -101q53 -2 160 -15q0 -2 3.5 -8.5t3.5 -15.5q0 -37 -22 -50q-16 -10 -53 -10q-5 0 -16 1h-16
q-40 0 -58 -12q-26 -16 -26 -60q0 -27 36 -43q28 -11 53 -11q7 0 33 12.5t34 12.5q15 0 25 -18.5t10 -29.5zM545 -1q-42 -26 -66 -26q-6 0 -30.5 8.5t-39.5 8.5q-8 0 -136 -5q-120 -5 -184 -4q-8 5 -21 15q20 2 242 2q6 0 32.5 -1t43.5 -1q120 0 120 50q0 10 -4 22h23
q20 -30 20 -69zM99 -102q-12 -7 -18 -7q0 24 10 24q8 -11 8 -17zM549 889q-4 1 -12 0q-8 -2 -11 -2t-4 -2.5t-2 -2.5l-3 20q7 7 10 7h8h3q3 -7 11 -20zM511 871q-3 4 -10 4q1 1 3.5 6.5t4.5 5.5q0 -1 1 -7t1 -9zM463 806q1 -2 -4.5 -7.5t-6.5 -7.5q-2 1 -5 5t-4 6
q1 0 -11 -8q1 3 5 9q-3 1 -7 5q1 2 -3.5 10t-5.5 12t-11 4q0 5 8 9q-10 5 -18 17q9 0 20 -11q2 0 2.5 4t2.5 5q1 -1 4 -6t6 -5q4 0 6 3q0 -26 1 -23q3 -3 12 -7q4 -11 9 -14zM426 805q-3 -4 -13 -4q-4 0 -13 5.5t-13 5.5q-1 0 -7 -2.5t-22 -2.5q-2 -2 4 -8q-10 2 -20.5 -3
l-10.5 -5q-4 0 -3 1q2 3 0 4q-2 -3 -2 -5q-7 5 -17 5h-2q-5 -4 -5 -13l-19 2q-1 0 -3 -4q-3 0 -14.5 -3t-15.5 -3h-5h-2l-8 -8q0 2 -4.5 2t-7.5 1.5t-6 1.5q-10 0 -24 -10q-4 0 -10 -6q0 8 6 8q3 0 8 7t5.5 8t12.5 6q8 3 8 8q5 3 12 3q0 -6 5 -11q-1 7 -1 22q0 -3 6 -3
t25 15q1 3 -2 6q1 0 3 -1t6 -1t21.5 16t20.5 16t14 -5q1 13 22 16q7 -6 27 -6q4 0 3 -1q-2 -3 0 -4l5 5q-1 -5 11 -12q0 -1 -4 -5q11 -12 29 -38zM427 795q-2 0 -9 -3.5t-11 -3.5q-9 0 -17 8q-16 -16 -19 -16t-3 1v0q0 2 -4 2q-8 0 -4 -4q-4 4 -6 4q-4 0 -5 -3l-1 -3l-6 6
q-6 -4 -14 -14q0 3 -2 6q-2 -3 -2 -5q-1 0 -2 2.5t-4 2.5h-16q-2 -3 -3.5 -5.5t-5 -2.5t-5 -3t-4.5 -3t-4 3t-4 3t-11 -7t-12 -7q-3 0 -3 3v0q0 3 -4 3q-5 0 -5 -1q35 17 32 17q4 0 5.5 -4l1.5 -4q2 1 2 7q4 0 15 1.5t14 1.5t5.5 3.5t4.5 4.5q0 -9 2 -10q3 8 19 10h29
q3 3 3 11q0 -1 2 -5q9 10 17 10q3 0 7.5 -4t8.5 -4q3 0 9.5 1t8.5 1zM147 953q-1 0 -13 -7q-8 -4 -16 -2l3 13q11 -4 26 -4zM233 755q-35 -18 -39 -18q-3 0 -3 1v0q0 2 -3 2q-7 0 -7 -4q0 4 -4 4t-2.5 -3t-1.5 -3q-4 0 -3 1.5t-3 1.5q-2 0 -4 -4t-5 -4h-7.5h-6.5q-4 -4 3 -4
q-5 -2 -14 -12h-10q10 16 20 29q1 -1 3 -5h8q6 9 18 8q20 0 22 1v6q8 1 27 9q7 -6 12 -6zM117 713q-6 -10 -10 -10q1 0 10 10z" />
    <glyph glyph-name="iacute" unicode="&#xed;" horiz-adv-x="261" 
d="M374 970q-4 1 -12 0q-8 -2 -11 -2t-4 -2.5t-2 -2.5l-3 20q7 7 10 7h8h3q3 -7 11 -20zM336 952q-3 4 -10 4q1 1 3.5 6.5t4.5 5.5q0 -1 1 -7t1 -9zM288 887q1 -2 -4.5 -7.5t-6.5 -7.5q-2 1 -5 5t-4 6q1 0 -11 -8q1 3 5 9q-3 1 -7 5q1 2 -3.5 10t-5.5 12t-11 4q0 5 8 9
q-10 5 -18 17q9 0 20 -11q2 0 2.5 4t2.5 5q1 -1 4 -6t6 -5q4 0 6 3q0 -26 1 -23q3 -3 12 -7q4 -11 9 -14zM251 886q-3 -4 -13 -4q-4 0 -13 5.5t-13 5.5q-1 0 -7 -2.5t-22 -2.5q-2 -2 4 -8q-10 2 -20.5 -3l-10.5 -5q-4 0 -3 1q2 3 0 4q-2 -3 -2 -5q-7 5 -17 5h-2
q-5 -4 -5 -13l-19 2q-1 0 -3 -4q-3 0 -14.5 -3t-15.5 -3h-5h-2l-8 -8q0 2 -4.5 2t-7.5 1.5t-6 1.5q-10 0 -24 -10q-4 0 -10 -6q0 8 6 8q3 0 8 7t5.5 8t12.5 6q8 3 8 8q5 3 12 3q0 -6 5 -11q-1 7 -1 22q0 -3 6 -3t25 15q1 3 -2 6q1 0 3 -1t6 -1t21.5 16t20.5 16t14 -5
q1 13 22 16q7 -6 27 -6q4 0 3 -1q-2 -3 0 -4l5 5q-1 -5 11 -12q0 -1 -4 -5q11 -12 29 -38zM252 876q-2 0 -9 -3.5t-11 -3.5q-9 0 -17 8q-16 -16 -19 -16t-3 1v0q0 2 -4 2q-8 0 -4 -4q-4 4 -6 4q-4 0 -5 -3l-1 -3l-6 6q-6 -4 -14 -14q0 3 -2 6q-2 -3 -2 -5q-1 0 -2 2.5
t-4 2.5h-16q-2 -3 -3.5 -5.5t-5 -2.5t-5 -3t-4.5 -3t-4 3t-4 3t-11 -7t-12 -7q-3 0 -3 3v0q0 3 -4 3q-5 0 -5 -1q35 17 32 17q4 0 5.5 -4l1.5 -4q2 1 2 7q4 0 15 1.5t14 1.5t5.5 3.5t4.5 4.5q0 -9 2 -10q3 8 19 10h29q3 3 3 11q0 -1 2 -5q9 10 17 10q3 0 7.5 -4t8.5 -4
q3 0 9.5 1t8.5 1zM-28 1034q-1 0 -13 -7q-8 -4 -16 -2l3 13q11 -4 26 -4zM58 836q-35 -18 -39 -18q-3 0 -3 1v0q0 2 -3 2q-7 0 -7 -4q0 4 -4 4t-2.5 -3t-1.5 -3q-4 0 -3 1.5t-3 1.5q-2 0 -4 -4t-5 -4h-7.5h-6.5q-4 -4 3 -4q-5 -2 -14 -12h-10q10 16 20 29q1 -1 3 -5h8
q6 9 18 8q20 0 22 1v6q8 1 27 9q7 -6 12 -6zM-58 794q-6 -10 -10 -10q1 0 10 10zM20 748q0 -6 -2.5 -12t-2.5 -10q-6 0 -16 -11q-12 12 -12 17q0 6 6 16q10 14 10 15q1 -1 9 -4t8 -11zM131 623q-2 -1 -8.5 -10.5t-11.5 -14.5q0 6 20 25zM-13 761q-3 -2 -8.5 -11t-8.5 -11
l-11 13q2 0 12 4.5t16 4.5zM235 272l-12 11l7 55q0 -9 2.5 -32.5t2.5 -33.5zM206 301h-9v22h9v-22zM208 505q0 -5 -8 -28t-9 -33q-1 -49 -5 -150l6 -6q6 -134 0 -175q-15 -11 -39 -11q-7 0 -15 8q4 0 17.5 3t20.5 3q4 20 1 83q-2 28 -7 93q-4 57 -4 63q0 3 11 77
q11 79 13 118h18v-45zM175 538q0 -5 -5 -40q-6 -39 -7 -59q-1 -6 -6 -52q-4 -36 -4 -56q0 -23 5 -88q5 -80 6 -106q-20 -16 -43 -16q9 0 -124 15v437q6 -7 14 -7q5 0 15 3.5t15 4t19 0.5q6 0 47 -9.5t47 -9.5q7 0 13.5 2t7.5 2v-21zM202 65q-13 13 -4 13q4 -9 4 -13zM147 63
h-23v8h23v-8zM119 104q-66 -1 -98 2v10q78 -7 98 -12zM237 -27q-13 -10 -13 -28q0 -7 3 -16q-41 -15 -54 -15h-20l-10 13q8 -9 26 -9q20 0 38 28q8 11 8 62q22 -22 22 -35zM199 -18q0 -16 -10.5 -30.5t-22.5 -14.5q-6 0 -28.5 5t-27.5 5q-29 0 -98 -14q-6 11 -9 32
q-6 31 -6 33q5 0 16 -2t16 -2q6 0 13.5 5.5t12.5 6.5q60 11 121 11q23 0 23 -35zM152 -102q-5 -14 -18 -36q0 1 -3 19q-4 15 -1 23q6 -6 22 -6zM93 -75q-3 0 -7.5 -6t-4.5 -9h-32q0 11 -8 11q7 0 24.5 2t27.5 2zM-19 -53q-7 0 -17 -9q3 7 6 25.5t5 25.5q6 -13 6 -42zM-45 -7
l-5 -18l-7 2l6 16h6z" />
    <glyph glyph-name="ntilde" unicode="&#xf1;" horiz-adv-x="809" 
d="M751 715h-11v52h11v-52zM414 824q-16 4 -45 29.5t-28 41.5v23q36 -27 73 -94zM578 790q-6 2 -18.5 -7.5t-23.5 -18.5q-16 -5 -33 -10q-27 -11 -23 -32q-31 -19 -89 -49q-16 15 -23 15q30 43 90 80q56 35 106 47q0 -10 14 -25zM504 818q-30 -8 -80 -45q-53 -39 -66 -66
q-84 67 -132 150q-18 -4 -37.5 -30.5t-21.5 -44.5q-4 4 -14 3q-18 -3 -15 -3q-4 3 -8.5 12t-7.5 12q50 33 99 65q61 40 71 40q12 0 48 -58t65 -58q8 0 32 19q39 32 45 35q-2 -7 22 -31zM708 165q0 -8 -12 -96q-14 -99 -18 -139q-9 12 -9 32q0 14 6 44t6 43q0 7 -11 46
q-12 45 -15 62q-9 59 -19 158q-10 89 -10 105q0 6 11.5 55t13.5 72q1 16 -1 63q-2 65 -2 129q13 8 28 8zM244 791q-13 0 -27 -14q0 -3 6 -15.5t6 -20.5q-4 3 -11 10t-11 10q-19 -19 -30 -19q15 47 52 73q0 -9 15 -24zM219 618l-7 -9l-71 57l6 9zM654 56q2 -34 -17 -86
q-17 35 -34 35q-8 0 -14.5 -3.5t-16.5 -3.5q-9 0 -40 33l-48 54q-15 15 -112 66q-111 58 -151 58q-28 0 -92 -52q27 -41 27 -57q0 -21 -14 -48t-27 -27q-7 0 -7 2q0 1 1 3q-1 2 -8 2q-8 0 -20 -10.5t-20 -10.5q-10 0 -41 16q13 51 -14 68q3 9 17 22q12 10 24 21
q-15 18 -29 37q-19 24 -19 34q0 8 11.5 34t13.5 38q1 9 -5 34.5t-4 40.5q4 86 9 172q10 106 39 172q21 -11 74.5 -56t78.5 -59q75 -40 230 -132q3 -11 3 -41q24 -12 38 -12q25 0 25 74q0 26 -4 82t-4 76q0 14 1 24q7 11 17 34q2 14 -11 42q18 8 56 35h58q-14 -10 -14 -21
q0 -5 3 -14.5t3 -14.5q9 -92 9 -150q0 -47 -27 -137zM612 -35q-17 0 -26 9q5 2 17 10q9 -13 9 -19zM492 50l-8 -6l-23 23l7 7zM353 36h-25v12h25v-12zM401 109q-118 54 -172 46q-25 -31 -31 -71q16 -12 16 -31q0 -25 -33 -69q-2 0 -14.5 7t-20.5 7q-9 0 -25 -9
q-19 -10 -23 -12q-10 9 -17 9q5 6 11 12.5t16 6.5q68 0 68 89q0 43 -13 57q33 38 58 38q12 0 72.5 -27t107.5 -53zM8 166l-8 -6l-9 10l7 7zM172 -83h-12v25h12v-25z" />
    <glyph glyph-name="oacute" unicode="&#xf3;" horiz-adv-x="664" 
d="M448 725q-11 -5 -37 8q5 0 18 12q5 0 12 -6t7 -14zM612 471q0 -7 -6 -20q-5 -9 -9 -19q-1 -2 7 -15q-1 -12 1 -36q3 -30 3 -40q0 -17 -4 -28q-17 -62 -21 -72q-14 -42 -34 -65q-32 -39 -258 -110q-7 0 -17 8q-13 10 -15 11q73 39 105 44q65 12 83 18q45 16 71 49
q20 25 41 75q20 47 20 59l-7.5 56t-7.5 85q0 5 4.5 16.5t3.5 15.5q-4 20 -20 56q16 0 19 -5.5t25 -44.5q16 -29 16 -38zM557 324q0 -7 -18 -49t-33 -66q-17 -28 -75 -49q-36 -6 -103 -25q-5 -2 -39 -18q-26 -13 -33 -13t-23 14q-26 22 -28 23q-21 15 -71 31q-10 27 -42 53
q-37 30 -52 55q-10 16 -19 49q-7 29 -7 42q0 62 86 167q89 109 150 111q5 2 16 7q11 1 38 5q24 3 31 3q20 0 92 -34q67 -32 91 -50q11 -8 21 -31t18 -45v-180zM95 567q-47 0 -54 1q7 6 47 20q7 -7 7 -21zM41 601q-16 2 -32 -6q16 10 32 6zM606 -101q-22 -12 -40 -12
q-7 0 -64 11t-64 11q-6 0 -30 -6q-28 -8 -44 -10q-7 6 -7 20q10 1 31.5 6.5t27.5 5.5q7 0 56 -11t56 -11q28 0 57 15q0 1 -12 29q-10 22 -10 30v18q29 -2 42 6q-2 -84 1 -102zM308 17q0 -19 -24 -27q-18 -5 -35 -10q8 19 27 59h19q13 -12 13 -22zM557 -74q-3 0 -13 -3
t-16 -3q-7 0 -56 10.5t-56 10.5q-5 0 -23 -5.5t-26 -5.5q-7 0 -20.5 3t-19.5 3q-88 0 -174 -13q-4 -1 -14 -7.5t-16 -6.5q-8 0 -81 27q-2 26 6 49h22q7 0 67.5 -16.5t66.5 -16.5q5 0 54 15q54 17 79 21q141 24 155 24q7 0 26 -3t28 -3q0 -26 11 -80zM259 45q0 -25 -41 -66
q-40 44 -40 73q0 5 1 9q14 -6 29 -6q20 0 37 11q14 -13 14 -21zM389 -120q-5 -6 -9 -12q-7 -8 -15 -8q-14 0 -35 26q32 -9 59 -6zM286 -87q-51 -21 -63 -19h-84q51 22 85 19h62zM111 -110l-36 6v9l36 -5v-10zM161 -170l-14 -14q-13 14 -22 14h36zM492 346q0 8 -7.5 32
t-8.5 28q-2 12 4 37t5 34q-2 22 -15 46.5t-28 34.5q-23 16 -76 32q-45 14 -58 14q-21 0 -107 -98q-45 -53 -89 -105q22 -53 66 -153q15 -4 38 -15q10 -7 33 -18q28 -13 39 -13q29 0 94 44q48 31 71 53q39 36 39 47zM460 398q0 -12 -8 -40q-10 -33 -22 -46q-15 -17 -55 -35
q-35 -15 -48 -15q-8 0 -15 8q-13 15 -15 17q19 2 39 4q25 4 38 15q19 17 33 56l22 68q31 -15 31 -32zM432 541q-16 -2 -41 0q-6 2 -27 15q-16 10 -24 10q-16 0 -36 -22q-28 -32 -41 -41q-11 -1 -33 -4q-75 -114 -75 -131q0 -5 17 -44q19 -46 25 -67q-63 127 -63 138
q0 4 52 68q55 68 91 108q16 17 31 17t124 -47zM411 428q-14 -36 -47 -104q-1 -1 -39 -14q-26 -10 -34 -10q-27 0 -59 51q-28 43 -28 58q0 7 35 76q28 -11 52 -11q5 0 22 5.5t24 5.5q9 0 34 -22q39 -34 40 -35zM567 972q-4 1 -12 0q-8 -2 -11 -2t-4 -2.5t-2 -2.5l-3 20
q7 7 10 7h8h3q3 -7 11 -20zM529 954q-3 4 -10 4q1 1 3.5 6.5t4.5 5.5q0 -1 1 -7t1 -9zM481 889q1 -2 -4.5 -7.5t-6.5 -7.5q-2 1 -5 5t-4 6q1 0 -11 -8q1 3 5 9q-3 1 -7 5q1 2 -3.5 10t-5.5 12t-11 4q0 5 8 9q-10 5 -18 17q9 0 20 -11q2 0 2.5 4t2.5 5q1 -1 4 -6t6 -5
q4 0 6 3q0 -26 1 -23q3 -3 12 -7q4 -11 9 -14zM444 888q-3 -4 -13 -4q-4 0 -13 5.5t-13 5.5q-1 0 -7 -2.5t-22 -2.5q-2 -2 4 -8q-10 2 -20.5 -3l-10.5 -5q-4 0 -3 1q2 3 0 4q-2 -3 -2 -5q-7 5 -17 5h-2q-5 -4 -5 -13l-19 2q-1 0 -3 -4q-3 0 -14.5 -3t-15.5 -3h-5h-2l-8 -8
q0 2 -4.5 2t-7.5 1.5t-6 1.5q-10 0 -24 -10q-4 0 -10 -6q0 8 6 8q3 0 8 7t5.5 8t12.5 6q8 3 8 8q5 3 12 3q0 -6 5 -11q-1 7 -1 22q0 -3 6 -3t25 15q1 3 -2 6q1 0 3 -1t6 -1t21.5 16t20.5 16t14 -5q1 13 22 16q7 -6 27 -6q4 0 3 -1q-2 -3 0 -4l5 5q-1 -5 11 -12q0 -1 -4 -5
q11 -12 29 -38zM445 878q-2 0 -9 -3.5t-11 -3.5q-9 0 -17 8q-16 -16 -19 -16t-3 1v0q0 2 -4 2q-8 0 -4 -4q-4 4 -6 4q-4 0 -5 -3l-1 -3l-6 6q-6 -4 -14 -14q0 3 -2 6q-2 -3 -2 -5q-1 0 -2 2.5t-4 2.5h-16q-2 -3 -3.5 -5.5t-5 -2.5t-5 -3t-4.5 -3t-4 3t-4 3t-11 -7t-12 -7
q-3 0 -3 3v0q0 3 -4 3q-5 0 -5 -1q35 17 32 17q4 0 5.5 -4l1.5 -4q2 1 2 7q4 0 15 1.5t14 1.5t5.5 3.5t4.5 4.5q0 -9 2 -10q3 8 19 10h29q3 3 3 11q0 -1 2 -5q9 10 17 10q3 0 7.5 -4t8.5 -4q3 0 9.5 1t8.5 1zM165 1036q-1 0 -13 -7q-8 -4 -16 -2l3 13q11 -4 26 -4zM251 838
q-35 -18 -39 -18q-3 0 -3 1v0q0 2 -3 2q-7 0 -7 -4q0 4 -4 4t-2.5 -3t-1.5 -3q-4 0 -3 1.5t-3 1.5q-2 0 -4 -4t-5 -4h-7.5h-6.5q-4 -4 3 -4q-5 -2 -14 -12h-10q10 16 20 29q1 -1 3 -5h8q6 9 18 8q20 0 22 1v6q8 1 27 9q7 -6 12 -6zM135 796q-6 -10 -10 -10q1 0 10 10z" />
    <glyph glyph-name="uacute" unicode="&#xfa;" horiz-adv-x="630" 
d="M628 328q0 -5 -5.5 -13.5t-9.5 -8.5q-3 3 -2 14q2 17 2 14q10 -6 15 -6zM355 542h-15v10h15v-10zM390 254l-16 -7v8l13 7zM560 263q0 -6 -9.5 -34.5t-11.5 -39.5q-4 -58 -21 -171q-3 -13 -21 -29t-35 -23q-51 -18 -81 -18q-7 0 -13 4q-9 6 -14 7q-14 -18 -26 -22
q-4 -1 -26 -1q-16 0 -88 15q44 3 89 6q53 5 83 15q39 18 116 54q4 58 9 116q7 68 25 105q1 3 1 9q0 9 -5 28.5t-5 24.5v240q9 0 22 -12v-229q0 -7 5.5 -22.5t5.5 -22.5zM314 135q-3 6 -22 27q-16 17 -16 24t4.5 23t5.5 20q2 17 -1 48l-3 38v141q0 5 4 28t4 32q16 -17 16 -45
l-9 -60q15 -29 15 -83q0 -17 -1 -44q-2 -35 -3 -44q0 -3 -8 -18.5t-7 -26.5q8 -21 21 -60zM563 35l-14 -20l-8 5l14 20zM606 19q-23 -31 -65 -53q30 41 38 72q8 0 27 -19zM521 263q0 -7 -10.5 -21t-11.5 -19q-13 -92 -13 -189q-15 -4 -51.5 -22t-58.5 -23q-39 -9 -115 -17
q-63 -7 -81 -7q-66 0 -141 54q0 16 -8 51.5t-9 50.5q-2 23 7 70t9 49l-23 280q4 2 17 11q10 8 17 8t24 -11.5t24 -11.5t25.5 8.5t26.5 8.5q5 0 21.5 -3t23.5 -3q26 0 51 17q16 -15 23 -30q3 -5 0 -18q-3 -17 -3 -22v-274q0 -6 -5.5 -12t-5.5 -13q0 -13 61 -62q23 -18 32 -18
q12 0 81 44q1 21 5 80q2 48 2 55q0 54 -10.5 116.5t-11.5 170.5q14 5 43 29q23 -27 47 -41v-224q1 -7 9.5 -31t8.5 -31zM375 165h-10v15h10v-15zM-2 531q-8 -8 -34 -6q2 0 14.5 3t19.5 3zM557 -114h-9l-7 19l9 3zM392 -64q11 -22 0 -34q0 3 -6.5 13.5t-6.5 13.5q13 5 13 7z
M533 845q-5 1 -13 -0.5t-11 -1.5t-3.5 -2.5t-1.5 -2.5l-3 20q6 6 9 6t8 1h3q4 -8 12 -20zM494 827q-3 3 -9 3q1 1 3.5 6.5t3.5 5.5q0 -1 1 -6.5t1 -8.5zM447 762q0 -3 -5.5 -8.5t-6.5 -7.5q-1 2 -4 6t-5 5q1 0 -11 -8q1 4 5 9q-3 2 -6 6q1 2 -3.5 9.5t-5.5 12t-11 4.5
q0 5 7 9q-10 5 -18 17q9 -1 21 -11q1 0 2 3.5t2 4.5q1 0 4 -5t7 -5q3 0 6 2q0 -25 1 -23q2 -3 12 -6q3 -11 9 -14zM409 761q-3 -4 -13 -4q-3 0 -12.5 5.5t-12.5 5.5q-2 0 -8 -3t-21 -3q-2 -2 3 -7q-9 2 -20 -3.5l-11 -5.5q-3 0 -2 2q1 3 0 4q-2 -3 -2 -6q-8 5 -17 6h-3
q-4 -4 -4 -13l-20 2q-1 0 -3 -5q-2 0 -14 -3t-15 -3h-5.5h-2.5l-8 -8q1 3 -6 3q-3 0 -6 1.5t-6 1.5q-10 0 -24 -10q-3 -1 -9 -7q0 8 4.5 8t9 7.5t5.5 8t11 5t9 8.5q5 3 13 3q0 -6 4 -10q0 7 -1 21q0 -2 6 -2t25 15q1 3 -2 5q1 0 3.5 -1t6.5 -1q3 0 20.5 16.5t20.5 16.5
t14 -6q2 14 23 16q6 -5 26 -5q4 0 3 -2t0 -3l5 5q-1 -5 11 -12q0 -1 -4 -5q11 -12 29 -38zM411 750q-3 0 -10 -3t-10 -3q-10 0 -18 8q-16 -16 -19 -16t-3 1v0q0 1 -3 1q-8 0 -4 -4q-4 4 -7 4q-4 0 -5 -2.5l-1 -2.5l-6 5q-5 -4 -13 -13q0 3 -3 5q-2 -2 -2 -5q-1 0 -1.5 2.5
t-4.5 2.5h-16l-2.5 -5t-5.5 -3t-5 -2.5t-5 -2.5q-3 0 -3.5 2.5t-4.5 2.5q-3 0 -11 -6.5t-11 -6.5q-4 0 -4 2v0q0 3 -3 3h-6q36 16 33 16q4 0 5 -3.5t1 -4.5q2 2 2 8q4 0 15 1.5t14 1.5t5.5 3.5t4.5 4.5q0 -9 2 -11q4 9 19 10t29 1q3 3 3 11q0 -2 3 -6q9 11 16 11q3 0 8 -4
t8 -4t10 1h9zM131 909q-2 -1 -12 -6.5t-18 -2.5l4 12q11 -3 26 -3zM216 710q-35 -17 -38 -17q-4 0 -4 1v0q0 1 -3 1q-7 0 -7 -4q0 4 -4 4q-3 0 -2 -2.5t-2 -2.5t-2.5 1.5t-2.5 1.5t-5 -4t-5 -4h-7h-7q-4 -4 4 -4q-5 -2 -14 -12h-10q10 15 20 29q0 -1 3 -5h7q7 8 18 8h22v6
q9 1 27 10q7 -7 12 -7zM101 668q-7 -10 -11 -9q1 0 11 9z" />
    <glyph glyph-name="cent" unicode="&#xa2;" horiz-adv-x="585" 
d="M517 699q-38 -20 -42 -20l-13 13q0 7 19 26q12 -7 36 -19zM395 525h-32q1 13 -1 49.5t-2 52.5q0 4 -9.5 21t-9.5 24v29q17 0 17 6q27 -21 24 -37q-1 -4 -7 -14.5t-6 -16.5q5 -40 26 -114zM528 372q0 -8 -13.5 -26.5t-25.5 -29.5q-35 -29 -66 -29q-5 0 -23 4t-26 4
q49 -2 78 34q27 32 27 82q0 38 -17 73q8 0 27 -7q5 -26 18 -76l11 -11t10 -18zM213 637q-31 -13 -24 -46q-3 5 -31 19q30 20 41 41zM390 388q-79 105 -159 210q0 -2 -1 -4q73 -107 146 -213q-10 10 -18 29v26q20 -13 32 -48zM313 472q-28 -12 -46 -27q-13 -17 -42 -46
q0 -41 -3 -119q8 6 7 -7v-42q-55 69 -55 80q0 5 22 58q23 60 30 86q3 2 18 18q13 13 19 13q22 0 50 -14zM506 257q-17 -38 -53 -112q-24 -8 -49 -15q-31 -10 -47.5 -21.5t-27.5 -41.5t-11 -54q0 -30 7 -39q15 -19 20 -35q-8 0 -30.5 -11.5t-29.5 -11.5q-14 0 -36 25t-23 44
q-1 16 4.5 41t5.5 36q0 20 -13 38q-10 12 -47 33q-44 24 -56 34q-40 33 -77 105q-4 8 10 44l-39 40q15 25 46 68q31 33 83 77.5t62 44.5q7 0 5.5 -2.5t5.5 -2.5q9 0 22.5 16t13.5 25q0 3 -33 118q34 12 49 12q7 0 18.5 -13.5t17.5 -13.5q8 0 12.5 5t6.5 5q-1 -10 9 -35
q11 -28 12 -39q1 -35 3 -104q6 -11 25 -11q3 0 10 1h12q18 0 28 -7q14 -11 27 -41.5t13 -44.5q0 -106 -126 -99q-20 29 -62 107q11 11 71 41q0 -4 -5 -19t-5 -22q0 -14 36 -75q41 38 41 45q0 11 -15 39.5t-33.5 41.5t-54.5 22q-28 7 -43 7q-12 0 -29 -11q-20 -13 -28 -31
q-16 -34 -33.5 -87t-17.5 -64q0 -22 93 -138q5 -1 34 -1q52 0 105 27q-5 45 7 73q11 0 39 5.5t34 5.5q12 0 36 -24zM298 254h-8l-7 13l8 3zM545 234q0 -10 -13 -47q-15 -41 -28 -60q-16 -21 -46 -39q-26 -15 -52 -29q-3 -14 -12 -32q-8 1 -20 -10t-12 -21q0 -16 39 -55
q-14 -23 -39 -42q-27 -22 -47 -22q-5 0 -21 3.5t-24 3.5v21q6 -5 18 -5q8 0 38 11q47 18 53 20q-44 55 -44 74q0 10 8 40.5t16 44.5q8 4 52 15q31 8 46 22q28 25 47 69q13 37 27 74q14 -28 14 -36zM439 -50q-5 3 -10 7t-5 12v36q5 -22 15 -55zM209 92l-6 -6l-13 14l5 5z
M151 27q-15 11 -20 11v21q6 -2 20 -32zM119 321q-9 9 -20.5 26t-16.5 22l5 -54q7 0 18 3t14 3z" />
    <glyph glyph-name="acute" unicode="&#xb4;" horiz-adv-x="899" 
d="M725 981q-4 1 -12 0q-8 -2 -11 -2t-4 -2.5t-2 -2.5l-3 20q7 7 10 7h8h3q3 -7 11 -20zM687 963q-3 4 -10 4q1 1 3.5 6.5t4.5 5.5q0 -1 1 -7t1 -9zM639 898q1 -2 -4.5 -7.5t-6.5 -7.5q-2 1 -5 5t-4 6q1 0 -11 -8q1 3 5 9q-3 1 -7 5q1 2 -3.5 10t-5.5 12t-11 4q0 5 8 9
q-10 5 -18 17q9 0 20 -11q2 0 2.5 4t2.5 5q1 -1 4 -6t6 -5q4 0 6 3q0 -26 1 -23q3 -3 12 -7q4 -11 9 -14zM602 897q-3 -4 -13 -4q-4 0 -13 5.5t-13 5.5q-1 0 -7 -2.5t-22 -2.5q-2 -2 4 -8q-10 2 -20.5 -3l-10.5 -5q-4 0 -3 1q2 3 0 4q-2 -3 -2 -5q-7 5 -17 5h-2
q-5 -4 -5 -13l-19 2q-1 0 -3 -4q-3 0 -14.5 -3t-15.5 -3h-5h-2l-8 -8q0 2 -4.5 2t-7.5 1.5t-6 1.5q-10 0 -24 -10q-4 0 -10 -6q0 8 6 8q3 0 8 7t5.5 8t12.5 6q8 3 8 8q5 3 12 3q0 -6 5 -11q-1 7 -1 22q0 -3 6 -3t25 15q1 3 -2 6q1 0 3 -1t6 -1t21.5 16t20.5 16t14 -5
q1 13 22 16q7 -6 27 -6q4 0 3 -1q-2 -3 0 -4l5 5q-1 -5 11 -12q0 -1 -4 -5q11 -12 29 -38zM603 887q-2 0 -9 -3.5t-11 -3.5q-9 0 -17 8q-16 -16 -19 -16t-3 1v0q0 2 -4 2q-8 0 -4 -4q-4 4 -6 4q-4 0 -5 -3l-1 -3l-6 6q-6 -4 -14 -14q0 3 -2 6q-2 -3 -2 -5q-1 0 -2 2.5
t-4 2.5h-16q-2 -3 -3.5 -5.5t-5 -2.5t-5 -3t-4.5 -3t-4 3t-4 3t-11 -7t-12 -7q-3 0 -3 3v0q0 3 -4 3q-5 0 -5 -1q35 17 32 17q4 0 5.5 -4l1.5 -4q2 1 2 7q4 0 15 1.5t14 1.5t5.5 3.5t4.5 4.5q0 -9 2 -10q3 8 19 10h29q3 3 3 11q0 -1 2 -5q9 10 17 10q3 0 7.5 -4t8.5 -4
q3 0 9.5 1t8.5 1zM323 1045q-1 0 -13 -7q-8 -4 -16 -2l3 13q11 -4 26 -4zM409 847q-35 -18 -39 -18q-3 0 -3 1v0q0 2 -3 2q-7 0 -7 -4q0 4 -4 4t-2.5 -3t-1.5 -3q-4 0 -3 1.5t-3 1.5q-2 0 -4 -4t-5 -4h-7.5h-6.5q-4 -4 3 -4q-5 -2 -14 -12h-10q10 16 20 29q1 -1 3 -5h8
q6 9 18 8q20 0 22 1v6q8 1 27 9q7 -6 12 -6zM293 805q-6 -10 -10 -10q1 0 10 10z" />
    <glyph glyph-name="questiondown" unicode="&#xbf;" horiz-adv-x="653" 
d="M153 -138q-12 -12 -19 -12q-4 0 -7 5q3 7 11 23zM384 712q-19 -7 -59 -23t-59 -23q-5 8 -5 12q8 4 38 23q27 17 32 17q4 0 24 -3t29 -3zM470 636q0 -19 -37 -80q-4 -1 -29 -13q-20 -10 -26 -10q-11 0 -31 10q-11 6 -29 23q-28 26 -30 29t-2 7q0 6 4.5 13.5t4.5 11.5
q0 10 -13 25q57 40 113 40q75 0 75 -56zM571 407v0v0v0zM547 411q-11 -1 -37 -10q0 4 18 34q14 -15 19 -24zM221 679q0 -18 -1 -21q-9 13 -9 15q0 6 10 6zM324 543q-31 21 -85 65q4 11 13 30l-7 9q11 -11 19 -11q7 0 7 7q0 -3 3.5 -7t3.5 -6q-9 -19 -10 -38q17 -11 56 -49z
M507 231q-6 0 -17 -10q1 0 -15 16q11 -6 32 -6zM517 92q0 -16 -9 -42q-14 -35 -36 -35q-4 0 -12 4.5t-13 4.5q4 0 -24 -8q9 5 13 23q3 11 5 22q12 10 28 30q14 38 14 42q0 5 -7 15q-9 14 -10 15l10 11q12 -6 23.5 -24t14.5 -30q-4 -11 -4 -18q0 -5 7 -10zM453 250
q-19 -14 -122 -79q1 -5 0 -14q-2 -11 -2 -16q0 -21 3 -29q5 -13 22 -23q-21 2 -33 -5v39q-4 26 -31 43q3 -1 11 -5q7 3 12 15.5t9 16.5q18 16 48.5 32.5t39.5 16.5q6 0 11 -4l12 12h20zM167 380l-11 -10l-4 4l10 11zM646 69q-43 -47 -117 -121q-12 -2 -30 -7q-7 -12 -26 -32
q-6 -4 -25 -6t-25.5 -4.5t-39.5 -20.5q-25 -13 -31 -13q-15 0 -51 6q-48 9 -70 21q-18 23 -64 66q-30 20 -60 41q-40 30 -51 60q-6 15 -6 55q0 4 4.5 3t4.5 5q0 9 -6 32q10 37 51 93.5t71 78.5q25 17 73 38q67 28 78 33q7 4 16 31q-12 12 -17 12v15q0 6 10 6q5 0 18 -6.5
t19 -6.5t20.5 15.5t19.5 18.5h19q-1 -6 5 -16.5t11 -19.5q-1 -6 3 -21q8 -11 24 -35q-5 -8 -52 -49q-35 -31 -35 -51q0 -4 1 -8q-1 0 -9.5 3.5t-13.5 3.5t-7 -4t-8 -4q-5 0 -6 4t-7 4t-8 -6t-2 -7q-3 3 -7 9l-6 9q-18 -13 -49 -42q-18 -25 -38 -68q-18 -39 -18 -49
q0 -11 14 -51q17 -46 32.5 -64t51.5 -32q31 -12 43 -12q14 0 56 17.5t41 17.5q4 0 13 -4.5t14 -4.5q8 0 28 21t27 38q1 3 1 31l-6 5q5 7 5 17q0 39 -48 77q-19 -10 -44 -37q6 -15 -2 -62h-14q-9 0 -48 5q-9 7 -27 17v55q37 21 109 65q7 -8 26 -31q26 13 28 13q19 0 47 -20
t37 -36q5 -10 19 -69q8 -6 34 -22zM131 380q-5 0 -14 -9l-11 10v15q7 0 24 9q9 -9 1 -25zM309 189l-6 -12l-6 3l6 11zM277 202q-1 -6 -9.5 -11.5t-19.5 -3.5q6 18 19 25zM384 481q1 -4 -4 -10t-13 -6q-6 0 -19 5q-19 6 -25 8q-11 -17 -11 -31q0 -15 12 -27q-17 -16 -72 -41
q-66 -30 -87 -44q-1 -1 -31 -36q-37 -44 -54 -67q-29 -39 -42 -70q0 -1 6 -33q1 -2 -3 -6t-4 -9q0 -33 2 -41q4 -26 24 -48q-24 2 -41 28q-15 23 -15 46q0 4 11 32.5t14 40.5q1 7 2 40q0 24 9 38q55 81 197 149q15 0 51 5q0 -4 -14 21q17 7 25 17q0 2 -6 21q4 11 20 25
q14 11 17 11q17 0 51 -18zM402 4q-28 -10 -50 -10q-15 0 -40 12q2 2 22 13q15 9 20 9q12 0 48 -24zM170 -61q-51 6 -72 45q23 -15 72 -45z" />
    <glyph glyph-name="exclamdown" unicode="&#xa1;" horiz-adv-x="342" 
d="M379 87l-3 8l-14 -7l3 -8zM340 -82q-25 54 -48.5 151t-43.5 143q-9 22 -10 92q4 20 7 61q-25 21 -25 35q0 7 4 16q-6 -8 -30 -17.5t-40 -9.5q-6 0 -19.5 1.5t-18.5 1.5q28 -14 46 -14q7 0 14 3t12 3q30 -67 33 -113q1 -12 -5.5 -40t-5.5 -41q1 -11 18 -43q18 -35 23 -52
q1 -6 12 -80q9 -63 24 -97q17 9 53 0zM268 -93q-3 8 -39 200q-14 22 -35 77q-5 20 7 64q2 8 2 18q0 35 -28 93q-12 1 -45 7t-51 6q-17 -12 -19 -65q-1 -37 -1 -74q-8 -37 -19 -104q-2 -47 -3 -94q-5 -59 -20 -105q43 -9 72 -9q17 0 36 3.5t29 3.5q7 0 23 -17q25 -28 29 -32
q8 7 8 34q5 0 15.5 2t17.5 2q10 0 21 -10zM298 287l-18 31l-7 -4l18 -30zM37 246q-12 -36 -6 -60q0 19 6 60zM313 550q0 12 -9 45q-10 38 -20 55q-15 3 -61 17q-40 12 -47 12q-8 0 -17 -3.5t-10 -3.5q42 -35 105 -31q0 -16 5.5 -50.5t5.5 -50.5q0 -28 -11 -47q59 45 59 57z
M247 537q0 3 -3 37t-3 50q-6 -2 -12 -2q-17 0 -59.5 18t-59.5 18q-5 0 -10 -1l-42 -64q-30 -48 -30 -70q0 -21 36 -69q4 6 24 6q7 0 44 -11t44 -11q27 0 52 45q19 37 19 54zM50 613q0 8 -6 16.5t-6 10.5q-14 0 -26 -13q6 -11 24 -30q5 2 9.5 5t4.5 11z" />
    <glyph glyph-name="nonbreakingspace" unicode="&#xa0;" horiz-adv-x="303" 
 />
    <glyph glyph-name="endash" unicode="&#x2013;" 
d="M916 130q0 -8 -8.5 -35.5t-8.5 -38.5q-13 22 -31 22v112q48 -41 48 -60zM838 66q-91 -15 -149 -6q3 -1 38 17zM787 -18h-26v12h26v-12zM852 137q0 -19 -9 -39q-8 3 -25 3q-33 0 -105 -12t-74 -12q-32 0 -111 26q-11 3 -29 4q-12 0 -32 -1t-23 -1q3 0 -250 -21l-24 25
q11 14 29 36q-10 18 -28 59h73q10 0 125.5 -14t123.5 -14q7 0 95 21.5t97 21.5q13 0 54 -9.5t58 -9.5q15 0 23 5q24 -21 30 -37q2 -7 2 -31zM540 73q-7 -1 -66 -15q-41 -9 -52 -9q-4 0 -72 8.5t-101 8.5q27 1 105 8q75 7 113 7q45 0 73 -8zM511 -31q-2 -7 -10 -20
q-4 4 -16.5 13.5t-15.5 12.5q2 0 18 -3t24 -3z" />
    <glyph glyph-name="emdash" unicode="&#x2014;" horiz-adv-x="1021" 
d="M988 189q-18 0 -53 12q0 5 -3 17.5t-3 20.5q0 31 34 33q13 -14 19 -14q-8 -7 -23 -20q8 -17 29 -49zM730 348q-6 -7 -6 -21q-14 0 -35 21h41zM827 220q-7 1 -59 -8q0 3 3 14.5t3 14.5q22 -11 53 -21zM855 163q0 -3 -6 -14.5t-6 -14.5q-41 21 -49 21q36 0 61 8zM731 211
q-2 -1 -30 -18q-18 -11 -27 -11q-8 0 -29 6t-28 6t-36 -2t-42 -2q29 7 77.5 11.5t96.5 8.5q-9 6 -24 24q23 0 42 -23zM928 282q-22 -22 -22 -30q0 -4 4 -21q-5 0 -19 -3.5t-22 -3.5q-20 0 -105 42q-11 -18 -11 -36q-44 30 -58 30q-7 0 -34 -34q-19 -1 -66 -7.5t-53 -6.5
q-7 0 -30.5 12t-29.5 12q-8 0 -41 -9t-40 -9q-8 0 -33 12q-15 -24 -27 -24q-31 0 -82 7q-4 1 -20.5 12t-26.5 11q-8 0 -50 -6t-49 -6q-63 0 -84 20v20q3 6 36 19t42 13q6 0 42.5 -9t44.5 -9h114q6 0 17.5 12t18.5 12t56.5 -9t57.5 -9q45 0 52 1t17 9t18 8q7 0 35.5 -9
t36.5 -9q7 0 37 15t38 15q7 0 68.5 -15t69.5 -15q6 0 20 9t22 9q6 0 26.5 -10t29.5 -10zM532 183q-51 11 -107 20q7 0 28 7.5t29 7.5q16 0 50 -35zM344 185q-6 0 -16 -4.5t-17 -4.5q-10 0 -15 5.5t-9 10.5q23 -7 57 -7zM214 216q-85 -40 -148 -33v33q10 -5 26 -15
q42 1 122 15z" />
    <glyph glyph-name="quotedblleft" unicode="&#x201c;" horiz-adv-x="564" 
d="M485 390q0 -10 -6 -19q-9 -17 -10 -19l-60 9q48 32 48 56q0 9 -17.5 45.5t-17.5 45.5v170q0 9 -6.5 37t-6.5 37q0 10 7.5 16t14.5 11q13 0 23 -16q-7 -79 -7 -166q0 -41 19 -123t19 -84zM427 393q-6 0 -18.5 -7t-20.5 -7q-12 0 -39 17q-3 22 -21 72q-22 59 -28 79
q-2 33 -11 90q-3 9 -21 32t-17 32v64q8 -2 15 -2q27 0 42 30q27 -14 45 -14q9 0 23.5 2.5t25.5 2.5q-14 -12 -14 -32l14 -245q0 -7 15.5 -43t15.5 -53q0 -11 -6 -18zM312 339q-16 -13 -37 -19q-43 -12 -57 -16q-8 8 -8 26q40 -1 82 20q-20 77 -45 206q-25 123 -25 137
q0 3 2 3q5 0 19.5 -22t17.5 -35q43 -184 51 -300zM263 360q-31 -1 -86 -15q-19 18 -38 66q-23 63 -29 74q-44 67 -122 203q5 1 36 13q23 9 33 9q9 0 10.5 -3.5t10.5 -3.5q12 0 99 35h23q2 -5 2 -10t-3.5 -16.5t-3.5 -18.5q0 -8 13 -47q15 -45 19 -63q8 -73 36 -223z" />
    <glyph glyph-name="quotedblright" unicode="&#x201d;" horiz-adv-x="551" 
d="M502 698q-49 -91 -99 -181q-51 -98 -83 -190q-16 4 -44 15q19 49 62 149q11 25 80 127q42 63 40 115q7 -17 44 -35zM435 696q1 -8 -26 -47q-32 -49 -39 -61q-40 -74 -54 -104q-31 -62 -49 -110q-27 10 -84 20v22q0 7 10 41q11 40 14 54q13 75 31 247q3 4 14 15
q1 0 63 -28q41 -18 51 -18q36 0 69 -8v-23zM209 762q0 -7 -18 -27.5t-20 -31.5q-12 -57 -41 -139q-26 -72 -30 -108q-1 -10 -9.5 -25t-17.5 -18h-29l-15 9q-1 37 12 126.5t13 127.5q0 23 -3 40q-2 8 1.5 29.5t3.5 30.5q0 22 -14 28q84 7 167 -19v-23zM212 720
q-21 -226 -84 -346q-9 -3 -46 16q11 7 25 27q3 14 84 281q2 2 13 11q8 7 8 11z" />
    <glyph glyph-name="quoteleft" unicode="&#x2018;" 
d="M632 362q-8 -2 -23 -19.5t-21 -22.5q-12 -1 -37 -10q-22 0 -38.5 5l-16.5 5q29 15 86 52q-12 49 -57 214q-36 131 -36 141q0 16 6 19q3 2 11 2q22 2 23 -18v-34q59 -201 103 -334zM560 392q-16 -17 -98 -46l-203 350q7 0 20 12t23 12q9 0 10.5 -7.5t10.5 -7.5q10 0 58 24
q57 27 77 33q30 -124 102 -370z" />
    <glyph glyph-name="quoteright" unicode="&#x2019;" 
d="M536 749l-4 -9l-38 22l4 10zM664 679q-29 -39 -90 -100q-64 -64 -92 -100q-25 -44 -77 -123q-14 -1 -39 23q59 94 104 145q144 164 160 164q10 0 21 -4.5t13 -4.5zM590 692q0 -21 -89 -107q-52 -50 -93 -106q-12 -22 -31 -60q-12 -22 -31 -22q-14 0 -41 17.5t-27 29.5
q0 9 54 143q65 162 84 216q52 -33 91 -80q22 0 60 -4q23 -14 23 -27z" />
  </font>
</defs>
</svg>
